<ttFont>
    <TTGlyph name=".notdef" xMin="193" yMin="0" xMax="1034" yMax="1462">
      <contour>
        <pt x="193" y="1462" on="1"/>
        <pt x="1034" y="1462" on="1"/>
        <pt x="1034" y="0" on="1"/>
        <pt x="193" y="0" on="1"/>
      </contour>
      <contour>
        <pt x="297" y="104" on="1"/>
        <pt x="930" y="104" on="1"/>
        <pt x="930" y="1358" on="1"/>
        <pt x="297" y="1358" on="1"/>
      </contour>
    </TTGlyph>
    <TTGlyph name="uni1200" xMin="170" yMin="-20" xMax="1118" yMax="1462">
      <contour>
        <pt x="1118" y="1462" on="1"/>
        <pt x="1118" y="518" on="1"/>
        <pt x="1118" y="256" on="0"/>
        <pt x="871" y="-20" on="0"/>
        <pt x="639" y="-20" on="1"/>
        <pt x="410" y="-20" on="0"/>
        <pt x="170" y="258" on="0"/>
        <pt x="170" y="522" on="1"/>
        <pt x="170" y="1462" on="1"/>
        <pt x="473" y="1462" on="1"/>
        <pt x="473" y="512" on="1"/>
        <pt x="473" y="366" on="0"/>
        <pt x="558" y="231" on="0"/>
        <pt x="647" y="231" on="1"/>
        <pt x="732" y="231" on="0"/>
        <pt x="815" y="367" on="0"/>
        <pt x="815" y="514" on="1"/>
        <pt x="815" y="1462" on="1"/>
      </contour>
    </TTGlyph>
    <TTGlyph name="uni1201" xMin="170" yMin="-20" xMax="1526" yMax="1462">
      <contour>
        <pt x="1118" y="1462" on="1"/>
        <pt x="1118" y="840" on="1"/>
        <pt x="1454" y="840" on="1"/>
        <pt x="1526" y="446" on="1"/>
        <pt x="1477" y="446" on="1"/>
        <pt x="1388" y="446" on="0"/>
        <pt x="1263" y="535" on="0"/>
        <pt x="1243" y="610" on="1"/>
        <pt x="1118" y="610" on="1"/>
        <pt x="1118" y="518" on="1"/>
        <pt x="1118" y="256" on="0"/>
        <pt x="871" y="-20" on="0"/>
        <pt x="639" y="-20" on="1"/>
        <pt x="410" y="-20" on="0"/>
        <pt x="170" y="258" on="0"/>
        <pt x="170" y="522" on="1"/>
        <pt x="170" y="1462" on="1"/>
        <pt x="473" y="1462" on="1"/>
        <pt x="473" y="512" on="1"/>
        <pt x="473" y="366" on="0"/>
        <pt x="558" y="231" on="0"/>
        <pt x="647" y="231" on="1"/>
        <pt x="732" y="231" on="0"/>
        <pt x="815" y="367" on="0"/>
        <pt x="815" y="514" on="1"/>
        <pt x="815" y="1462" on="1"/>
      </contour>
    </TTGlyph>
    <TTGlyph name="uni1202" xMin="131" yMin="-131" xMax="1087" yMax="1462">
      <contour>
        <pt x="461" y="670" on="1"/>
        <pt x="131" y="734" on="0"/>
        <pt x="131" y="1071" on="1"/>
        <pt x="131" y="1462" on="1"/>
        <pt x="434" y="1462" on="1"/>
        <pt x="434" y="1069" on="1"/>
        <pt x="434" y="997" on="0"/>
        <pt x="500" y="912" on="0"/>
        <pt x="553" y="903" on="1"/>
        <pt x="778" y="1462" on="1"/>
        <pt x="1087" y="1462" on="1"/>
        <pt x="592" y="229" on="1"/>
        <pt x="821" y="229" on="1"/>
        <pt x="841" y="284" on="0"/>
        <pt x="965" y="360" on="0"/>
        <pt x="1038" y="360" on="1"/>
        <pt x="1087" y="360" on="1"/>
        <pt x="1032" y="115" on="1"/>
        <pt x="1087" y="-131" on="1"/>
        <pt x="1038" y="-131" on="1"/>
        <pt x="965" y="-131" on="0"/>
        <pt x="841" y="-55" on="0"/>
        <pt x="821" y="0" on="1"/>
        <pt x="254" y="0" on="1"/>
        <pt x="254" y="160" on="1"/>
      </contour>
    </TTGlyph>
    <TTGlyph name="uni1203" xMin="131" yMin="0" xMax="1087" yMax="1462">
      <contour>
        <pt x="461" y="670" on="1"/>
        <pt x="131" y="734" on="0"/>
        <pt x="131" y="1071" on="1"/>
        <pt x="131" y="1462" on="1"/>
        <pt x="434" y="1462" on="1"/>
        <pt x="434" y="1069" on="1"/>
        <pt x="434" y="997" on="0"/>
        <pt x="500" y="912" on="0"/>
        <pt x="553" y="903" on="1"/>
        <pt x="778" y="1462" on="1"/>
        <pt x="1087" y="1462" on="1"/>
        <pt x="500" y="0" on="1"/>
        <pt x="193" y="0" on="1"/>
      </contour>
    </TTGlyph>
    <TTGlyph name="uni1204" xMin="131" yMin="0" xMax="1180" yMax="1462">
      <contour>
        <pt x="461" y="670" on="1"/>
        <pt x="131" y="734" on="0"/>
        <pt x="131" y="1071" on="1"/>
        <pt x="131" y="1462" on="1"/>
        <pt x="434" y="1462" on="1"/>
        <pt x="434" y="1069" on="1"/>
        <pt x="434" y="997" on="0"/>
        <pt x="500" y="912" on="0"/>
        <pt x="553" y="903" on="1"/>
        <pt x="778" y="1462" on="1"/>
        <pt x="1087" y="1462" on="1"/>
        <pt x="758" y="643" on="1"/>
        <pt x="831" y="643" on="1"/>
        <pt x="991" y="643" on="0"/>
        <pt x="1180" y="478" on="0"/>
        <pt x="1180" y="336" on="1"/>
        <pt x="1180" y="175" on="0"/>
        <pt x="960" y="0" on="0"/>
        <pt x="754" y="0" on="1"/>
        <pt x="254" y="0" on="1"/>
        <pt x="254" y="160" on="1"/>
      </contour>
      <contour>
        <pt x="676" y="440" on="1"/>
        <pt x="582" y="203" on="1"/>
        <pt x="670" y="203" on="1"/>
        <pt x="779" y="203" on="0"/>
        <pt x="881" y="267" on="0"/>
        <pt x="881" y="340" on="1"/>
        <pt x="881" y="393" on="0"/>
        <pt x="819" y="440" on="0"/>
        <pt x="754" y="440" on="1"/>
      </contour>
    </TTGlyph>
    <TTGlyph name="uni1205" xMin="109" yMin="-20" xMax="1368" yMax="1462">
      <contour>
        <pt x="1368" y="1462" on="1"/>
        <pt x="1368" y="518" on="1"/>
        <pt x="1368" y="256" on="0"/>
        <pt x="1121" y="-20" on="0"/>
        <pt x="889" y="-20" on="1"/>
        <pt x="660" y="-20" on="0"/>
        <pt x="420" y="258" on="0"/>
        <pt x="420" y="522" on="1"/>
        <pt x="420" y="891" on="1"/>
        <pt x="109" y="924" on="0"/>
        <pt x="109" y="1276" on="1"/>
        <pt x="109" y="1462" on="1"/>
        <pt x="410" y="1462" on="1"/>
        <pt x="410" y="1309" on="1"/>
        <pt x="410" y="1203" on="0"/>
        <pt x="496" y="1116" on="0"/>
        <pt x="610" y="1116" on="1"/>
        <pt x="723" y="1116" on="1"/>
        <pt x="723" y="512" on="1"/>
        <pt x="723" y="366" on="0"/>
        <pt x="808" y="231" on="0"/>
        <pt x="897" y="231" on="1"/>
        <pt x="982" y="231" on="0"/>
        <pt x="1065" y="367" on="0"/>
        <pt x="1065" y="514" on="1"/>
        <pt x="1065" y="1462" on="1"/>
      </contour>
    </TTGlyph>
    <TTGlyph name="uni1206" xMin="170" yMin="-20" xMax="1655" yMax="1483">
      <contour>
        <pt x="815" y="1434" on="1"/>
        <pt x="936" y="1461" on="0"/>
        <pt x="1111" y="1483" on="0"/>
        <pt x="1268" y="1483" on="1"/>
        <pt x="1452" y="1483" on="0"/>
        <pt x="1655" y="1318" on="0"/>
        <pt x="1655" y="1174" on="1"/>
        <pt x="1655" y="1011" on="0"/>
        <pt x="1437" y="838" on="0"/>
        <pt x="1229" y="838" on="1"/>
        <pt x="1118" y="838" on="1"/>
        <pt x="1118" y="518" on="1"/>
        <pt x="1118" y="261" on="0"/>
        <pt x="870" y="-20" on="0"/>
        <pt x="639" y="-20" on="1"/>
        <pt x="410" y="-20" on="0"/>
        <pt x="170" y="258" on="0"/>
        <pt x="170" y="520" on="1"/>
        <pt x="170" y="1462" on="1"/>
        <pt x="473" y="1462" on="1"/>
        <pt x="473" y="512" on="1"/>
        <pt x="473" y="366" on="0"/>
        <pt x="558" y="231" on="0"/>
        <pt x="647" y="231" on="1"/>
        <pt x="732" y="231" on="0"/>
        <pt x="815" y="367" on="0"/>
        <pt x="815" y="514" on="1"/>
      </contour>
      <contour>
        <pt x="1356" y="1180" on="1"/>
        <pt x="1356" y="1278" on="0"/>
        <pt x="1233" y="1278" on="1"/>
        <pt x="1164" y="1278" on="0"/>
        <pt x="1118" y="1266" on="1"/>
        <pt x="1118" y="1040" on="1"/>
        <pt x="1145" y="1040" on="1"/>
        <pt x="1251" y="1040" on="0"/>
        <pt x="1356" y="1105" on="0"/>
      </contour>
    </TTGlyph>
    <TTGlyph name="uni1207" xMin="72" yMin="-20" xMax="1946" yMax="1483">
      <contour>
        <pt x="1106" y="1434" on="1"/>
        <pt x="1230" y="1462" on="0"/>
        <pt x="1404" y="1483" on="0"/>
        <pt x="1559" y="1483" on="1"/>
        <pt x="1743" y="1483" on="0"/>
        <pt x="1946" y="1318" on="0"/>
        <pt x="1946" y="1174" on="1"/>
        <pt x="1946" y="1013" on="0"/>
        <pt x="1729" y="838" on="0"/>
        <pt x="1520" y="838" on="1"/>
        <pt x="1409" y="838" on="1"/>
        <pt x="1409" y="518" on="1"/>
        <pt x="1409" y="261" on="0"/>
        <pt x="1161" y="-20" on="0"/>
        <pt x="930" y="-20" on="1"/>
        <pt x="701" y="-20" on="0"/>
        <pt x="461" y="258" on="0"/>
        <pt x="461" y="520" on="1"/>
        <pt x="461" y="539" on="1"/>
        <pt x="338" y="539" on="1"/>
        <pt x="319" y="486" on="0"/>
        <pt x="195" y="408" on="0"/>
        <pt x="121" y="408" on="1"/>
        <pt x="72" y="408" on="1"/>
        <pt x="127" y="653" on="1"/>
        <pt x="72" y="899" on="1"/>
        <pt x="121" y="899" on="1"/>
        <pt x="194" y="899" on="0"/>
        <pt x="318" y="823" on="0"/>
        <pt x="338" y="768" on="1"/>
        <pt x="461" y="768" on="1"/>
        <pt x="461" y="1462" on="1"/>
        <pt x="764" y="1462" on="1"/>
        <pt x="764" y="512" on="1"/>
        <pt x="764" y="366" on="0"/>
        <pt x="849" y="231" on="0"/>
        <pt x="938" y="231" on="1"/>
        <pt x="1023" y="231" on="0"/>
        <pt x="1106" y="367" on="0"/>
        <pt x="1106" y="514" on="1"/>
      </contour>
      <contour>
        <pt x="1647" y="1180" on="1"/>
        <pt x="1647" y="1278" on="0"/>
        <pt x="1524" y="1278" on="1"/>
        <pt x="1455" y="1278" on="0"/>
        <pt x="1409" y="1266" on="1"/>
        <pt x="1409" y="1040" on="1"/>
        <pt x="1436" y="1040" on="1"/>
        <pt x="1542" y="1040" on="0"/>
        <pt x="1647" y="1105" on="0"/>
      </contour>
    </TTGlyph>
    <TTGlyph name="uni1208" xMin="88" yMin="0" xMax="1206" yMax="1462">
      <contour>
        <pt x="1206" y="0" on="1"/>
        <pt x="893" y="0" on="1"/>
        <pt x="598" y="874" on="1"/>
        <pt x="531" y="809" on="0"/>
        <pt x="435" y="404" on="0"/>
        <pt x="393" y="0" on="1"/>
        <pt x="88" y="0" on="1"/>
        <pt x="121" y="354" on="0"/>
        <pt x="227" y="810" on="0"/>
        <pt x="385" y="1076" on="0"/>
        <pt x="508" y="1128" on="1"/>
        <pt x="391" y="1462" on="1"/>
        <pt x="707" y="1462" on="1"/>
      </contour>
    </TTGlyph>
    <TTGlyph name="uni1209" xMin="88" yMin="0" xMax="1397" yMax="1462">
      <contour>
        <pt x="920" y="840" on="1"/>
        <pt x="1325" y="840" on="1"/>
        <pt x="1397" y="446" on="1"/>
        <pt x="1348" y="446" on="1"/>
        <pt x="1259" y="446" on="0"/>
        <pt x="1134" y="535" on="0"/>
        <pt x="1114" y="610" on="1"/>
        <pt x="997" y="610" on="1"/>
        <pt x="1206" y="0" on="1"/>
        <pt x="893" y="0" on="1"/>
        <pt x="598" y="874" on="1"/>
        <pt x="531" y="809" on="0"/>
        <pt x="435" y="404" on="0"/>
        <pt x="393" y="0" on="1"/>
        <pt x="88" y="0" on="1"/>
        <pt x="121" y="354" on="0"/>
        <pt x="227" y="810" on="0"/>
        <pt x="385" y="1076" on="0"/>
        <pt x="508" y="1128" on="1"/>
        <pt x="391" y="1462" on="1"/>
        <pt x="707" y="1462" on="1"/>
      </contour>
    </TTGlyph>
    <TTGlyph name="uni120A" xMin="88" yMin="-131" xMax="1518" yMax="1462">
      <contour>
        <pt x="1126" y="229" on="1"/>
        <pt x="1251" y="229" on="1"/>
        <pt x="1271" y="284" on="0"/>
        <pt x="1395" y="360" on="0"/>
        <pt x="1468" y="360" on="1"/>
        <pt x="1518" y="360" on="1"/>
        <pt x="1462" y="115" on="1"/>
        <pt x="1518" y="-131" on="1"/>
        <pt x="1468" y="-131" on="1"/>
        <pt x="1395" y="-131" on="0"/>
        <pt x="1271" y="-55" on="0"/>
        <pt x="1251" y="0" on="1"/>
        <pt x="893" y="0" on="1"/>
        <pt x="598" y="874" on="1"/>
        <pt x="531" y="809" on="0"/>
        <pt x="435" y="404" on="0"/>
        <pt x="393" y="0" on="1"/>
        <pt x="88" y="0" on="1"/>
        <pt x="121" y="354" on="0"/>
        <pt x="227" y="810" on="0"/>
        <pt x="385" y="1076" on="0"/>
        <pt x="508" y="1128" on="1"/>
        <pt x="391" y="1462" on="1"/>
        <pt x="707" y="1462" on="1"/>
      </contour>
    </TTGlyph>
    <TTGlyph name="uni120B" xMin="133" yMin="0" xMax="1206" yMax="1462">
      <contour>
        <pt x="1206" y="0" on="1"/>
        <pt x="893" y="0" on="1"/>
        <pt x="598" y="874" on="1"/>
        <pt x="548" y="826" on="0"/>
        <pt x="462" y="549" on="0"/>
        <pt x="438" y="362" on="1"/>
        <pt x="133" y="362" on="1"/>
        <pt x="181" y="700" on="0"/>
        <pt x="367" y="1071" on="0"/>
        <pt x="508" y="1128" on="1"/>
        <pt x="391" y="1462" on="1"/>
        <pt x="707" y="1462" on="1"/>
      </contour>
    </TTGlyph>
    <TTGlyph name="uni120C" xMin="88" yMin="0" xMax="1624" yMax="1462">
      <contour>
        <pt x="598" y="874" on="1"/>
        <pt x="531" y="809" on="0"/>
        <pt x="435" y="404" on="0"/>
        <pt x="393" y="0" on="1"/>
        <pt x="88" y="0" on="1"/>
        <pt x="121" y="354" on="0"/>
        <pt x="227" y="810" on="0"/>
        <pt x="385" y="1076" on="0"/>
        <pt x="508" y="1128" on="1"/>
        <pt x="391" y="1462" on="1"/>
        <pt x="707" y="1462" on="1"/>
        <pt x="985" y="643" on="1"/>
        <pt x="1225" y="643" on="1"/>
        <pt x="1420" y="643" on="0"/>
        <pt x="1624" y="484" on="0"/>
        <pt x="1624" y="336" on="1"/>
        <pt x="1624" y="186" on="0"/>
        <pt x="1400" y="8" on="0"/>
        <pt x="1206" y="0" on="1"/>
        <pt x="893" y="0" on="1"/>
      </contour>
      <contour>
        <pt x="1055" y="440" on="1"/>
        <pt x="1137" y="203" on="1"/>
        <pt x="1231" y="205" on="0"/>
        <pt x="1325" y="267" on="0"/>
        <pt x="1325" y="334" on="1"/>
        <pt x="1325" y="394" on="0"/>
        <pt x="1240" y="440" on="0"/>
        <pt x="1161" y="440" on="1"/>
      </contour>
    </TTGlyph>
    <TTGlyph name="uni120D" xMin="88" yMin="0" xMax="1450" yMax="1462">
      <contour>
        <pt x="88" y="0" on="1"/>
        <pt x="144" y="489" on="0"/>
        <pt x="399" y="1045" on="0"/>
        <pt x="616" y="1128" on="1"/>
        <pt x="471" y="1462" on="1"/>
        <pt x="786" y="1462" on="1"/>
        <pt x="1450" y="0" on="1"/>
        <pt x="1137" y="0" on="1"/>
        <pt x="719" y="899" on="1"/>
        <pt x="586" y="850" on="0"/>
        <pt x="502" y="643" on="1"/>
        <pt x="508" y="643" on="1"/>
        <pt x="669" y="643" on="0"/>
        <pt x="856" y="478" on="0"/>
        <pt x="856" y="336" on="1"/>
        <pt x="856" y="175" on="0"/>
        <pt x="636" y="0" on="0"/>
        <pt x="430" y="0" on="1"/>
      </contour>
      <contour>
        <pt x="438" y="440" on="1"/>
        <pt x="412" y="338" on="0"/>
        <pt x="387" y="203" on="1"/>
        <pt x="496" y="203" on="0"/>
        <pt x="598" y="267" on="0"/>
        <pt x="598" y="340" on="1"/>
        <pt x="598" y="393" on="0"/>
        <pt x="536" y="440" on="0"/>
        <pt x="471" y="440" on="1"/>
      </contour>
    </TTGlyph>
    <TTGlyph name="uni120E" xMin="88" yMin="0" xMax="1821" yMax="1462">
      <contour>
        <pt x="1069" y="721" on="1"/>
        <pt x="958" y="721" on="1"/>
        <pt x="1206" y="0" on="1"/>
        <pt x="893" y="0" on="1"/>
        <pt x="598" y="874" on="1"/>
        <pt x="531" y="809" on="0"/>
        <pt x="435" y="404" on="0"/>
        <pt x="393" y="0" on="1"/>
        <pt x="88" y="0" on="1"/>
        <pt x="121" y="354" on="0"/>
        <pt x="227" y="810" on="0"/>
        <pt x="385" y="1076" on="0"/>
        <pt x="508" y="1128" on="1"/>
        <pt x="391" y="1462" on="1"/>
        <pt x="707" y="1462" on="1"/>
        <pt x="881" y="950" on="1"/>
        <pt x="1212" y="950" on="1"/>
        <pt x="1307" y="993" on="0"/>
        <pt x="1446" y="993" on="1"/>
        <pt x="1628" y="993" on="0"/>
        <pt x="1821" y="844" on="0"/>
        <pt x="1821" y="709" on="1"/>
        <pt x="1821" y="568" on="0"/>
        <pt x="1621" y="403" on="0"/>
        <pt x="1446" y="403" on="1"/>
        <pt x="1271" y="403" on="0"/>
        <pt x="1069" y="570" on="0"/>
        <pt x="1069" y="709" on="1"/>
      </contour>
      <contour>
        <pt x="1446" y="829" on="1"/>
        <pt x="1392" y="829" on="0"/>
        <pt x="1331" y="765" on="0"/>
        <pt x="1331" y="709" on="1"/>
        <pt x="1331" y="645" on="0"/>
        <pt x="1393" y="567" on="0"/>
        <pt x="1446" y="567" on="1"/>
        <pt x="1499" y="567" on="0"/>
        <pt x="1559" y="646" on="0"/>
        <pt x="1559" y="709" on="1"/>
        <pt x="1559" y="764" on="0"/>
        <pt x="1499" y="829" on="0"/>
      </contour>
    </TTGlyph>
    <TTGlyph name="uni120F" xMin="133" yMin="-164" xMax="1473" yMax="1462">
      <contour>
        <pt x="1126" y="229" on="1"/>
        <pt x="1401" y="229" on="1"/>
        <pt x="1473" y="-164" on="1"/>
        <pt x="1423" y="-164" on="1"/>
        <pt x="1334" y="-164" on="0"/>
        <pt x="1210" y="-75" on="0"/>
        <pt x="1190" y="0" on="1"/>
        <pt x="670" y="0" on="1"/>
        <pt x="650" y="-75" on="0"/>
        <pt x="525" y="-164" on="0"/>
        <pt x="436" y="-164" on="1"/>
        <pt x="387" y="-164" on="1"/>
        <pt x="459" y="229" on="1"/>
        <pt x="815" y="229" on="1"/>
        <pt x="598" y="874" on="1"/>
        <pt x="548" y="826" on="0"/>
        <pt x="462" y="549" on="0"/>
        <pt x="438" y="362" on="1"/>
        <pt x="133" y="362" on="1"/>
        <pt x="181" y="700" on="0"/>
        <pt x="367" y="1071" on="0"/>
        <pt x="508" y="1128" on="1"/>
        <pt x="391" y="1462" on="1"/>
        <pt x="707" y="1462" on="1"/>
      </contour>
    </TTGlyph>
    <TTGlyph name="uni1210" xMin="129" yMin="0" xMax="1522" yMax="1462">
      <contour>
        <pt x="1221" y="0" on="1"/>
        <pt x="1221" y="436" on="1"/>
        <pt x="1221" y="566" on="0"/>
        <pt x="1091" y="719" on="0"/>
        <pt x="977" y="729" on="1"/>
        <pt x="977" y="0" on="1"/>
        <pt x="674" y="0" on="1"/>
        <pt x="674" y="729" on="1"/>
        <pt x="556" y="718" on="0"/>
        <pt x="430" y="562" on="0"/>
        <pt x="430" y="438" on="1"/>
        <pt x="430" y="0" on="1"/>
        <pt x="129" y="0" on="1"/>
        <pt x="129" y="430" on="1"/>
        <pt x="129" y="670" on="0"/>
        <pt x="421" y="967" on="0"/>
        <pt x="674" y="981" on="1"/>
        <pt x="674" y="1462" on="1"/>
        <pt x="977" y="1462" on="1"/>
        <pt x="977" y="979" on="1"/>
        <pt x="1144" y="971" on="0"/>
        <pt x="1391" y="831" on="0"/>
        <pt x="1522" y="587" on="0"/>
        <pt x="1522" y="432" on="1"/>
        <pt x="1522" y="0" on="1"/>
      </contour>
    </TTGlyph>
    <TTGlyph name="uni1211" xMin="129" yMin="0" xMax="1909" yMax="1462">
      <contour>
        <pt x="1221" y="0" on="1"/>
        <pt x="1221" y="436" on="1"/>
        <pt x="1221" y="566" on="0"/>
        <pt x="1091" y="719" on="0"/>
        <pt x="977" y="729" on="1"/>
        <pt x="977" y="0" on="1"/>
        <pt x="674" y="0" on="1"/>
        <pt x="674" y="729" on="1"/>
        <pt x="556" y="718" on="0"/>
        <pt x="430" y="562" on="0"/>
        <pt x="430" y="438" on="1"/>
        <pt x="430" y="0" on="1"/>
        <pt x="129" y="0" on="1"/>
        <pt x="129" y="430" on="1"/>
        <pt x="129" y="670" on="0"/>
        <pt x="421" y="967" on="0"/>
        <pt x="674" y="981" on="1"/>
        <pt x="674" y="1462" on="1"/>
        <pt x="977" y="1462" on="1"/>
        <pt x="977" y="979" on="1"/>
        <pt x="1146" y="969" on="0"/>
        <pt x="1392" y="827" on="0"/>
        <pt x="1458" y="702" on="1"/>
        <pt x="1837" y="702" on="1"/>
        <pt x="1909" y="309" on="1"/>
        <pt x="1860" y="309" on="1"/>
        <pt x="1771" y="309" on="0"/>
        <pt x="1646" y="398" on="0"/>
        <pt x="1626" y="473" on="1"/>
        <pt x="1520" y="473" on="1"/>
        <pt x="1522" y="453" on="1"/>
        <pt x="1522" y="0" on="1"/>
      </contour>
    </TTGlyph>
    <TTGlyph name="uni1212" xMin="129" yMin="-131" xMax="1911" yMax="1462">
      <contour>
        <pt x="1221" y="0" on="1"/>
        <pt x="1221" y="436" on="1"/>
        <pt x="1221" y="566" on="0"/>
        <pt x="1091" y="719" on="0"/>
        <pt x="977" y="729" on="1"/>
        <pt x="977" y="0" on="1"/>
        <pt x="674" y="0" on="1"/>
        <pt x="674" y="729" on="1"/>
        <pt x="556" y="718" on="0"/>
        <pt x="430" y="562" on="0"/>
        <pt x="430" y="438" on="1"/>
        <pt x="430" y="0" on="1"/>
        <pt x="129" y="0" on="1"/>
        <pt x="129" y="430" on="1"/>
        <pt x="129" y="670" on="0"/>
        <pt x="421" y="967" on="0"/>
        <pt x="674" y="981" on="1"/>
        <pt x="674" y="1462" on="1"/>
        <pt x="977" y="1462" on="1"/>
        <pt x="977" y="979" on="1"/>
        <pt x="1144" y="971" on="0"/>
        <pt x="1391" y="831" on="0"/>
        <pt x="1522" y="587" on="0"/>
        <pt x="1522" y="432" on="1"/>
        <pt x="1522" y="229" on="1"/>
        <pt x="1645" y="229" on="1"/>
        <pt x="1662" y="282" on="0"/>
        <pt x="1789" y="360" on="0"/>
        <pt x="1862" y="360" on="1"/>
        <pt x="1911" y="360" on="1"/>
        <pt x="1855" y="115" on="1"/>
        <pt x="1911" y="-131" on="1"/>
        <pt x="1862" y="-131" on="1"/>
        <pt x="1787" y="-131" on="0"/>
        <pt x="1662" y="-53" on="0"/>
        <pt x="1645" y="0" on="1"/>
      </contour>
    </TTGlyph>
    <TTGlyph name="uni1213" xMin="109" yMin="0" xMax="1501" yMax="1462">
      <contour>
        <pt x="1200" y="0" on="1"/>
        <pt x="1200" y="436" on="1"/>
        <pt x="1200" y="571" on="0"/>
        <pt x="1067" y="718" on="0"/>
        <pt x="956" y="729" on="1"/>
        <pt x="956" y="291" on="1"/>
        <pt x="653" y="291" on="1"/>
        <pt x="653" y="729" on="1"/>
        <pt x="536" y="718" on="0"/>
        <pt x="410" y="564" on="0"/>
        <pt x="410" y="438" on="1"/>
        <pt x="410" y="291" on="1"/>
        <pt x="109" y="291" on="1"/>
        <pt x="109" y="430" on="1"/>
        <pt x="109" y="670" on="0"/>
        <pt x="401" y="968" on="0"/>
        <pt x="653" y="981" on="1"/>
        <pt x="653" y="1462" on="1"/>
        <pt x="956" y="1462" on="1"/>
        <pt x="956" y="979" on="1"/>
        <pt x="1123" y="971" on="0"/>
        <pt x="1370" y="832" on="0"/>
        <pt x="1501" y="588" on="0"/>
        <pt x="1501" y="432" on="1"/>
        <pt x="1501" y="0" on="1"/>
      </contour>
    </TTGlyph>
    <TTGlyph name="uni1214" xMin="129" yMin="0" xMax="2052" yMax="1462">
      <contour>
        <pt x="1221" y="0" on="1"/>
        <pt x="1221" y="436" on="1"/>
        <pt x="1221" y="566" on="0"/>
        <pt x="1091" y="719" on="0"/>
        <pt x="977" y="729" on="1"/>
        <pt x="977" y="0" on="1"/>
        <pt x="674" y="0" on="1"/>
        <pt x="674" y="729" on="1"/>
        <pt x="556" y="718" on="0"/>
        <pt x="430" y="562" on="0"/>
        <pt x="430" y="438" on="1"/>
        <pt x="430" y="0" on="1"/>
        <pt x="129" y="0" on="1"/>
        <pt x="129" y="430" on="1"/>
        <pt x="129" y="670" on="0"/>
        <pt x="421" y="967" on="0"/>
        <pt x="674" y="981" on="1"/>
        <pt x="674" y="1462" on="1"/>
        <pt x="977" y="1462" on="1"/>
        <pt x="977" y="979" on="1"/>
        <pt x="1168" y="969" on="0"/>
        <pt x="1431" y="793" on="0"/>
        <pt x="1485" y="643" on="1"/>
        <pt x="1653" y="643" on="1"/>
        <pt x="1848" y="643" on="0"/>
        <pt x="2052" y="484" on="0"/>
        <pt x="2052" y="336" on="1"/>
        <pt x="2052" y="180" on="0"/>
        <pt x="1808" y="0" on="0"/>
        <pt x="1597" y="0" on="1"/>
      </contour>
      <contour>
        <pt x="1522" y="440" on="1"/>
        <pt x="1522" y="203" on="1"/>
        <pt x="1542" y="203" on="1"/>
        <pt x="1648" y="203" on="0"/>
        <pt x="1753" y="264" on="0"/>
        <pt x="1753" y="334" on="1"/>
        <pt x="1753" y="394" on="0"/>
        <pt x="1671" y="440" on="0"/>
        <pt x="1589" y="440" on="1"/>
      </contour>
    </TTGlyph>
    <TTGlyph name="uni1215" xMin="129" yMin="0" xMax="1522" yMax="1647">
      <contour>
        <pt x="1221" y="0" on="1"/>
        <pt x="1221" y="436" on="1"/>
        <pt x="1221" y="566" on="0"/>
        <pt x="1091" y="719" on="0"/>
        <pt x="977" y="729" on="1"/>
        <pt x="977" y="0" on="1"/>
        <pt x="674" y="0" on="1"/>
        <pt x="674" y="729" on="1"/>
        <pt x="556" y="718" on="0"/>
        <pt x="430" y="562" on="0"/>
        <pt x="430" y="438" on="1"/>
        <pt x="430" y="0" on="1"/>
        <pt x="129" y="0" on="1"/>
        <pt x="129" y="430" on="1"/>
        <pt x="129" y="670" on="0"/>
        <pt x="421" y="967" on="0"/>
        <pt x="674" y="981" on="1"/>
        <pt x="674" y="1235" on="1"/>
        <pt x="317" y="1235" on="1"/>
        <pt x="246" y="1647" on="1"/>
        <pt x="295" y="1647" on="1"/>
        <pt x="380" y="1647" on="0"/>
        <pt x="507" y="1542" on="0"/>
        <pt x="528" y="1462" on="1"/>
        <pt x="977" y="1462" on="1"/>
        <pt x="977" y="979" on="1"/>
        <pt x="1144" y="971" on="0"/>
        <pt x="1391" y="831" on="0"/>
        <pt x="1522" y="587" on="0"/>
        <pt x="1522" y="432" on="1"/>
        <pt x="1522" y="0" on="1"/>
      </contour>
    </TTGlyph>
    <TTGlyph name="uni1216" xMin="129" yMin="0" xMax="1522" yMax="1462">
      <contour>
        <pt x="1221" y="291" on="1"/>
        <pt x="1221" y="436" on="1"/>
        <pt x="1221" y="566" on="0"/>
        <pt x="1091" y="719" on="0"/>
        <pt x="977" y="729" on="1"/>
        <pt x="977" y="291" on="1"/>
        <pt x="674" y="291" on="1"/>
        <pt x="674" y="729" on="1"/>
        <pt x="556" y="718" on="0"/>
        <pt x="430" y="562" on="0"/>
        <pt x="430" y="438" on="1"/>
        <pt x="430" y="0" on="1"/>
        <pt x="129" y="0" on="1"/>
        <pt x="129" y="430" on="1"/>
        <pt x="129" y="670" on="0"/>
        <pt x="421" y="967" on="0"/>
        <pt x="674" y="981" on="1"/>
        <pt x="674" y="1462" on="1"/>
        <pt x="977" y="1462" on="1"/>
        <pt x="977" y="979" on="1"/>
        <pt x="1144" y="971" on="0"/>
        <pt x="1391" y="831" on="0"/>
        <pt x="1522" y="587" on="0"/>
        <pt x="1522" y="432" on="1"/>
        <pt x="1522" y="291" on="1"/>
      </contour>
    </TTGlyph>
    <TTGlyph name="uni1217" xMin="109" yMin="-164" xMax="1825" yMax="1462">
      <contour>
        <pt x="1200" y="229" on="1"/>
        <pt x="1200" y="436" on="1"/>
        <pt x="1200" y="571" on="0"/>
        <pt x="1067" y="718" on="0"/>
        <pt x="956" y="729" on="1"/>
        <pt x="956" y="352" on="1"/>
        <pt x="653" y="352" on="1"/>
        <pt x="653" y="729" on="1"/>
        <pt x="536" y="718" on="0"/>
        <pt x="410" y="564" on="0"/>
        <pt x="410" y="438" on="1"/>
        <pt x="410" y="352" on="1"/>
        <pt x="109" y="352" on="1"/>
        <pt x="109" y="430" on="1"/>
        <pt x="109" y="670" on="0"/>
        <pt x="401" y="968" on="0"/>
        <pt x="653" y="981" on="1"/>
        <pt x="653" y="1462" on="1"/>
        <pt x="956" y="1462" on="1"/>
        <pt x="956" y="979" on="1"/>
        <pt x="1123" y="971" on="0"/>
        <pt x="1370" y="832" on="0"/>
        <pt x="1501" y="588" on="0"/>
        <pt x="1501" y="432" on="1"/>
        <pt x="1501" y="229" on="1"/>
        <pt x="1753" y="229" on="1"/>
        <pt x="1825" y="-164" on="1"/>
        <pt x="1776" y="-164" on="1"/>
        <pt x="1687" y="-164" on="0"/>
        <pt x="1562" y="-75" on="0"/>
        <pt x="1542" y="0" on="1"/>
        <pt x="862" y="0" on="1"/>
        <pt x="842" y="-75" on="0"/>
        <pt x="719" y="-164" on="0"/>
        <pt x="629" y="-164" on="1"/>
        <pt x="580" y="-164" on="1"/>
        <pt x="651" y="229" on="1"/>
      </contour>
    </TTGlyph>
    <TTGlyph name="uni1218" xMin="109" yMin="-20" xMax="2025" yMax="1462">
      <contour>
        <pt x="1190" y="1237" on="1"/>
        <pt x="1014" y="1237" on="1"/>
        <pt x="1014" y="150" on="1"/>
        <pt x="920" y="68" on="0"/>
        <pt x="720" y="-20" on="0"/>
        <pt x="600" y="-20" on="1"/>
        <pt x="355" y="-20" on="0"/>
        <pt x="109" y="325" on="0"/>
        <pt x="109" y="682" on="1"/>
        <pt x="109" y="1045" on="0"/>
        <pt x="410" y="1462" on="0"/>
        <pt x="676" y="1462" on="1"/>
        <pt x="1583" y="1462" on="1"/>
        <pt x="1791" y="1462" on="0"/>
        <pt x="2025" y="1134" on="0"/>
        <pt x="2025" y="838" on="1"/>
        <pt x="2025" y="516" on="0"/>
        <pt x="1818" y="150" on="0"/>
        <pt x="1634" y="150" on="1"/>
        <pt x="1190" y="150" on="1"/>
      </contour>
      <contour>
        <pt x="586" y="209" on="1"/>
        <pt x="630" y="209" on="0"/>
        <pt x="682" y="237" on="0"/>
        <pt x="711" y="268" on="1"/>
        <pt x="711" y="1237" on="1"/>
        <pt x="684" y="1237" on="1"/>
        <pt x="601" y="1237" on="0"/>
        <pt x="477" y="1110" on="0"/>
        <pt x="408" y="855" on="0"/>
        <pt x="408" y="692" on="1"/>
        <pt x="408" y="454" on="0"/>
        <pt x="498" y="209" on="0"/>
      </contour>
      <contour>
        <pt x="1493" y="1237" on="1"/>
        <pt x="1493" y="377" on="1"/>
        <pt x="1567" y="377" on="1"/>
        <pt x="1726" y="377" on="0"/>
        <pt x="1726" y="821" on="1"/>
        <pt x="1726" y="1031" on="0"/>
        <pt x="1644" y="1237" on="0"/>
        <pt x="1567" y="1237" on="1"/>
      </contour>
    </TTGlyph>
    <TTGlyph name="uni1219" xMin="109" yMin="-20" xMax="2423" yMax="1462">
      <contour>
        <pt x="1190" y="1237" on="1"/>
        <pt x="1014" y="1237" on="1"/>
        <pt x="1014" y="150" on="1"/>
        <pt x="920" y="68" on="0"/>
        <pt x="720" y="-20" on="0"/>
        <pt x="600" y="-20" on="1"/>
        <pt x="355" y="-20" on="0"/>
        <pt x="109" y="325" on="0"/>
        <pt x="109" y="682" on="1"/>
        <pt x="109" y="1045" on="0"/>
        <pt x="410" y="1462" on="0"/>
        <pt x="676" y="1462" on="1"/>
        <pt x="1583" y="1462" on="1"/>
        <pt x="1776" y="1462" on="0"/>
        <pt x="2004" y="1182" on="0"/>
        <pt x="2021" y="936" on="1"/>
        <pt x="2351" y="936" on="1"/>
        <pt x="2423" y="543" on="1"/>
        <pt x="2374" y="543" on="1"/>
        <pt x="2285" y="543" on="0"/>
        <pt x="2160" y="631" on="0"/>
        <pt x="2140" y="707" on="1"/>
        <pt x="2019" y="707" on="1"/>
        <pt x="1999" y="444" on="0"/>
        <pt x="1798" y="150" on="0"/>
        <pt x="1634" y="150" on="1"/>
        <pt x="1190" y="150" on="1"/>
      </contour>
      <contour>
        <pt x="586" y="209" on="1"/>
        <pt x="630" y="209" on="0"/>
        <pt x="682" y="237" on="0"/>
        <pt x="711" y="268" on="1"/>
        <pt x="711" y="1237" on="1"/>
        <pt x="684" y="1237" on="1"/>
        <pt x="601" y="1237" on="0"/>
        <pt x="477" y="1110" on="0"/>
        <pt x="408" y="855" on="0"/>
        <pt x="408" y="692" on="1"/>
        <pt x="408" y="454" on="0"/>
        <pt x="498" y="209" on="0"/>
      </contour>
      <contour>
        <pt x="1493" y="1237" on="1"/>
        <pt x="1493" y="377" on="1"/>
        <pt x="1567" y="377" on="1"/>
        <pt x="1726" y="377" on="0"/>
        <pt x="1726" y="821" on="1"/>
        <pt x="1726" y="1031" on="0"/>
        <pt x="1644" y="1237" on="0"/>
        <pt x="1567" y="1237" on="1"/>
      </contour>
    </TTGlyph>
    <TTGlyph name="uni121A" xMin="109" yMin="-131" xMax="2193" yMax="1462">
      <contour>
        <pt x="1595" y="705" on="1"/>
        <pt x="1532" y="705" on="1"/>
        <pt x="1192" y="705" on="0"/>
        <pt x="1192" y="1012" on="1"/>
        <pt x="1192" y="1048" on="1"/>
        <pt x="1194" y="1081" on="1"/>
        <pt x="1206" y="1237" on="1"/>
        <pt x="1016" y="1237" on="1"/>
        <pt x="1016" y="731" on="1"/>
        <pt x="795" y="553" on="0"/>
        <pt x="545" y="553" on="1"/>
        <pt x="333" y="553" on="0"/>
        <pt x="109" y="768" on="0"/>
        <pt x="109" y="971" on="1"/>
        <pt x="109" y="1114" on="0"/>
        <pt x="255" y="1338" on="0"/>
        <pt x="533" y="1462" on="0"/>
        <pt x="713" y="1462" on="1"/>
        <pt x="1677" y="1462" on="1"/>
        <pt x="1877" y="1462" on="0"/>
        <pt x="2060" y="1329" on="0"/>
        <pt x="2060" y="1171" on="1"/>
        <pt x="2060" y="1117" on="0"/>
        <pt x="2019" y="973" on="0"/>
        <pt x="1950" y="811" on="1"/>
        <pt x="1700" y="229" on="1"/>
        <pt x="1927" y="229" on="1"/>
        <pt x="1947" y="284" on="0"/>
        <pt x="2071" y="360" on="0"/>
        <pt x="2144" y="360" on="1"/>
        <pt x="2193" y="360" on="1"/>
        <pt x="2138" y="115" on="1"/>
        <pt x="2193" y="-131" on="1"/>
        <pt x="2144" y="-131" on="1"/>
        <pt x="2071" y="-131" on="0"/>
        <pt x="1947" y="-55" on="0"/>
        <pt x="1927" y="0" on="1"/>
        <pt x="1360" y="0" on="1"/>
        <pt x="1360" y="160" on="1"/>
      </contour>
      <contour>
        <pt x="551" y="782" on="1"/>
        <pt x="643" y="782" on="0"/>
        <pt x="713" y="813" on="1"/>
        <pt x="713" y="1237" on="1"/>
        <pt x="565" y="1235" on="0"/>
        <pt x="410" y="1098" on="0"/>
        <pt x="410" y="967" on="1"/>
        <pt x="410" y="872" on="0"/>
        <pt x="489" y="782" on="0"/>
      </contour>
      <contour>
        <pt x="1509" y="1237" on="1"/>
        <pt x="1491" y="1083" on="0"/>
        <pt x="1491" y="1069" on="1"/>
        <pt x="1491" y="1044" on="1"/>
        <pt x="1491" y="932" on="0"/>
        <pt x="1667" y="932" on="1"/>
        <pt x="1694" y="932" on="1"/>
        <pt x="1712" y="975" on="1"/>
        <pt x="1763" y="1094" on="0"/>
        <pt x="1763" y="1149" on="1"/>
        <pt x="1763" y="1237" on="0"/>
        <pt x="1649" y="1237" on="1"/>
      </contour>
    </TTGlyph>
    <TTGlyph name="uni121B" xMin="109" yMin="0" xMax="2060" yMax="1462">
      <contour>
        <pt x="1532" y="705" on="1"/>
        <pt x="1192" y="705" on="0"/>
        <pt x="1192" y="1012" on="1"/>
        <pt x="1192" y="1048" on="1"/>
        <pt x="1194" y="1081" on="1"/>
        <pt x="1206" y="1237" on="1"/>
        <pt x="1016" y="1237" on="1"/>
        <pt x="1016" y="731" on="1"/>
        <pt x="795" y="553" on="0"/>
        <pt x="545" y="553" on="1"/>
        <pt x="333" y="553" on="0"/>
        <pt x="109" y="768" on="0"/>
        <pt x="109" y="971" on="1"/>
        <pt x="109" y="1114" on="0"/>
        <pt x="255" y="1338" on="0"/>
        <pt x="533" y="1462" on="0"/>
        <pt x="713" y="1462" on="1"/>
        <pt x="1677" y="1462" on="1"/>
        <pt x="1877" y="1462" on="0"/>
        <pt x="2060" y="1329" on="0"/>
        <pt x="2060" y="1171" on="1"/>
        <pt x="2060" y="1117" on="0"/>
        <pt x="2019" y="973" on="0"/>
        <pt x="1950" y="811" on="1"/>
        <pt x="1602" y="0" on="1"/>
        <pt x="1290" y="0" on="1"/>
        <pt x="1595" y="705" on="1"/>
      </contour>
      <contour>
        <pt x="563" y="782" on="1"/>
        <pt x="649" y="782" on="0"/>
        <pt x="713" y="813" on="1"/>
        <pt x="713" y="1237" on="1"/>
        <pt x="565" y="1235" on="0"/>
        <pt x="410" y="1098" on="0"/>
        <pt x="410" y="967" on="1"/>
        <pt x="410" y="884" on="0"/>
        <pt x="492" y="782" on="0"/>
      </contour>
      <contour>
        <pt x="1509" y="1237" on="1"/>
        <pt x="1491" y="1083" on="0"/>
        <pt x="1491" y="1069" on="1"/>
        <pt x="1491" y="1044" on="1"/>
        <pt x="1491" y="932" on="0"/>
        <pt x="1667" y="932" on="1"/>
        <pt x="1694" y="932" on="1"/>
        <pt x="1712" y="975" on="1"/>
        <pt x="1763" y="1094" on="0"/>
        <pt x="1763" y="1149" on="1"/>
        <pt x="1763" y="1237" on="0"/>
        <pt x="1649" y="1237" on="1"/>
      </contour>
    </TTGlyph>
    <TTGlyph name="uni121C" xMin="109" yMin="0" xMax="2286" yMax="1462">
      <contour>
        <pt x="1532" y="705" on="1"/>
        <pt x="1192" y="705" on="0"/>
        <pt x="1192" y="1012" on="1"/>
        <pt x="1192" y="1048" on="1"/>
        <pt x="1194" y="1081" on="1"/>
        <pt x="1206" y="1237" on="1"/>
        <pt x="1016" y="1237" on="1"/>
        <pt x="1016" y="731" on="1"/>
        <pt x="795" y="553" on="0"/>
        <pt x="545" y="553" on="1"/>
        <pt x="333" y="553" on="0"/>
        <pt x="109" y="768" on="0"/>
        <pt x="109" y="971" on="1"/>
        <pt x="109" y="1114" on="0"/>
        <pt x="255" y="1338" on="0"/>
        <pt x="533" y="1462" on="0"/>
        <pt x="713" y="1462" on="1"/>
        <pt x="1677" y="1462" on="1"/>
        <pt x="1877" y="1462" on="0"/>
        <pt x="2060" y="1329" on="0"/>
        <pt x="2060" y="1171" on="1"/>
        <pt x="2060" y="1131" on="0"/>
        <pt x="2039" y="1038" on="0"/>
        <pt x="1998" y="924" on="0"/>
        <pt x="1878" y="643" on="1"/>
        <pt x="1937" y="643" on="1"/>
        <pt x="2097" y="643" on="0"/>
        <pt x="2286" y="478" on="0"/>
        <pt x="2286" y="336" on="1"/>
        <pt x="2286" y="175" on="0"/>
        <pt x="2066" y="0" on="0"/>
        <pt x="1860" y="0" on="1"/>
        <pt x="1360" y="0" on="1"/>
        <pt x="1360" y="160" on="1"/>
        <pt x="1595" y="705" on="1"/>
      </contour>
      <contour>
        <pt x="563" y="782" on="1"/>
        <pt x="649" y="782" on="0"/>
        <pt x="713" y="813" on="1"/>
        <pt x="713" y="1237" on="1"/>
        <pt x="565" y="1235" on="0"/>
        <pt x="410" y="1098" on="0"/>
        <pt x="410" y="967" on="1"/>
        <pt x="410" y="884" on="0"/>
        <pt x="492" y="782" on="0"/>
      </contour>
      <contour>
        <pt x="1509" y="1237" on="1"/>
        <pt x="1491" y="1083" on="0"/>
        <pt x="1491" y="1069" on="1"/>
        <pt x="1491" y="1044" on="1"/>
        <pt x="1491" y="932" on="0"/>
        <pt x="1667" y="932" on="1"/>
        <pt x="1694" y="932" on="1"/>
        <pt x="1712" y="975" on="1"/>
        <pt x="1763" y="1094" on="0"/>
        <pt x="1763" y="1149" on="1"/>
        <pt x="1763" y="1237" on="0"/>
        <pt x="1649" y="1237" on="1"/>
      </contour>
      <contour>
        <pt x="1790" y="440" on="1"/>
        <pt x="1688" y="203" on="1"/>
        <pt x="1776" y="203" on="1"/>
        <pt x="1885" y="203" on="0"/>
        <pt x="1987" y="267" on="0"/>
        <pt x="1987" y="340" on="1"/>
        <pt x="1987" y="393" on="0"/>
        <pt x="1925" y="440" on="0"/>
        <pt x="1860" y="440" on="1"/>
      </contour>
    </TTGlyph>
    <TTGlyph name="uni121D" xMin="109" yMin="0" xMax="2025" yMax="1462">
      <contour>
        <pt x="643" y="561" on="1"/>
        <pt x="601" y="553" on="0"/>
        <pt x="539" y="553" on="1"/>
        <pt x="328" y="553" on="0"/>
        <pt x="109" y="768" on="0"/>
        <pt x="109" y="969" on="1"/>
        <pt x="109" y="1110" on="0"/>
        <pt x="248" y="1336" on="0"/>
        <pt x="506" y="1462" on="0"/>
        <pt x="676" y="1462" on="1"/>
        <pt x="1583" y="1462" on="1"/>
        <pt x="1792" y="1462" on="0"/>
        <pt x="2025" y="1272" on="0"/>
        <pt x="2025" y="1102" on="1"/>
        <pt x="2025" y="919" on="0"/>
        <pt x="1818" y="707" on="0"/>
        <pt x="1634" y="707" on="1"/>
        <pt x="1190" y="707" on="1"/>
        <pt x="1190" y="1237" on="1"/>
        <pt x="1014" y="1237" on="1"/>
        <pt x="1014" y="707" on="1"/>
        <pt x="713" y="0" on="1"/>
        <pt x="401" y="0" on="1"/>
      </contour>
      <contour>
        <pt x="553" y="782" on="1"/>
        <pt x="642" y="782" on="0"/>
        <pt x="711" y="819" on="1"/>
        <pt x="711" y="1237" on="1"/>
        <pt x="684" y="1237" on="1"/>
        <pt x="596" y="1237" on="0"/>
        <pt x="473" y="1164" on="0"/>
        <pt x="408" y="1041" on="0"/>
        <pt x="408" y="967" on="1"/>
        <pt x="408" y="880" on="0"/>
        <pt x="487" y="782" on="0"/>
      </contour>
      <contour>
        <pt x="1493" y="1237" on="1"/>
        <pt x="1493" y="934" on="1"/>
        <pt x="1567" y="934" on="1"/>
        <pt x="1726" y="934" on="0"/>
        <pt x="1726" y="1092" on="1"/>
        <pt x="1726" y="1165" on="0"/>
        <pt x="1642" y="1237" on="0"/>
        <pt x="1567" y="1237" on="1"/>
      </contour>
    </TTGlyph>
    <TTGlyph name="uni121E" xMin="109" yMin="0" xMax="2025" yMax="1462">
      <contour>
        <pt x="711" y="571" on="1"/>
        <pt x="621" y="553" on="0"/>
        <pt x="539" y="553" on="1"/>
        <pt x="328" y="553" on="0"/>
        <pt x="109" y="768" on="0"/>
        <pt x="109" y="969" on="1"/>
        <pt x="109" y="1110" on="0"/>
        <pt x="248" y="1336" on="0"/>
        <pt x="506" y="1462" on="0"/>
        <pt x="676" y="1462" on="1"/>
        <pt x="1583" y="1462" on="1"/>
        <pt x="1792" y="1462" on="0"/>
        <pt x="2025" y="1272" on="0"/>
        <pt x="2025" y="1102" on="1"/>
        <pt x="2025" y="919" on="0"/>
        <pt x="1818" y="707" on="0"/>
        <pt x="1634" y="707" on="1"/>
        <pt x="1190" y="707" on="1"/>
        <pt x="1190" y="1237" on="1"/>
        <pt x="1014" y="1237" on="1"/>
        <pt x="1014" y="0" on="1"/>
        <pt x="711" y="0" on="1"/>
      </contour>
      <contour>
        <pt x="553" y="782" on="1"/>
        <pt x="642" y="782" on="0"/>
        <pt x="711" y="819" on="1"/>
        <pt x="711" y="1237" on="1"/>
        <pt x="684" y="1237" on="1"/>
        <pt x="596" y="1237" on="0"/>
        <pt x="473" y="1164" on="0"/>
        <pt x="408" y="1041" on="0"/>
        <pt x="408" y="967" on="1"/>
        <pt x="408" y="880" on="0"/>
        <pt x="487" y="782" on="0"/>
      </contour>
      <contour>
        <pt x="1493" y="1237" on="1"/>
        <pt x="1493" y="934" on="1"/>
        <pt x="1567" y="934" on="1"/>
        <pt x="1726" y="934" on="0"/>
        <pt x="1726" y="1092" on="1"/>
        <pt x="1726" y="1165" on="0"/>
        <pt x="1642" y="1237" on="0"/>
        <pt x="1567" y="1237" on="1"/>
      </contour>
    </TTGlyph>
    <TTGlyph name="uni121F" xMin="106" yMin="-164" xMax="2107" yMax="1462">
      <contour>
        <pt x="1386" y="229" on="1"/>
        <pt x="1593" y="705" on="1"/>
        <pt x="1530" y="705" on="1"/>
        <pt x="1190" y="705" on="0"/>
        <pt x="1190" y="1012" on="1"/>
        <pt x="1190" y="1048" on="1"/>
        <pt x="1192" y="1081" on="1"/>
        <pt x="1204" y="1237" on="1"/>
        <pt x="1014" y="1237" on="1"/>
        <pt x="1014" y="731" on="1"/>
        <pt x="793" y="553" on="0"/>
        <pt x="543" y="553" on="1"/>
        <pt x="330" y="553" on="0"/>
        <pt x="106" y="771" on="0"/>
        <pt x="106" y="971" on="1"/>
        <pt x="106" y="1115" on="0"/>
        <pt x="253" y="1339" on="0"/>
        <pt x="532" y="1462" on="0"/>
        <pt x="711" y="1462" on="1"/>
        <pt x="1675" y="1462" on="1"/>
        <pt x="1875" y="1462" on="0"/>
        <pt x="2058" y="1329" on="0"/>
        <pt x="2058" y="1171" on="1"/>
        <pt x="2058" y="1117" on="0"/>
        <pt x="2017" y="973" on="0"/>
        <pt x="1948" y="811" on="1"/>
        <pt x="1698" y="229" on="1"/>
        <pt x="2036" y="229" on="1"/>
        <pt x="2107" y="-164" on="1"/>
        <pt x="2058" y="-164" on="1"/>
        <pt x="1968" y="-164" on="0"/>
        <pt x="1845" y="-75" on="0"/>
        <pt x="1825" y="0" on="1"/>
        <pt x="1245" y="0" on="1"/>
        <pt x="1225" y="-75" on="0"/>
        <pt x="1101" y="-164" on="0"/>
        <pt x="1012" y="-164" on="1"/>
        <pt x="963" y="-164" on="1"/>
        <pt x="1034" y="229" on="1"/>
      </contour>
      <contour>
        <pt x="561" y="782" on="1"/>
        <pt x="647" y="782" on="0"/>
        <pt x="711" y="813" on="1"/>
        <pt x="711" y="1237" on="1"/>
        <pt x="563" y="1235" on="0"/>
        <pt x="408" y="1098" on="0"/>
        <pt x="408" y="967" on="1"/>
        <pt x="408" y="884" on="0"/>
        <pt x="490" y="782" on="0"/>
      </contour>
      <contour>
        <pt x="1507" y="1237" on="1"/>
        <pt x="1489" y="1083" on="0"/>
        <pt x="1489" y="1069" on="1"/>
        <pt x="1489" y="1044" on="1"/>
        <pt x="1489" y="932" on="0"/>
        <pt x="1665" y="932" on="1"/>
        <pt x="1692" y="932" on="1"/>
        <pt x="1710" y="975" on="1"/>
        <pt x="1761" y="1094" on="0"/>
        <pt x="1761" y="1149" on="1"/>
        <pt x="1761" y="1237" on="0"/>
        <pt x="1647" y="1237" on="1"/>
      </contour>
    </TTGlyph>
    <TTGlyph name="uni1220" xMin="170" yMin="-20" xMax="1663" yMax="1462">
      <contour>
        <pt x="766" y="1462" on="1"/>
        <pt x="1067" y="1462" on="1"/>
        <pt x="1067" y="649" on="1"/>
        <pt x="1067" y="524" on="0"/>
        <pt x="1144" y="418" on="0"/>
        <pt x="1219" y="418" on="1"/>
        <pt x="1362" y="418" on="0"/>
        <pt x="1362" y="647" on="1"/>
        <pt x="1362" y="1462" on="1"/>
        <pt x="1663" y="1462" on="1"/>
        <pt x="1663" y="643" on="1"/>
        <pt x="1663" y="419" on="0"/>
        <pt x="1448" y="166" on="0"/>
        <pt x="1249" y="166" on="1"/>
        <pt x="1169" y="166" on="0"/>
        <pt x="1026" y="226" on="0"/>
        <pt x="977" y="274" on="1"/>
        <pt x="929" y="133" on="0"/>
        <pt x="719" y="-20" on="0"/>
        <pt x="582" y="-20" on="1"/>
        <pt x="384" y="-20" on="0"/>
        <pt x="170" y="233" on="0"/>
        <pt x="170" y="465" on="1"/>
        <pt x="170" y="1462" on="1"/>
        <pt x="471" y="1462" on="1"/>
        <pt x="471" y="465" on="1"/>
        <pt x="471" y="352" on="0"/>
        <pt x="550" y="231" on="0"/>
        <pt x="625" y="231" on="1"/>
        <pt x="693" y="231" on="0"/>
        <pt x="766" y="353" on="0"/>
        <pt x="766" y="467" on="1"/>
      </contour>
    </TTGlyph>
    <TTGlyph name="uni1221" xMin="170" yMin="-20" xMax="2071" yMax="1462">
      <contour>
        <pt x="766" y="1462" on="1"/>
        <pt x="1067" y="1462" on="1"/>
        <pt x="1067" y="649" on="1"/>
        <pt x="1067" y="524" on="0"/>
        <pt x="1144" y="418" on="0"/>
        <pt x="1219" y="418" on="1"/>
        <pt x="1362" y="418" on="0"/>
        <pt x="1362" y="647" on="1"/>
        <pt x="1362" y="1462" on="1"/>
        <pt x="1663" y="1462" on="1"/>
        <pt x="1663" y="930" on="1"/>
        <pt x="1999" y="930" on="1"/>
        <pt x="2071" y="537" on="1"/>
        <pt x="2021" y="537" on="1"/>
        <pt x="1933" y="537" on="0"/>
        <pt x="1808" y="624" on="0"/>
        <pt x="1788" y="700" on="1"/>
        <pt x="1663" y="700" on="1"/>
        <pt x="1663" y="643" on="1"/>
        <pt x="1663" y="419" on="0"/>
        <pt x="1448" y="166" on="0"/>
        <pt x="1249" y="166" on="1"/>
        <pt x="1169" y="166" on="0"/>
        <pt x="1026" y="226" on="0"/>
        <pt x="977" y="274" on="1"/>
        <pt x="929" y="133" on="0"/>
        <pt x="719" y="-20" on="0"/>
        <pt x="582" y="-20" on="1"/>
        <pt x="384" y="-20" on="0"/>
        <pt x="170" y="233" on="0"/>
        <pt x="170" y="465" on="1"/>
        <pt x="170" y="1462" on="1"/>
        <pt x="471" y="1462" on="1"/>
        <pt x="471" y="465" on="1"/>
        <pt x="471" y="352" on="0"/>
        <pt x="550" y="231" on="0"/>
        <pt x="625" y="231" on="1"/>
        <pt x="693" y="231" on="0"/>
        <pt x="766" y="353" on="0"/>
        <pt x="766" y="467" on="1"/>
      </contour>
    </TTGlyph>
    <TTGlyph name="uni1222" xMin="129" yMin="-131" xMax="1774" yMax="1462">
      <contour>
        <pt x="725" y="1462" on="1"/>
        <pt x="1026" y="1462" on="1"/>
        <pt x="1026" y="1171" on="1"/>
        <pt x="1026" y="1046" on="0"/>
        <pt x="1103" y="940" on="0"/>
        <pt x="1178" y="940" on="1"/>
        <pt x="1321" y="940" on="0"/>
        <pt x="1321" y="1169" on="1"/>
        <pt x="1321" y="1462" on="1"/>
        <pt x="1622" y="1462" on="1"/>
        <pt x="1622" y="1165" on="1"/>
        <pt x="1622" y="1018" on="0"/>
        <pt x="1573" y="907" on="1"/>
        <pt x="1280" y="229" on="1"/>
        <pt x="1507" y="229" on="1"/>
        <pt x="1527" y="284" on="0"/>
        <pt x="1651" y="360" on="0"/>
        <pt x="1724" y="360" on="1"/>
        <pt x="1774" y="360" on="1"/>
        <pt x="1718" y="115" on="1"/>
        <pt x="1774" y="-131" on="1"/>
        <pt x="1724" y="-131" on="1"/>
        <pt x="1651" y="-131" on="0"/>
        <pt x="1527" y="-55" on="0"/>
        <pt x="1507" y="0" on="1"/>
        <pt x="940" y="0" on="1"/>
        <pt x="940" y="160" on="1"/>
        <pt x="1169" y="690" on="1"/>
        <pt x="1100" y="696" on="0"/>
        <pt x="979" y="755" on="0"/>
        <pt x="936" y="797" on="1"/>
        <pt x="890" y="659" on="0"/>
        <pt x="681" y="502" on="0"/>
        <pt x="541" y="502" on="1"/>
        <pt x="343" y="502" on="0"/>
        <pt x="129" y="755" on="0"/>
        <pt x="129" y="987" on="1"/>
        <pt x="129" y="1462" on="1"/>
        <pt x="430" y="1462" on="1"/>
        <pt x="430" y="987" on="1"/>
        <pt x="430" y="873" on="0"/>
        <pt x="509" y="754" on="0"/>
        <pt x="584" y="754" on="1"/>
        <pt x="653" y="754" on="0"/>
        <pt x="725" y="876" on="0"/>
        <pt x="725" y="989" on="1"/>
      </contour>
    </TTGlyph>
    <TTGlyph name="uni1223" xMin="129" yMin="0" xMax="1622" yMax="1462">
      <contour>
        <pt x="725" y="1462" on="1"/>
        <pt x="1026" y="1462" on="1"/>
        <pt x="1026" y="1171" on="1"/>
        <pt x="1026" y="1046" on="0"/>
        <pt x="1103" y="940" on="0"/>
        <pt x="1178" y="940" on="1"/>
        <pt x="1321" y="940" on="0"/>
        <pt x="1321" y="1169" on="1"/>
        <pt x="1321" y="1462" on="1"/>
        <pt x="1622" y="1462" on="1"/>
        <pt x="1622" y="1165" on="1"/>
        <pt x="1622" y="1020" on="0"/>
        <pt x="1573" y="907" on="1"/>
        <pt x="1182" y="0" on="1"/>
        <pt x="870" y="0" on="1"/>
        <pt x="1169" y="690" on="1"/>
        <pt x="1100" y="696" on="0"/>
        <pt x="979" y="755" on="0"/>
        <pt x="936" y="797" on="1"/>
        <pt x="890" y="659" on="0"/>
        <pt x="681" y="502" on="0"/>
        <pt x="541" y="502" on="1"/>
        <pt x="343" y="502" on="0"/>
        <pt x="129" y="755" on="0"/>
        <pt x="129" y="987" on="1"/>
        <pt x="129" y="1462" on="1"/>
        <pt x="430" y="1462" on="1"/>
        <pt x="430" y="987" on="1"/>
        <pt x="430" y="873" on="0"/>
        <pt x="509" y="754" on="0"/>
        <pt x="584" y="754" on="1"/>
        <pt x="653" y="754" on="0"/>
        <pt x="725" y="876" on="0"/>
        <pt x="725" y="989" on="1"/>
      </contour>
    </TTGlyph>
    <TTGlyph name="uni1224" xMin="129" yMin="0" xMax="1866" yMax="1462">
      <contour>
        <pt x="940" y="160" on="1"/>
        <pt x="1169" y="690" on="1"/>
        <pt x="1100" y="696" on="0"/>
        <pt x="979" y="755" on="0"/>
        <pt x="936" y="797" on="1"/>
        <pt x="890" y="659" on="0"/>
        <pt x="681" y="502" on="0"/>
        <pt x="541" y="502" on="1"/>
        <pt x="343" y="502" on="0"/>
        <pt x="129" y="755" on="0"/>
        <pt x="129" y="987" on="1"/>
        <pt x="129" y="1462" on="1"/>
        <pt x="430" y="1462" on="1"/>
        <pt x="430" y="987" on="1"/>
        <pt x="430" y="873" on="0"/>
        <pt x="509" y="754" on="0"/>
        <pt x="584" y="754" on="1"/>
        <pt x="653" y="754" on="0"/>
        <pt x="725" y="876" on="0"/>
        <pt x="725" y="989" on="1"/>
        <pt x="725" y="1462" on="1"/>
        <pt x="1026" y="1462" on="1"/>
        <pt x="1026" y="1171" on="1"/>
        <pt x="1026" y="1046" on="0"/>
        <pt x="1103" y="940" on="0"/>
        <pt x="1178" y="940" on="1"/>
        <pt x="1321" y="940" on="0"/>
        <pt x="1321" y="1169" on="1"/>
        <pt x="1321" y="1462" on="1"/>
        <pt x="1622" y="1462" on="1"/>
        <pt x="1622" y="1165" on="1"/>
        <pt x="1622" y="1018" on="0"/>
        <pt x="1573" y="907" on="1"/>
        <pt x="1458" y="643" on="1"/>
        <pt x="1518" y="643" on="1"/>
        <pt x="1677" y="643" on="0"/>
        <pt x="1866" y="479" on="0"/>
        <pt x="1866" y="336" on="1"/>
        <pt x="1866" y="175" on="0"/>
        <pt x="1646" y="0" on="0"/>
        <pt x="1440" y="0" on="1"/>
        <pt x="940" y="0" on="1"/>
      </contour>
      <contour>
        <pt x="1370" y="440" on="1"/>
        <pt x="1268" y="203" on="1"/>
        <pt x="1356" y="203" on="1"/>
        <pt x="1465" y="203" on="0"/>
        <pt x="1567" y="267" on="0"/>
        <pt x="1567" y="340" on="1"/>
        <pt x="1567" y="393" on="0"/>
        <pt x="1505" y="440" on="0"/>
        <pt x="1440" y="440" on="1"/>
      </contour>
    </TTGlyph>
    <TTGlyph name="uni1225" xMin="72" yMin="0" xMax="1894" yMax="1462">
      <contour>
        <pt x="997" y="1462" on="1"/>
        <pt x="1298" y="1462" on="1"/>
        <pt x="1298" y="1171" on="1"/>
        <pt x="1298" y="1046" on="0"/>
        <pt x="1375" y="940" on="0"/>
        <pt x="1450" y="940" on="1"/>
        <pt x="1593" y="940" on="0"/>
        <pt x="1593" y="1169" on="1"/>
        <pt x="1593" y="1462" on="1"/>
        <pt x="1894" y="1462" on="1"/>
        <pt x="1894" y="1165" on="1"/>
        <pt x="1894" y="1019" on="0"/>
        <pt x="1800" y="806" on="0"/>
        <pt x="1616" y="688" on="0"/>
        <pt x="1481" y="688" on="1"/>
        <pt x="1400" y="688" on="0"/>
        <pt x="1258" y="749" on="0"/>
        <pt x="1208" y="797" on="1"/>
        <pt x="1165" y="662" on="0"/>
        <pt x="955" y="502" on="0"/>
        <pt x="813" y="502" on="1"/>
        <pt x="698" y="502" on="0"/>
        <pt x="616" y="543" on="1"/>
        <pt x="383" y="0" on="1"/>
        <pt x="72" y="0" on="1"/>
        <pt x="422" y="807" on="1"/>
        <pt x="401" y="887" on="0"/>
        <pt x="401" y="987" on="1"/>
        <pt x="401" y="1462" on="1"/>
        <pt x="702" y="1462" on="1"/>
        <pt x="702" y="987" on="1"/>
        <pt x="702" y="873" on="0"/>
        <pt x="781" y="754" on="0"/>
        <pt x="856" y="754" on="1"/>
        <pt x="924" y="754" on="0"/>
        <pt x="997" y="873" on="0"/>
        <pt x="997" y="989" on="1"/>
      </contour>
    </TTGlyph>
    <TTGlyph name="uni1226" xMin="129" yMin="0" xMax="1622" yMax="1462">
      <contour>
        <pt x="725" y="1462" on="1"/>
        <pt x="1026" y="1462" on="1"/>
        <pt x="1026" y="1171" on="1"/>
        <pt x="1026" y="1046" on="0"/>
        <pt x="1103" y="940" on="0"/>
        <pt x="1178" y="940" on="1"/>
        <pt x="1321" y="940" on="0"/>
        <pt x="1321" y="1169" on="1"/>
        <pt x="1321" y="1462" on="1"/>
        <pt x="1622" y="1462" on="1"/>
        <pt x="1622" y="1165" on="1"/>
        <pt x="1622" y="941" on="0"/>
        <pt x="1407" y="688" on="0"/>
        <pt x="1208" y="688" on="1"/>
        <pt x="1128" y="688" on="0"/>
        <pt x="988" y="747" on="0"/>
        <pt x="938" y="795" on="1"/>
        <pt x="596" y="0" on="1"/>
        <pt x="285" y="0" on="1"/>
        <pt x="502" y="502" on="1"/>
        <pt x="321" y="514" on="0"/>
        <pt x="129" y="764" on="0"/>
        <pt x="129" y="987" on="1"/>
        <pt x="129" y="1462" on="1"/>
        <pt x="430" y="1462" on="1"/>
        <pt x="430" y="987" on="1"/>
        <pt x="430" y="873" on="0"/>
        <pt x="509" y="754" on="0"/>
        <pt x="584" y="754" on="1"/>
        <pt x="653" y="754" on="0"/>
        <pt x="725" y="876" on="0"/>
        <pt x="725" y="989" on="1"/>
      </contour>
    </TTGlyph>
    <TTGlyph name="uni1227" xMin="129" yMin="-164" xMax="1653" yMax="1462">
      <contour>
        <pt x="725" y="1462" on="1"/>
        <pt x="1026" y="1462" on="1"/>
        <pt x="1026" y="1171" on="1"/>
        <pt x="1026" y="1046" on="0"/>
        <pt x="1103" y="940" on="0"/>
        <pt x="1178" y="940" on="1"/>
        <pt x="1321" y="940" on="0"/>
        <pt x="1321" y="1169" on="1"/>
        <pt x="1321" y="1462" on="1"/>
        <pt x="1622" y="1462" on="1"/>
        <pt x="1622" y="1165" on="1"/>
        <pt x="1622" y="1018" on="0"/>
        <pt x="1573" y="907" on="1"/>
        <pt x="1280" y="229" on="1"/>
        <pt x="1581" y="229" on="1"/>
        <pt x="1653" y="-164" on="1"/>
        <pt x="1604" y="-164" on="1"/>
        <pt x="1515" y="-164" on="0"/>
        <pt x="1390" y="-75" on="0"/>
        <pt x="1370" y="0" on="1"/>
        <pt x="872" y="0" on="1"/>
        <pt x="852" y="-75" on="0"/>
        <pt x="729" y="-164" on="0"/>
        <pt x="639" y="-164" on="1"/>
        <pt x="590" y="-164" on="1"/>
        <pt x="662" y="229" on="1"/>
        <pt x="969" y="229" on="1"/>
        <pt x="1169" y="690" on="1"/>
        <pt x="1100" y="696" on="0"/>
        <pt x="979" y="755" on="0"/>
        <pt x="936" y="797" on="1"/>
        <pt x="890" y="659" on="0"/>
        <pt x="681" y="502" on="0"/>
        <pt x="541" y="502" on="1"/>
        <pt x="343" y="502" on="0"/>
        <pt x="129" y="755" on="0"/>
        <pt x="129" y="987" on="1"/>
        <pt x="129" y="1462" on="1"/>
        <pt x="430" y="1462" on="1"/>
        <pt x="430" y="987" on="1"/>
        <pt x="430" y="873" on="0"/>
        <pt x="509" y="754" on="0"/>
        <pt x="584" y="754" on="1"/>
        <pt x="653" y="754" on="0"/>
        <pt x="725" y="876" on="0"/>
        <pt x="725" y="989" on="1"/>
      </contour>
    </TTGlyph>
    <TTGlyph name="uni1228" xMin="88" yMin="-131" xMax="1055" yMax="1462">
      <contour>
        <pt x="575" y="0" on="1"/>
        <pt x="330" y="0" on="0"/>
        <pt x="88" y="194" on="0"/>
        <pt x="88" y="391" on="1"/>
        <pt x="88" y="542" on="0"/>
        <pt x="259" y="813" on="0"/>
        <pt x="479" y="995" on="1"/>
        <pt x="571" y="1070" on="0"/>
        <pt x="657" y="1283" on="0"/>
        <pt x="657" y="1462" on="1"/>
        <pt x="963" y="1462" on="1"/>
        <pt x="963" y="1242" on="0"/>
        <pt x="814" y="919" on="0"/>
        <pt x="655" y="795" on="1"/>
        <pt x="391" y="586" on="0"/>
        <pt x="391" y="393" on="1"/>
        <pt x="391" y="308" on="0"/>
        <pt x="506" y="229" on="0"/>
        <pt x="625" y="229" on="1"/>
        <pt x="788" y="229" on="1"/>
        <pt x="808" y="284" on="0"/>
        <pt x="934" y="360" on="0"/>
        <pt x="1006" y="360" on="1"/>
        <pt x="1055" y="360" on="1"/>
        <pt x="999" y="115" on="1"/>
        <pt x="1055" y="-131" on="1"/>
        <pt x="1006" y="-131" on="1"/>
        <pt x="933" y="-131" on="0"/>
        <pt x="808" y="-55" on="0"/>
        <pt x="788" y="0" on="1"/>
      </contour>
    </TTGlyph>
    <TTGlyph name="uni1229" xMin="88" yMin="0" xMax="1227" yMax="1462">
      <contour>
        <pt x="584" y="348" on="1"/>
        <pt x="575" y="348" on="1"/>
        <pt x="324" y="348" on="0"/>
        <pt x="88" y="500" on="0"/>
        <pt x="88" y="668" on="1"/>
        <pt x="88" y="787" on="0"/>
        <pt x="268" y="995" on="0"/>
        <pt x="453" y="1098" on="1"/>
        <pt x="553" y="1153" on="0"/>
        <pt x="657" y="1328" on="0"/>
        <pt x="657" y="1462" on="1"/>
        <pt x="963" y="1462" on="1"/>
        <pt x="963" y="1069" on="0"/>
        <pt x="623" y="897" on="1"/>
        <pt x="491" y="829" on="0"/>
        <pt x="389" y="731" on="0"/>
        <pt x="389" y="672" on="1"/>
        <pt x="389" y="626" on="0"/>
        <pt x="480" y="586" on="0"/>
        <pt x="575" y="586" on="1"/>
        <pt x="1155" y="586" on="1"/>
        <pt x="1227" y="193" on="1"/>
        <pt x="1178" y="193" on="1"/>
        <pt x="1089" y="193" on="0"/>
        <pt x="964" y="281" on="0"/>
        <pt x="944" y="356" on="1"/>
        <pt x="887" y="356" on="1"/>
        <pt x="887" y="0" on="1"/>
        <pt x="584" y="0" on="1"/>
      </contour>
    </TTGlyph>
    <TTGlyph name="uni122A" xMin="88" yMin="-20" xMax="1092" yMax="1462">
      <contour>
        <pt x="580" y="-20" on="1"/>
        <pt x="342" y="-20" on="0"/>
        <pt x="88" y="196" on="0"/>
        <pt x="88" y="401" on="1"/>
        <pt x="88" y="499" on="0"/>
        <pt x="155" y="663" on="0"/>
        <pt x="296" y="831" on="0"/>
        <pt x="471" y="981" on="1"/>
        <pt x="568" y="1064" on="0"/>
        <pt x="659" y="1282" on="0"/>
        <pt x="659" y="1462" on="1"/>
        <pt x="965" y="1462" on="1"/>
        <pt x="965" y="1242" on="0"/>
        <pt x="813" y="912" on="0"/>
        <pt x="657" y="788" on="1"/>
        <pt x="519" y="682" on="0"/>
        <pt x="391" y="501" on="0"/>
        <pt x="391" y="401" on="1"/>
        <pt x="391" y="316" on="0"/>
        <pt x="494" y="209" on="0"/>
        <pt x="580" y="209" on="1"/>
        <pt x="682" y="209" on="0"/>
        <pt x="786" y="336" on="0"/>
        <pt x="786" y="457" on="1"/>
        <pt x="786" y="580" on="1"/>
        <pt x="1092" y="580" on="1"/>
        <pt x="1092" y="473" on="1"/>
        <pt x="1092" y="-20" on="0"/>
      </contour>
    </TTGlyph>
    <TTGlyph name="uni122B" xMin="88" yMin="0" xMax="1368" yMax="1462">
      <contour>
        <pt x="1319" y="289" on="1"/>
        <pt x="1143" y="289" on="0"/>
        <pt x="1085" y="453" on="1"/>
        <pt x="971" y="442" on="0"/>
        <pt x="863" y="234" on="0"/>
        <pt x="854" y="0" on="1"/>
        <pt x="575" y="0" on="1"/>
        <pt x="330" y="0" on="0"/>
        <pt x="88" y="194" on="0"/>
        <pt x="88" y="391" on="1"/>
        <pt x="88" y="542" on="0"/>
        <pt x="259" y="813" on="0"/>
        <pt x="479" y="995" on="1"/>
        <pt x="571" y="1070" on="0"/>
        <pt x="657" y="1283" on="0"/>
        <pt x="657" y="1462" on="1"/>
        <pt x="963" y="1462" on="1"/>
        <pt x="963" y="1242" on="0"/>
        <pt x="814" y="919" on="0"/>
        <pt x="655" y="795" on="1"/>
        <pt x="391" y="586" on="0"/>
        <pt x="391" y="393" on="1"/>
        <pt x="391" y="320" on="0"/>
        <pt x="472" y="242" on="0"/>
        <pt x="561" y="231" on="1"/>
        <pt x="600" y="461" on="0"/>
        <pt x="860" y="682" on="0"/>
        <pt x="1079" y="682" on="1"/>
        <pt x="1294" y="682" on="1"/>
        <pt x="1368" y="289" on="1"/>
      </contour>
    </TTGlyph>
    <TTGlyph name="uni122C" xMin="88" yMin="0" xMax="1257" yMax="1462">
      <contour>
        <pt x="506" y="305" on="1"/>
        <pt x="506" y="444" on="0"/>
        <pt x="696" y="590" on="0"/>
        <pt x="883" y="590" on="1"/>
        <pt x="1064" y="590" on="0"/>
        <pt x="1257" y="443" on="0"/>
        <pt x="1257" y="305" on="1"/>
        <pt x="1257" y="164" on="0"/>
        <pt x="1058" y="0" on="0"/>
        <pt x="883" y="0" on="1"/>
        <pt x="651" y="0" on="1"/>
        <pt x="365" y="0" on="0"/>
        <pt x="88" y="189" on="0"/>
        <pt x="88" y="391" on="1"/>
        <pt x="88" y="542" on="0"/>
        <pt x="259" y="813" on="0"/>
        <pt x="479" y="995" on="1"/>
        <pt x="571" y="1070" on="0"/>
        <pt x="657" y="1283" on="0"/>
        <pt x="657" y="1462" on="1"/>
        <pt x="963" y="1462" on="1"/>
        <pt x="963" y="1242" on="0"/>
        <pt x="814" y="919" on="0"/>
        <pt x="655" y="795" on="1"/>
        <pt x="391" y="586" on="0"/>
        <pt x="391" y="393" on="1"/>
        <pt x="391" y="262" on="0"/>
        <pt x="516" y="223" on="1"/>
        <pt x="506" y="256" on="0"/>
      </contour>
      <contour>
        <pt x="883" y="426" on="1"/>
        <pt x="829" y="426" on="0"/>
        <pt x="768" y="362" on="0"/>
        <pt x="768" y="305" on="1"/>
        <pt x="768" y="242" on="0"/>
        <pt x="830" y="164" on="0"/>
        <pt x="883" y="164" on="1"/>
        <pt x="936" y="164" on="0"/>
        <pt x="995" y="244" on="0"/>
        <pt x="995" y="305" on="1"/>
        <pt x="995" y="363" on="0"/>
        <pt x="935" y="426" on="0"/>
      </contour>
    </TTGlyph>
    <TTGlyph name="uni122D" xMin="129" yMin="-131" xMax="1118" yMax="1462">
      <contour>
        <pt x="651" y="0" on="1"/>
        <pt x="453" y="0" on="0"/>
        <pt x="231" y="100" on="0"/>
        <pt x="129" y="318" on="0"/>
        <pt x="129" y="510" on="1"/>
        <pt x="129" y="629" on="1"/>
        <pt x="129" y="936" on="0"/>
        <pt x="254" y="1298" on="0"/>
        <pt x="524" y="1462" on="0"/>
        <pt x="772" y="1462" on="1"/>
        <pt x="1047" y="1462" on="1"/>
        <pt x="1118" y="1069" on="1"/>
        <pt x="1069" y="1069" on="1"/>
        <pt x="981" y="1069" on="0"/>
        <pt x="856" y="1158" on="0"/>
        <pt x="836" y="1233" on="1"/>
        <pt x="672" y="1233" on="0"/>
        <pt x="505" y="1129" on="0"/>
        <pt x="432" y="886" on="0"/>
        <pt x="432" y="631" on="1"/>
        <pt x="432" y="492" on="1"/>
        <pt x="432" y="348" on="0"/>
        <pt x="534" y="229" on="0"/>
        <pt x="655" y="229" on="1"/>
        <pt x="852" y="229" on="1"/>
        <pt x="869" y="282" on="0"/>
        <pt x="996" y="360" on="0"/>
        <pt x="1069" y="360" on="1"/>
        <pt x="1118" y="360" on="1"/>
        <pt x="1063" y="115" on="1"/>
        <pt x="1118" y="-131" on="1"/>
        <pt x="1069" y="-131" on="1"/>
        <pt x="994" y="-131" on="0"/>
        <pt x="869" y="-53" on="0"/>
        <pt x="852" y="0" on="1"/>
      </contour>
    </TTGlyph>
    <TTGlyph name="uni122E" xMin="129" yMin="-131" xMax="1374" yMax="1462">
      <contour>
        <pt x="623" y="1157" on="1"/>
        <pt x="623" y="1203" on="0"/>
        <pt x="631" y="1233" on="1"/>
        <pt x="527" y="1191" on="0"/>
        <pt x="432" y="930" on="0"/>
        <pt x="432" y="651" on="1"/>
        <pt x="432" y="492" on="1"/>
        <pt x="432" y="348" on="0"/>
        <pt x="534" y="229" on="0"/>
        <pt x="655" y="229" on="1"/>
        <pt x="850" y="229" on="1"/>
        <pt x="867" y="282" on="0"/>
        <pt x="994" y="360" on="0"/>
        <pt x="1067" y="360" on="1"/>
        <pt x="1116" y="360" on="1"/>
        <pt x="1061" y="115" on="1"/>
        <pt x="1116" y="-131" on="1"/>
        <pt x="1067" y="-131" on="1"/>
        <pt x="992" y="-131" on="0"/>
        <pt x="867" y="-53" on="0"/>
        <pt x="850" y="0" on="1"/>
        <pt x="651" y="0" on="1"/>
        <pt x="453" y="0" on="0"/>
        <pt x="231" y="100" on="0"/>
        <pt x="129" y="318" on="0"/>
        <pt x="129" y="510" on="1"/>
        <pt x="129" y="629" on="1"/>
        <pt x="129" y="915" on="0"/>
        <pt x="272" y="1284" on="0"/>
        <pt x="577" y="1462" on="0"/>
        <pt x="842" y="1462" on="1"/>
        <pt x="999" y="1462" on="1"/>
        <pt x="1175" y="1462" on="0"/>
        <pt x="1374" y="1299" on="0"/>
        <pt x="1374" y="1157" on="1"/>
        <pt x="1374" y="1020" on="0"/>
        <pt x="1180" y="872" on="0"/>
        <pt x="999" y="872" on="1"/>
        <pt x="815" y="872" on="0"/>
        <pt x="623" y="1014" on="0"/>
      </contour>
      <contour>
        <pt x="999" y="1036" on="1"/>
        <pt x="1054" y="1036" on="0"/>
        <pt x="1112" y="1103" on="0"/>
        <pt x="1112" y="1157" on="1"/>
        <pt x="1112" y="1222" on="0"/>
        <pt x="1050" y="1298" on="0"/>
        <pt x="999" y="1298" on="1"/>
        <pt x="946" y="1298" on="0"/>
        <pt x="885" y="1221" on="0"/>
        <pt x="885" y="1157" on="1"/>
        <pt x="885" y="1100" on="0"/>
        <pt x="945" y="1036" on="0"/>
      </contour>
    </TTGlyph>
    <TTGlyph name="uni122F" xMin="88" yMin="0" xMax="1368" yMax="1556">
      <contour>
        <pt x="936" y="1163" on="1"/>
        <pt x="879" y="921" on="0"/>
        <pt x="655" y="760" on="1"/>
        <pt x="529" y="667" on="0"/>
        <pt x="391" y="473" on="0"/>
        <pt x="391" y="383" on="1"/>
        <pt x="391" y="316" on="0"/>
        <pt x="469" y="243" on="0"/>
        <pt x="561" y="231" on="1"/>
        <pt x="600" y="461" on="0"/>
        <pt x="860" y="682" on="0"/>
        <pt x="1079" y="682" on="1"/>
        <pt x="1294" y="682" on="1"/>
        <pt x="1368" y="289" on="1"/>
        <pt x="1319" y="289" on="1"/>
        <pt x="1143" y="289" on="0"/>
        <pt x="1085" y="453" on="1"/>
        <pt x="971" y="442" on="0"/>
        <pt x="863" y="234" on="0"/>
        <pt x="854" y="0" on="1"/>
        <pt x="575" y="0" on="1"/>
        <pt x="330" y="0" on="0"/>
        <pt x="88" y="183" on="0"/>
        <pt x="88" y="371" on="1"/>
        <pt x="88" y="512" on="0"/>
        <pt x="255" y="765" on="0"/>
        <pt x="479" y="944" on="1"/>
        <pt x="592" y="1035" on="0"/>
        <pt x="631" y="1163" on="1"/>
        <pt x="240" y="1163" on="1"/>
        <pt x="168" y="1556" on="1"/>
        <pt x="217" y="1556" on="1"/>
        <pt x="306" y="1556" on="0"/>
        <pt x="431" y="1468" on="0"/>
        <pt x="451" y="1393" on="1"/>
        <pt x="1083" y="1393" on="1"/>
        <pt x="1103" y="1468" on="0"/>
        <pt x="1228" y="1556" on="0"/>
        <pt x="1317" y="1556" on="1"/>
        <pt x="1366" y="1556" on="1"/>
        <pt x="1294" y="1163" on="1"/>
      </contour>
    </TTGlyph>
    <TTGlyph name="uni1230" xMin="170" yMin="0" xMax="1118" yMax="1556">
      <contour>
        <pt x="170" y="0" on="1"/>
        <pt x="170" y="737" on="1"/>
        <pt x="170" y="950" on="0"/>
        <pt x="336" y="1214" on="0"/>
        <pt x="492" y="1255" on="1"/>
        <pt x="492" y="1556" on="1"/>
        <pt x="795" y="1556" on="1"/>
        <pt x="795" y="1257" on="1"/>
        <pt x="954" y="1217" on="0"/>
        <pt x="1118" y="950" on="0"/>
        <pt x="1118" y="733" on="1"/>
        <pt x="1118" y="0" on="1"/>
        <pt x="815" y="0" on="1"/>
        <pt x="815" y="743" on="1"/>
        <pt x="815" y="890" on="0"/>
        <pt x="730" y="1024" on="0"/>
        <pt x="641" y="1024" on="1"/>
        <pt x="556" y="1024" on="0"/>
        <pt x="473" y="888" on="0"/>
        <pt x="473" y="741" on="1"/>
        <pt x="473" y="0" on="1"/>
      </contour>
    </TTGlyph>
    <TTGlyph name="uni1231" xMin="170" yMin="0" xMax="1526" yMax="1556">
      <contour>
        <pt x="1118" y="0" on="1"/>
        <pt x="815" y="0" on="1"/>
        <pt x="815" y="743" on="1"/>
        <pt x="815" y="890" on="0"/>
        <pt x="730" y="1024" on="0"/>
        <pt x="641" y="1024" on="1"/>
        <pt x="556" y="1024" on="0"/>
        <pt x="473" y="888" on="0"/>
        <pt x="473" y="741" on="1"/>
        <pt x="473" y="0" on="1"/>
        <pt x="170" y="0" on="1"/>
        <pt x="170" y="737" on="1"/>
        <pt x="170" y="950" on="0"/>
        <pt x="336" y="1214" on="0"/>
        <pt x="492" y="1255" on="1"/>
        <pt x="492" y="1556" on="1"/>
        <pt x="795" y="1556" on="1"/>
        <pt x="795" y="1257" on="1"/>
        <pt x="948" y="1219" on="0"/>
        <pt x="1112" y="969" on="0"/>
        <pt x="1118" y="768" on="1"/>
        <pt x="1454" y="768" on="1"/>
        <pt x="1526" y="375" on="1"/>
        <pt x="1477" y="375" on="1"/>
        <pt x="1388" y="375" on="0"/>
        <pt x="1263" y="463" on="0"/>
        <pt x="1243" y="539" on="1"/>
        <pt x="1118" y="539" on="1"/>
      </contour>
    </TTGlyph>
    <TTGlyph name="uni1232" xMin="170" yMin="-131" xMax="1507" yMax="1556">
      <contour>
        <pt x="170" y="0" on="1"/>
        <pt x="170" y="737" on="1"/>
        <pt x="170" y="950" on="0"/>
        <pt x="336" y="1214" on="0"/>
        <pt x="492" y="1255" on="1"/>
        <pt x="492" y="1556" on="1"/>
        <pt x="795" y="1556" on="1"/>
        <pt x="795" y="1257" on="1"/>
        <pt x="954" y="1217" on="0"/>
        <pt x="1118" y="950" on="0"/>
        <pt x="1118" y="733" on="1"/>
        <pt x="1118" y="229" on="1"/>
        <pt x="1241" y="229" on="1"/>
        <pt x="1261" y="284" on="0"/>
        <pt x="1385" y="360" on="0"/>
        <pt x="1458" y="360" on="1"/>
        <pt x="1507" y="360" on="1"/>
        <pt x="1452" y="115" on="1"/>
        <pt x="1507" y="-131" on="1"/>
        <pt x="1458" y="-131" on="1"/>
        <pt x="1385" y="-131" on="0"/>
        <pt x="1261" y="-55" on="0"/>
        <pt x="1241" y="0" on="1"/>
        <pt x="815" y="0" on="1"/>
        <pt x="815" y="743" on="1"/>
        <pt x="815" y="890" on="0"/>
        <pt x="730" y="1024" on="0"/>
        <pt x="641" y="1024" on="1"/>
        <pt x="556" y="1024" on="0"/>
        <pt x="473" y="888" on="0"/>
        <pt x="473" y="741" on="1"/>
        <pt x="473" y="0" on="1"/>
      </contour>
    </TTGlyph>
    <TTGlyph name="uni1233" xMin="150" yMin="0" xMax="1098" yMax="1556">
      <contour>
        <pt x="150" y="485" on="1"/>
        <pt x="150" y="737" on="1"/>
        <pt x="150" y="948" on="0"/>
        <pt x="313" y="1213" on="0"/>
        <pt x="471" y="1255" on="1"/>
        <pt x="471" y="1556" on="1"/>
        <pt x="774" y="1556" on="1"/>
        <pt x="774" y="1257" on="1"/>
        <pt x="936" y="1217" on="0"/>
        <pt x="1098" y="947" on="0"/>
        <pt x="1098" y="733" on="1"/>
        <pt x="1098" y="0" on="1"/>
        <pt x="795" y="0" on="1"/>
        <pt x="795" y="743" on="1"/>
        <pt x="795" y="890" on="0"/>
        <pt x="710" y="1024" on="0"/>
        <pt x="621" y="1024" on="1"/>
        <pt x="537" y="1024" on="0"/>
        <pt x="453" y="891" on="0"/>
        <pt x="453" y="741" on="1"/>
        <pt x="453" y="485" on="1"/>
      </contour>
    </TTGlyph>
    <TTGlyph name="uni1234" xMin="170" yMin="0" xMax="1649" yMax="1556">
      <contour>
        <pt x="170" y="0" on="1"/>
        <pt x="170" y="737" on="1"/>
        <pt x="170" y="950" on="0"/>
        <pt x="336" y="1214" on="0"/>
        <pt x="492" y="1255" on="1"/>
        <pt x="492" y="1556" on="1"/>
        <pt x="795" y="1556" on="1"/>
        <pt x="795" y="1257" on="1"/>
        <pt x="954" y="1217" on="0"/>
        <pt x="1118" y="950" on="0"/>
        <pt x="1118" y="733" on="1"/>
        <pt x="1118" y="643" on="1"/>
        <pt x="1249" y="643" on="1"/>
        <pt x="1444" y="643" on="0"/>
        <pt x="1649" y="484" on="0"/>
        <pt x="1649" y="336" on="1"/>
        <pt x="1649" y="180" on="0"/>
        <pt x="1405" y="0" on="0"/>
        <pt x="1194" y="0" on="1"/>
        <pt x="815" y="0" on="1"/>
        <pt x="815" y="743" on="1"/>
        <pt x="815" y="890" on="0"/>
        <pt x="730" y="1024" on="0"/>
        <pt x="641" y="1024" on="1"/>
        <pt x="556" y="1024" on="0"/>
        <pt x="473" y="888" on="0"/>
        <pt x="473" y="741" on="1"/>
        <pt x="473" y="0" on="1"/>
      </contour>
      <contour>
        <pt x="1118" y="440" on="1"/>
        <pt x="1118" y="203" on="1"/>
        <pt x="1139" y="203" on="1"/>
        <pt x="1245" y="203" on="0"/>
        <pt x="1350" y="264" on="0"/>
        <pt x="1350" y="334" on="1"/>
        <pt x="1350" y="394" on="0"/>
        <pt x="1265" y="440" on="0"/>
        <pt x="1186" y="440" on="1"/>
      </contour>
    </TTGlyph>
    <TTGlyph name="uni1235" xMin="170" yMin="0" xMax="1118" yMax="1556">
      <contour>
        <pt x="170" y="0" on="1"/>
        <pt x="170" y="737" on="1"/>
        <pt x="170" y="942" on="0"/>
        <pt x="323" y="1202" on="0"/>
        <pt x="467" y="1249" on="1"/>
        <pt x="324" y="1556" on="1"/>
        <pt x="627" y="1556" on="1"/>
        <pt x="762" y="1266" on="1"/>
        <pt x="939" y="1231" on="0"/>
        <pt x="1118" y="960" on="0"/>
        <pt x="1118" y="733" on="1"/>
        <pt x="1118" y="0" on="1"/>
        <pt x="815" y="0" on="1"/>
        <pt x="815" y="743" on="1"/>
        <pt x="815" y="890" on="0"/>
        <pt x="730" y="1024" on="0"/>
        <pt x="641" y="1024" on="1"/>
        <pt x="556" y="1024" on="0"/>
        <pt x="473" y="888" on="0"/>
        <pt x="473" y="741" on="1"/>
        <pt x="473" y="0" on="1"/>
      </contour>
    </TTGlyph>
    <TTGlyph name="uni1236" xMin="170" yMin="0" xMax="1118" yMax="1556">
      <contour>
        <pt x="170" y="0" on="1"/>
        <pt x="170" y="737" on="1"/>
        <pt x="170" y="950" on="0"/>
        <pt x="336" y="1214" on="0"/>
        <pt x="492" y="1255" on="1"/>
        <pt x="492" y="1556" on="1"/>
        <pt x="795" y="1556" on="1"/>
        <pt x="795" y="1257" on="1"/>
        <pt x="954" y="1217" on="0"/>
        <pt x="1118" y="950" on="0"/>
        <pt x="1118" y="733" on="1"/>
        <pt x="1118" y="485" on="1"/>
        <pt x="815" y="485" on="1"/>
        <pt x="815" y="743" on="1"/>
        <pt x="815" y="890" on="0"/>
        <pt x="730" y="1024" on="0"/>
        <pt x="641" y="1024" on="1"/>
        <pt x="556" y="1024" on="0"/>
        <pt x="473" y="888" on="0"/>
        <pt x="473" y="741" on="1"/>
        <pt x="473" y="0" on="1"/>
      </contour>
    </TTGlyph>
    <TTGlyph name="uni1237" xMin="98" yMin="-164" xMax="1393" yMax="1556">
      <contour>
        <pt x="150" y="483" on="1"/>
        <pt x="150" y="737" on="1"/>
        <pt x="150" y="948" on="0"/>
        <pt x="313" y="1213" on="0"/>
        <pt x="471" y="1255" on="1"/>
        <pt x="471" y="1556" on="1"/>
        <pt x="774" y="1556" on="1"/>
        <pt x="774" y="1257" on="1"/>
        <pt x="936" y="1217" on="0"/>
        <pt x="1098" y="947" on="0"/>
        <pt x="1098" y="733" on="1"/>
        <pt x="1098" y="229" on="1"/>
        <pt x="1321" y="229" on="1"/>
        <pt x="1393" y="-164" on="1"/>
        <pt x="1343" y="-164" on="1"/>
        <pt x="1254" y="-164" on="0"/>
        <pt x="1130" y="-75" on="0"/>
        <pt x="1110" y="0" on="1"/>
        <pt x="381" y="0" on="1"/>
        <pt x="361" y="-75" on="0"/>
        <pt x="236" y="-164" on="0"/>
        <pt x="147" y="-164" on="1"/>
        <pt x="98" y="-164" on="1"/>
        <pt x="170" y="229" on="1"/>
        <pt x="795" y="229" on="1"/>
        <pt x="795" y="743" on="1"/>
        <pt x="795" y="890" on="0"/>
        <pt x="710" y="1024" on="0"/>
        <pt x="621" y="1024" on="1"/>
        <pt x="537" y="1024" on="0"/>
        <pt x="453" y="891" on="0"/>
        <pt x="453" y="741" on="1"/>
        <pt x="453" y="483" on="1"/>
      </contour>
    </TTGlyph>
    <TTGlyph name="uni1238" xMin="98" yMin="0" xMax="1190" yMax="1726">
      <contour>
        <pt x="170" y="0" on="1"/>
        <pt x="170" y="727" on="1"/>
        <pt x="170" y="941" on="0"/>
        <pt x="336" y="1213" on="0"/>
        <pt x="492" y="1255" on="1"/>
        <pt x="492" y="1405" on="1"/>
        <pt x="365" y="1405" on="1"/>
        <pt x="343" y="1344" on="0"/>
        <pt x="217" y="1255" on="0"/>
        <pt x="147" y="1255" on="1"/>
        <pt x="98" y="1255" on="1"/>
        <pt x="154" y="1491" on="1"/>
        <pt x="98" y="1726" on="1"/>
        <pt x="147" y="1726" on="1"/>
        <pt x="217" y="1726" on="0"/>
        <pt x="343" y="1637" on="0"/>
        <pt x="365" y="1577" on="1"/>
        <pt x="924" y="1577" on="1"/>
        <pt x="942" y="1634" on="0"/>
        <pt x="1071" y="1726" on="0"/>
        <pt x="1141" y="1726" on="1"/>
        <pt x="1190" y="1726" on="1"/>
        <pt x="1135" y="1491" on="1"/>
        <pt x="1190" y="1255" on="1"/>
        <pt x="1141" y="1255" on="1"/>
        <pt x="1070" y="1255" on="0"/>
        <pt x="943" y="1346" on="0"/>
        <pt x="924" y="1405" on="1"/>
        <pt x="795" y="1405" on="1"/>
        <pt x="795" y="1247" on="1"/>
        <pt x="954" y="1207" on="0"/>
        <pt x="1118" y="940" on="0"/>
        <pt x="1118" y="723" on="1"/>
        <pt x="1118" y="0" on="1"/>
        <pt x="815" y="0" on="1"/>
        <pt x="815" y="733" on="1"/>
        <pt x="815" y="879" on="0"/>
        <pt x="730" y="1014" on="0"/>
        <pt x="641" y="1014" on="1"/>
        <pt x="556" y="1014" on="0"/>
        <pt x="473" y="878" on="0"/>
        <pt x="473" y="731" on="1"/>
        <pt x="473" y="0" on="1"/>
      </contour>
    </TTGlyph>
    <TTGlyph name="uni1239" xMin="98" yMin="0" xMax="1526" yMax="1726">
      <contour>
        <pt x="1454" y="768" on="1"/>
        <pt x="1526" y="375" on="1"/>
        <pt x="1477" y="375" on="1"/>
        <pt x="1388" y="375" on="0"/>
        <pt x="1263" y="463" on="0"/>
        <pt x="1243" y="539" on="1"/>
        <pt x="1118" y="539" on="1"/>
        <pt x="1118" y="0" on="1"/>
        <pt x="815" y="0" on="1"/>
        <pt x="815" y="733" on="1"/>
        <pt x="815" y="879" on="0"/>
        <pt x="730" y="1014" on="0"/>
        <pt x="641" y="1014" on="1"/>
        <pt x="556" y="1014" on="0"/>
        <pt x="473" y="878" on="0"/>
        <pt x="473" y="731" on="1"/>
        <pt x="473" y="0" on="1"/>
        <pt x="170" y="0" on="1"/>
        <pt x="170" y="727" on="1"/>
        <pt x="170" y="940" on="0"/>
        <pt x="336" y="1204" on="0"/>
        <pt x="492" y="1245" on="1"/>
        <pt x="492" y="1405" on="1"/>
        <pt x="365" y="1405" on="1"/>
        <pt x="343" y="1344" on="0"/>
        <pt x="217" y="1255" on="0"/>
        <pt x="147" y="1255" on="1"/>
        <pt x="98" y="1255" on="1"/>
        <pt x="154" y="1491" on="1"/>
        <pt x="98" y="1726" on="1"/>
        <pt x="147" y="1726" on="1"/>
        <pt x="217" y="1726" on="0"/>
        <pt x="343" y="1637" on="0"/>
        <pt x="365" y="1577" on="1"/>
        <pt x="924" y="1577" on="1"/>
        <pt x="942" y="1634" on="0"/>
        <pt x="1071" y="1726" on="0"/>
        <pt x="1141" y="1726" on="1"/>
        <pt x="1190" y="1726" on="1"/>
        <pt x="1135" y="1491" on="1"/>
        <pt x="1190" y="1255" on="1"/>
        <pt x="1141" y="1255" on="1"/>
        <pt x="1070" y="1255" on="0"/>
        <pt x="943" y="1346" on="0"/>
        <pt x="924" y="1405" on="1"/>
        <pt x="795" y="1405" on="1"/>
        <pt x="795" y="1247" on="1"/>
        <pt x="946" y="1209" on="0"/>
        <pt x="1108" y="965" on="0"/>
        <pt x="1116" y="768" on="1"/>
      </contour>
    </TTGlyph>
    <TTGlyph name="uni123A" xMin="98" yMin="-131" xMax="1507" yMax="1726">
      <contour>
        <pt x="147" y="1726" on="1"/>
        <pt x="217" y="1726" on="0"/>
        <pt x="343" y="1637" on="0"/>
        <pt x="365" y="1577" on="1"/>
        <pt x="924" y="1577" on="1"/>
        <pt x="942" y="1634" on="0"/>
        <pt x="1071" y="1726" on="0"/>
        <pt x="1141" y="1726" on="1"/>
        <pt x="1190" y="1726" on="1"/>
        <pt x="1135" y="1491" on="1"/>
        <pt x="1190" y="1255" on="1"/>
        <pt x="1141" y="1255" on="1"/>
        <pt x="1070" y="1255" on="0"/>
        <pt x="943" y="1346" on="0"/>
        <pt x="924" y="1405" on="1"/>
        <pt x="795" y="1405" on="1"/>
        <pt x="795" y="1247" on="1"/>
        <pt x="954" y="1207" on="0"/>
        <pt x="1118" y="940" on="0"/>
        <pt x="1118" y="723" on="1"/>
        <pt x="1118" y="229" on="1"/>
        <pt x="1241" y="229" on="1"/>
        <pt x="1261" y="284" on="0"/>
        <pt x="1385" y="360" on="0"/>
        <pt x="1458" y="360" on="1"/>
        <pt x="1507" y="360" on="1"/>
        <pt x="1452" y="115" on="1"/>
        <pt x="1507" y="-131" on="1"/>
        <pt x="1458" y="-131" on="1"/>
        <pt x="1385" y="-131" on="0"/>
        <pt x="1261" y="-55" on="0"/>
        <pt x="1241" y="0" on="1"/>
        <pt x="815" y="0" on="1"/>
        <pt x="815" y="733" on="1"/>
        <pt x="815" y="879" on="0"/>
        <pt x="730" y="1014" on="0"/>
        <pt x="641" y="1014" on="1"/>
        <pt x="556" y="1014" on="0"/>
        <pt x="473" y="878" on="0"/>
        <pt x="473" y="731" on="1"/>
        <pt x="473" y="0" on="1"/>
        <pt x="170" y="0" on="1"/>
        <pt x="170" y="727" on="1"/>
        <pt x="170" y="940" on="0"/>
        <pt x="336" y="1204" on="0"/>
        <pt x="492" y="1245" on="1"/>
        <pt x="492" y="1405" on="1"/>
        <pt x="365" y="1405" on="1"/>
        <pt x="343" y="1344" on="0"/>
        <pt x="217" y="1255" on="0"/>
        <pt x="147" y="1255" on="1"/>
        <pt x="98" y="1255" on="1"/>
        <pt x="154" y="1491" on="1"/>
        <pt x="98" y="1726" on="1"/>
      </contour>
    </TTGlyph>
    <TTGlyph name="uni123B" xMin="78" yMin="0" xMax="1169" yMax="1726">
      <contour>
        <pt x="127" y="1726" on="1"/>
        <pt x="196" y="1726" on="0"/>
        <pt x="321" y="1639" on="0"/>
        <pt x="344" y="1577" on="1"/>
        <pt x="903" y="1577" on="1"/>
        <pt x="925" y="1636" on="0"/>
        <pt x="1051" y="1726" on="0"/>
        <pt x="1120" y="1726" on="1"/>
        <pt x="1169" y="1726" on="1"/>
        <pt x="1114" y="1491" on="1"/>
        <pt x="1169" y="1255" on="1"/>
        <pt x="1120" y="1255" on="1"/>
        <pt x="1051" y="1255" on="0"/>
        <pt x="926" y="1343" on="0"/>
        <pt x="903" y="1405" on="1"/>
        <pt x="774" y="1405" on="1"/>
        <pt x="774" y="1247" on="1"/>
        <pt x="936" y="1207" on="0"/>
        <pt x="1098" y="937" on="0"/>
        <pt x="1098" y="723" on="1"/>
        <pt x="1098" y="0" on="1"/>
        <pt x="795" y="0" on="1"/>
        <pt x="795" y="733" on="1"/>
        <pt x="795" y="879" on="0"/>
        <pt x="710" y="1014" on="0"/>
        <pt x="621" y="1014" on="1"/>
        <pt x="537" y="1014" on="0"/>
        <pt x="453" y="881" on="0"/>
        <pt x="453" y="731" on="1"/>
        <pt x="453" y="485" on="1"/>
        <pt x="150" y="485" on="1"/>
        <pt x="150" y="727" on="1"/>
        <pt x="150" y="938" on="0"/>
        <pt x="313" y="1203" on="0"/>
        <pt x="471" y="1245" on="1"/>
        <pt x="471" y="1405" on="1"/>
        <pt x="344" y="1405" on="1"/>
        <pt x="321" y="1342" on="0"/>
        <pt x="196" y="1255" on="0"/>
        <pt x="127" y="1255" on="1"/>
        <pt x="78" y="1255" on="1"/>
        <pt x="133" y="1491" on="1"/>
        <pt x="78" y="1726" on="1"/>
      </contour>
    </TTGlyph>
    <TTGlyph name="uni123C" xMin="98" yMin="0" xMax="1649" yMax="1726">
      <contour>
        <pt x="815" y="733" on="1"/>
        <pt x="815" y="879" on="0"/>
        <pt x="730" y="1014" on="0"/>
        <pt x="641" y="1014" on="1"/>
        <pt x="556" y="1014" on="0"/>
        <pt x="473" y="878" on="0"/>
        <pt x="473" y="731" on="1"/>
        <pt x="473" y="0" on="1"/>
        <pt x="170" y="0" on="1"/>
        <pt x="170" y="727" on="1"/>
        <pt x="170" y="940" on="0"/>
        <pt x="336" y="1204" on="0"/>
        <pt x="492" y="1245" on="1"/>
        <pt x="492" y="1405" on="1"/>
        <pt x="365" y="1405" on="1"/>
        <pt x="343" y="1344" on="0"/>
        <pt x="217" y="1255" on="0"/>
        <pt x="147" y="1255" on="1"/>
        <pt x="98" y="1255" on="1"/>
        <pt x="154" y="1491" on="1"/>
        <pt x="98" y="1726" on="1"/>
        <pt x="147" y="1726" on="1"/>
        <pt x="217" y="1726" on="0"/>
        <pt x="343" y="1637" on="0"/>
        <pt x="365" y="1577" on="1"/>
        <pt x="924" y="1577" on="1"/>
        <pt x="942" y="1634" on="0"/>
        <pt x="1071" y="1726" on="0"/>
        <pt x="1141" y="1726" on="1"/>
        <pt x="1190" y="1726" on="1"/>
        <pt x="1135" y="1491" on="1"/>
        <pt x="1190" y="1255" on="1"/>
        <pt x="1141" y="1255" on="1"/>
        <pt x="1070" y="1255" on="0"/>
        <pt x="943" y="1346" on="0"/>
        <pt x="924" y="1405" on="1"/>
        <pt x="795" y="1405" on="1"/>
        <pt x="795" y="1247" on="1"/>
        <pt x="954" y="1207" on="0"/>
        <pt x="1118" y="940" on="0"/>
        <pt x="1118" y="723" on="1"/>
        <pt x="1118" y="643" on="1"/>
        <pt x="1249" y="643" on="1"/>
        <pt x="1444" y="643" on="0"/>
        <pt x="1649" y="484" on="0"/>
        <pt x="1649" y="336" on="1"/>
        <pt x="1649" y="180" on="0"/>
        <pt x="1405" y="0" on="0"/>
        <pt x="1194" y="0" on="1"/>
        <pt x="815" y="0" on="1"/>
      </contour>
      <contour>
        <pt x="1118" y="440" on="1"/>
        <pt x="1118" y="203" on="1"/>
        <pt x="1139" y="203" on="1"/>
        <pt x="1245" y="203" on="0"/>
        <pt x="1350" y="264" on="0"/>
        <pt x="1350" y="334" on="1"/>
        <pt x="1350" y="394" on="0"/>
        <pt x="1265" y="440" on="0"/>
        <pt x="1186" y="440" on="1"/>
      </contour>
    </TTGlyph>
    <TTGlyph name="uni123D" xMin="72" yMin="0" xMax="1194" yMax="1726">
      <contour>
        <pt x="121" y="1726" on="1"/>
        <pt x="190" y="1726" on="0"/>
        <pt x="317" y="1636" on="0"/>
        <pt x="338" y="1577" on="1"/>
        <pt x="897" y="1577" on="1"/>
        <pt x="919" y="1636" on="0"/>
        <pt x="1044" y="1726" on="0"/>
        <pt x="1114" y="1726" on="1"/>
        <pt x="1163" y="1726" on="1"/>
        <pt x="1108" y="1491" on="1"/>
        <pt x="1163" y="1255" on="1"/>
        <pt x="1114" y="1255" on="1"/>
        <pt x="1044" y="1255" on="0"/>
        <pt x="919" y="1345" on="0"/>
        <pt x="897" y="1405" on="1"/>
        <pt x="748" y="1405" on="1"/>
        <pt x="815" y="1260" on="1"/>
        <pt x="1002" y="1231" on="0"/>
        <pt x="1194" y="956" on="0"/>
        <pt x="1194" y="723" on="1"/>
        <pt x="1194" y="0" on="1"/>
        <pt x="891" y="0" on="1"/>
        <pt x="891" y="733" on="1"/>
        <pt x="891" y="879" on="0"/>
        <pt x="806" y="1014" on="0"/>
        <pt x="717" y="1014" on="1"/>
        <pt x="632" y="1014" on="0"/>
        <pt x="549" y="878" on="0"/>
        <pt x="549" y="731" on="1"/>
        <pt x="549" y="0" on="1"/>
        <pt x="246" y="0" on="1"/>
        <pt x="246" y="727" on="1"/>
        <pt x="246" y="1124" on="0"/>
        <pt x="524" y="1233" on="1"/>
        <pt x="444" y="1405" on="1"/>
        <pt x="338" y="1405" on="1"/>
        <pt x="316" y="1344" on="0"/>
        <pt x="190" y="1255" on="0"/>
        <pt x="121" y="1255" on="1"/>
        <pt x="72" y="1255" on="1"/>
        <pt x="127" y="1491" on="1"/>
        <pt x="72" y="1726" on="1"/>
      </contour>
    </TTGlyph>
    <TTGlyph name="uni123E" xMin="98" yMin="0" xMax="1190" yMax="1726">
      <contour>
        <pt x="147" y="1726" on="1"/>
        <pt x="217" y="1726" on="0"/>
        <pt x="343" y="1637" on="0"/>
        <pt x="365" y="1577" on="1"/>
        <pt x="924" y="1577" on="1"/>
        <pt x="942" y="1634" on="0"/>
        <pt x="1071" y="1726" on="0"/>
        <pt x="1141" y="1726" on="1"/>
        <pt x="1190" y="1726" on="1"/>
        <pt x="1135" y="1491" on="1"/>
        <pt x="1190" y="1255" on="1"/>
        <pt x="1141" y="1255" on="1"/>
        <pt x="1070" y="1255" on="0"/>
        <pt x="943" y="1346" on="0"/>
        <pt x="924" y="1405" on="1"/>
        <pt x="795" y="1405" on="1"/>
        <pt x="795" y="1247" on="1"/>
        <pt x="954" y="1207" on="0"/>
        <pt x="1118" y="940" on="0"/>
        <pt x="1118" y="723" on="1"/>
        <pt x="1118" y="485" on="1"/>
        <pt x="815" y="485" on="1"/>
        <pt x="815" y="733" on="1"/>
        <pt x="815" y="879" on="0"/>
        <pt x="730" y="1014" on="0"/>
        <pt x="641" y="1014" on="1"/>
        <pt x="556" y="1014" on="0"/>
        <pt x="473" y="878" on="0"/>
        <pt x="473" y="731" on="1"/>
        <pt x="473" y="0" on="1"/>
        <pt x="170" y="0" on="1"/>
        <pt x="170" y="727" on="1"/>
        <pt x="170" y="940" on="0"/>
        <pt x="336" y="1204" on="0"/>
        <pt x="492" y="1245" on="1"/>
        <pt x="492" y="1405" on="1"/>
        <pt x="365" y="1405" on="1"/>
        <pt x="343" y="1344" on="0"/>
        <pt x="217" y="1255" on="0"/>
        <pt x="147" y="1255" on="1"/>
        <pt x="98" y="1255" on="1"/>
        <pt x="154" y="1491" on="1"/>
        <pt x="98" y="1726" on="1"/>
      </contour>
    </TTGlyph>
    <TTGlyph name="uni123F" xMin="78" yMin="-164" xMax="1393" yMax="1726">
      <contour>
        <pt x="795" y="229" on="1"/>
        <pt x="795" y="733" on="1"/>
        <pt x="795" y="879" on="0"/>
        <pt x="710" y="1014" on="0"/>
        <pt x="621" y="1014" on="1"/>
        <pt x="537" y="1014" on="0"/>
        <pt x="453" y="881" on="0"/>
        <pt x="453" y="731" on="1"/>
        <pt x="453" y="483" on="1"/>
        <pt x="150" y="483" on="1"/>
        <pt x="150" y="727" on="1"/>
        <pt x="150" y="938" on="0"/>
        <pt x="313" y="1203" on="0"/>
        <pt x="471" y="1245" on="1"/>
        <pt x="471" y="1405" on="1"/>
        <pt x="344" y="1405" on="1"/>
        <pt x="321" y="1342" on="0"/>
        <pt x="196" y="1255" on="0"/>
        <pt x="127" y="1255" on="1"/>
        <pt x="78" y="1255" on="1"/>
        <pt x="133" y="1491" on="1"/>
        <pt x="78" y="1726" on="1"/>
        <pt x="127" y="1726" on="1"/>
        <pt x="196" y="1726" on="0"/>
        <pt x="321" y="1639" on="0"/>
        <pt x="344" y="1577" on="1"/>
        <pt x="903" y="1577" on="1"/>
        <pt x="925" y="1636" on="0"/>
        <pt x="1051" y="1726" on="0"/>
        <pt x="1120" y="1726" on="1"/>
        <pt x="1169" y="1726" on="1"/>
        <pt x="1114" y="1491" on="1"/>
        <pt x="1169" y="1255" on="1"/>
        <pt x="1120" y="1255" on="1"/>
        <pt x="1051" y="1255" on="0"/>
        <pt x="926" y="1343" on="0"/>
        <pt x="903" y="1405" on="1"/>
        <pt x="774" y="1405" on="1"/>
        <pt x="774" y="1247" on="1"/>
        <pt x="936" y="1207" on="0"/>
        <pt x="1098" y="937" on="0"/>
        <pt x="1098" y="723" on="1"/>
        <pt x="1098" y="229" on="1"/>
        <pt x="1321" y="229" on="1"/>
        <pt x="1393" y="-164" on="1"/>
        <pt x="1343" y="-164" on="1"/>
        <pt x="1254" y="-164" on="0"/>
        <pt x="1130" y="-75" on="0"/>
        <pt x="1110" y="0" on="1"/>
        <pt x="381" y="0" on="1"/>
        <pt x="361" y="-75" on="0"/>
        <pt x="236" y="-164" on="0"/>
        <pt x="147" y="-164" on="1"/>
        <pt x="98" y="-164" on="1"/>
        <pt x="170" y="229" on="1"/>
      </contour>
    </TTGlyph>
    <TTGlyph name="uni1240" xMin="109" yMin="0" xMax="1335" yMax="1462">
      <contour>
        <pt x="872" y="0" on="1"/>
        <pt x="571" y="0" on="1"/>
        <pt x="571" y="416" on="1"/>
        <pt x="422" y="424" on="0"/>
        <pt x="217" y="521" on="0"/>
        <pt x="109" y="686" on="0"/>
        <pt x="109" y="793" on="1"/>
        <pt x="109" y="894" on="0"/>
        <pt x="220" y="1053" on="0"/>
        <pt x="429" y="1146" on="0"/>
        <pt x="571" y="1151" on="1"/>
        <pt x="571" y="1462" on="1"/>
        <pt x="872" y="1462" on="1"/>
        <pt x="872" y="1151" on="1"/>
        <pt x="1016" y="1145" on="0"/>
        <pt x="1224" y="1052" on="0"/>
        <pt x="1335" y="894" on="0"/>
        <pt x="1335" y="793" on="1"/>
        <pt x="1335" y="686" on="0"/>
        <pt x="1226" y="522" on="0"/>
        <pt x="1021" y="424" on="0"/>
        <pt x="872" y="416" on="1"/>
      </contour>
      <contour>
        <pt x="571" y="946" on="1"/>
        <pt x="494" y="938" on="0"/>
        <pt x="401" y="850" on="0"/>
        <pt x="401" y="786" on="1"/>
        <pt x="401" y="719" on="0"/>
        <pt x="497" y="627" on="0"/>
        <pt x="571" y="621" on="1"/>
      </contour>
      <contour>
        <pt x="872" y="621" on="1"/>
        <pt x="948" y="628" on="0"/>
        <pt x="1042" y="719" on="0"/>
        <pt x="1042" y="786" on="1"/>
        <pt x="1042" y="849" on="0"/>
        <pt x="950" y="938" on="0"/>
        <pt x="872" y="946" on="1"/>
      </contour>
    </TTGlyph>
    <TTGlyph name="uni1241" xMin="109" yMin="0" xMax="1335" yMax="1462">
      <contour>
        <pt x="872" y="403" on="1"/>
        <pt x="1217" y="403" on="1"/>
        <pt x="1280" y="51" on="1"/>
        <pt x="1231" y="51" on="1"/>
        <pt x="1142" y="51" on="0"/>
        <pt x="1017" y="140" on="0"/>
        <pt x="997" y="215" on="1"/>
        <pt x="872" y="215" on="1"/>
        <pt x="872" y="0" on="1"/>
        <pt x="571" y="0" on="1"/>
        <pt x="571" y="498" on="1"/>
        <pt x="350" y="510" on="0"/>
        <pt x="109" y="694" on="0"/>
        <pt x="109" y="854" on="1"/>
        <pt x="109" y="1004" on="0"/>
        <pt x="353" y="1183" on="0"/>
        <pt x="571" y="1192" on="1"/>
        <pt x="571" y="1462" on="1"/>
        <pt x="872" y="1462" on="1"/>
        <pt x="872" y="1192" on="1"/>
        <pt x="1089" y="1183" on="0"/>
        <pt x="1335" y="1004" on="0"/>
        <pt x="1335" y="854" on="1"/>
        <pt x="1335" y="695" on="0"/>
        <pt x="1091" y="509" on="0"/>
        <pt x="872" y="498" on="1"/>
      </contour>
      <contour>
        <pt x="872" y="702" on="1"/>
        <pt x="956" y="711" on="0"/>
        <pt x="1042" y="789" on="0"/>
        <pt x="1042" y="848" on="1"/>
        <pt x="1042" y="905" on="0"/>
        <pt x="954" y="979" on="0"/>
        <pt x="872" y="987" on="1"/>
      </contour>
      <contour>
        <pt x="571" y="987" on="1"/>
        <pt x="489" y="978" on="0"/>
        <pt x="401" y="905" on="0"/>
        <pt x="401" y="848" on="1"/>
        <pt x="401" y="787" on="0"/>
        <pt x="490" y="711" on="0"/>
        <pt x="571" y="702" on="1"/>
      </contour>
    </TTGlyph>
    <TTGlyph name="uni1242" xMin="109" yMin="-131" xMax="1335" yMax="1462">
      <contour>
        <pt x="872" y="188" on="1"/>
        <pt x="981" y="188" on="1"/>
        <pt x="998" y="241" on="0"/>
        <pt x="1125" y="319" on="0"/>
        <pt x="1198" y="319" on="1"/>
        <pt x="1247" y="319" on="1"/>
        <pt x="1192" y="94" on="1"/>
        <pt x="1247" y="-131" on="1"/>
        <pt x="1198" y="-131" on="1"/>
        <pt x="1123" y="-131" on="0"/>
        <pt x="998" y="-53" on="0"/>
        <pt x="981" y="0" on="1"/>
        <pt x="571" y="0" on="1"/>
        <pt x="571" y="457" on="1"/>
        <pt x="350" y="469" on="0"/>
        <pt x="109" y="653" on="0"/>
        <pt x="109" y="813" on="1"/>
        <pt x="109" y="963" on="0"/>
        <pt x="353" y="1142" on="0"/>
        <pt x="571" y="1151" on="1"/>
        <pt x="571" y="1462" on="1"/>
        <pt x="872" y="1462" on="1"/>
        <pt x="872" y="1151" on="1"/>
        <pt x="1089" y="1142" on="0"/>
        <pt x="1335" y="963" on="0"/>
        <pt x="1335" y="813" on="1"/>
        <pt x="1335" y="654" on="0"/>
        <pt x="1091" y="468" on="0"/>
        <pt x="872" y="457" on="1"/>
      </contour>
      <contour>
        <pt x="872" y="662" on="1"/>
        <pt x="953" y="669" on="0"/>
        <pt x="1042" y="746" on="0"/>
        <pt x="1042" y="807" on="1"/>
        <pt x="1042" y="864" on="0"/>
        <pt x="954" y="938" on="0"/>
        <pt x="872" y="946" on="1"/>
      </contour>
      <contour>
        <pt x="571" y="946" on="1"/>
        <pt x="489" y="937" on="0"/>
        <pt x="401" y="864" on="0"/>
        <pt x="401" y="807" on="1"/>
        <pt x="401" y="746" on="0"/>
        <pt x="491" y="669" on="0"/>
        <pt x="571" y="662" on="1"/>
      </contour>
    </TTGlyph>
    <TTGlyph name="uni1243" xMin="78" yMin="-164" xMax="1335" yMax="1462">
      <contour>
        <pt x="872" y="395" on="1"/>
        <pt x="872" y="275" on="0"/>
        <pt x="765" y="97" on="0"/>
        <pt x="558" y="0" on="0"/>
        <pt x="410" y="0" on="1"/>
        <pt x="360" y="0" on="1"/>
        <pt x="339" y="-77" on="0"/>
        <pt x="214" y="-164" on="0"/>
        <pt x="127" y="-164" on="1"/>
        <pt x="78" y="-164" on="1"/>
        <pt x="150" y="229" on="1"/>
        <pt x="338" y="229" on="1"/>
        <pt x="462" y="229" on="0"/>
        <pt x="571" y="310" on="0"/>
        <pt x="571" y="408" on="1"/>
        <pt x="571" y="416" on="1"/>
        <pt x="422" y="424" on="0"/>
        <pt x="217" y="521" on="0"/>
        <pt x="109" y="686" on="0"/>
        <pt x="109" y="793" on="1"/>
        <pt x="109" y="894" on="0"/>
        <pt x="220" y="1053" on="0"/>
        <pt x="429" y="1146" on="0"/>
        <pt x="571" y="1151" on="1"/>
        <pt x="571" y="1462" on="1"/>
        <pt x="872" y="1462" on="1"/>
        <pt x="872" y="1151" on="1"/>
        <pt x="1016" y="1145" on="0"/>
        <pt x="1224" y="1052" on="0"/>
        <pt x="1335" y="894" on="0"/>
        <pt x="1335" y="793" on="1"/>
        <pt x="1335" y="686" on="0"/>
        <pt x="1226" y="522" on="0"/>
        <pt x="1021" y="424" on="0"/>
        <pt x="872" y="416" on="1"/>
      </contour>
      <contour>
        <pt x="571" y="946" on="1"/>
        <pt x="494" y="938" on="0"/>
        <pt x="401" y="850" on="0"/>
        <pt x="401" y="786" on="1"/>
        <pt x="401" y="719" on="0"/>
        <pt x="497" y="627" on="0"/>
        <pt x="571" y="621" on="1"/>
      </contour>
      <contour>
        <pt x="872" y="621" on="1"/>
        <pt x="948" y="628" on="0"/>
        <pt x="1042" y="719" on="0"/>
        <pt x="1042" y="786" on="1"/>
        <pt x="1042" y="849" on="0"/>
        <pt x="950" y="938" on="0"/>
        <pt x="872" y="946" on="1"/>
      </contour>
    </TTGlyph>
    <TTGlyph name="uni1244" xMin="109" yMin="0" xMax="1335" yMax="1462">
      <contour>
        <pt x="872" y="530" on="1"/>
        <pt x="963" y="530" on="1"/>
        <pt x="1128" y="530" on="0"/>
        <pt x="1303" y="397" on="0"/>
        <pt x="1303" y="270" on="1"/>
        <pt x="1303" y="142" on="0"/>
        <pt x="1093" y="0" on="0"/>
        <pt x="905" y="0" on="1"/>
        <pt x="571" y="0" on="1"/>
        <pt x="571" y="582" on="1"/>
        <pt x="353" y="594" on="0"/>
        <pt x="109" y="793" on="0"/>
        <pt x="109" y="958" on="1"/>
        <pt x="109" y="1058" on="0"/>
        <pt x="218" y="1217" on="0"/>
        <pt x="426" y="1311" on="0"/>
        <pt x="571" y="1317" on="1"/>
        <pt x="571" y="1462" on="1"/>
        <pt x="872" y="1462" on="1"/>
        <pt x="872" y="1317" on="1"/>
        <pt x="1016" y="1311" on="0"/>
        <pt x="1225" y="1217" on="0"/>
        <pt x="1335" y="1059" on="0"/>
        <pt x="1335" y="958" on="1"/>
        <pt x="1335" y="852" on="0"/>
        <pt x="1227" y="688" on="0"/>
        <pt x="1021" y="590" on="0"/>
        <pt x="872" y="582" on="1"/>
      </contour>
      <contour>
        <pt x="872" y="786" on="1"/>
        <pt x="950" y="794" on="0"/>
        <pt x="1042" y="886" on="0"/>
        <pt x="1042" y="952" on="1"/>
        <pt x="1042" y="1015" on="0"/>
        <pt x="950" y="1104" on="0"/>
        <pt x="872" y="1112" on="1"/>
      </contour>
      <contour>
        <pt x="571" y="1112" on="1"/>
        <pt x="494" y="1104" on="0"/>
        <pt x="401" y="1016" on="0"/>
        <pt x="401" y="952" on="1"/>
        <pt x="401" y="886" on="0"/>
        <pt x="494" y="795" on="0"/>
        <pt x="571" y="786" on="1"/>
      </contour>
      <contour>
        <pt x="872" y="365" on="1"/>
        <pt x="872" y="166" on="1"/>
        <pt x="956" y="168" on="0"/>
        <pt x="1038" y="219" on="0"/>
        <pt x="1038" y="274" on="1"/>
        <pt x="1038" y="324" on="0"/>
        <pt x="971" y="365" on="0"/>
        <pt x="899" y="365" on="1"/>
      </contour>
    </TTGlyph>
    <TTGlyph name="uni1245" xMin="109" yMin="0" xMax="1335" yMax="1720">
      <contour>
        <pt x="872" y="1151" on="1"/>
        <pt x="1016" y="1145" on="0"/>
        <pt x="1224" y="1052" on="0"/>
        <pt x="1335" y="894" on="0"/>
        <pt x="1335" y="793" on="1"/>
        <pt x="1335" y="686" on="0"/>
        <pt x="1226" y="522" on="0"/>
        <pt x="1021" y="424" on="0"/>
        <pt x="872" y="416" on="1"/>
        <pt x="872" y="0" on="1"/>
        <pt x="571" y="0" on="1"/>
        <pt x="571" y="416" on="1"/>
        <pt x="422" y="424" on="0"/>
        <pt x="217" y="521" on="0"/>
        <pt x="109" y="686" on="0"/>
        <pt x="109" y="793" on="1"/>
        <pt x="109" y="894" on="0"/>
        <pt x="220" y="1053" on="0"/>
        <pt x="429" y="1146" on="0"/>
        <pt x="571" y="1151" on="1"/>
        <pt x="571" y="1368" on="1"/>
        <pt x="231" y="1368" on="1"/>
        <pt x="160" y="1720" on="1"/>
        <pt x="209" y="1720" on="1"/>
        <pt x="288" y="1720" on="0"/>
        <pt x="409" y="1647" on="0"/>
        <pt x="442" y="1577" on="1"/>
        <pt x="872" y="1577" on="1"/>
      </contour>
      <contour>
        <pt x="872" y="621" on="1"/>
        <pt x="948" y="628" on="0"/>
        <pt x="1042" y="719" on="0"/>
        <pt x="1042" y="786" on="1"/>
        <pt x="1042" y="849" on="0"/>
        <pt x="950" y="938" on="0"/>
        <pt x="872" y="946" on="1"/>
      </contour>
      <contour>
        <pt x="571" y="946" on="1"/>
        <pt x="494" y="938" on="0"/>
        <pt x="401" y="850" on="0"/>
        <pt x="401" y="786" on="1"/>
        <pt x="401" y="719" on="0"/>
        <pt x="497" y="627" on="0"/>
        <pt x="571" y="621" on="1"/>
      </contour>
    </TTGlyph>
    <TTGlyph name="uni1246" xMin="109" yMin="0" xMax="1335" yMax="1577">
      <contour>
        <pt x="872" y="406" on="1"/>
        <pt x="948" y="413" on="0"/>
        <pt x="1042" y="504" on="0"/>
        <pt x="1042" y="571" on="1"/>
        <pt x="1042" y="634" on="0"/>
        <pt x="950" y="723" on="0"/>
        <pt x="872" y="731" on="1"/>
      </contour>
      <contour>
        <pt x="571" y="731" on="1"/>
        <pt x="494" y="723" on="0"/>
        <pt x="401" y="635" on="0"/>
        <pt x="401" y="571" on="1"/>
        <pt x="401" y="504" on="0"/>
        <pt x="497" y="412" on="0"/>
        <pt x="571" y="406" on="1"/>
      </contour>
      <contour>
        <pt x="571" y="201" on="1"/>
        <pt x="422" y="209" on="0"/>
        <pt x="217" y="306" on="0"/>
        <pt x="109" y="471" on="0"/>
        <pt x="109" y="578" on="1"/>
        <pt x="109" y="679" on="0"/>
        <pt x="220" y="838" on="0"/>
        <pt x="429" y="931" on="0"/>
        <pt x="571" y="936" on="1"/>
        <pt x="571" y="942" on="1"/>
        <pt x="571" y="978" on="0"/>
        <pt x="590" y="1014" on="1"/>
        <pt x="487" y="1031" on="0"/>
        <pt x="348" y="1195" on="0"/>
        <pt x="348" y="1298" on="1"/>
        <pt x="348" y="1435" on="0"/>
        <pt x="540" y="1577" on="0"/>
        <pt x="725" y="1577" on="1"/>
        <pt x="904" y="1577" on="0"/>
        <pt x="1100" y="1439" on="0"/>
        <pt x="1100" y="1311" on="1"/>
        <pt x="1100" y="1224" on="0"/>
        <pt x="1008" y="1072" on="0"/>
        <pt x="920" y="1024" on="1"/>
        <pt x="895" y="1012" on="0"/>
        <pt x="872" y="969" on="0"/>
        <pt x="872" y="950" on="1"/>
        <pt x="872" y="936" on="1"/>
        <pt x="1016" y="930" on="0"/>
        <pt x="1224" y="837" on="0"/>
        <pt x="1335" y="679" on="0"/>
        <pt x="1335" y="578" on="1"/>
        <pt x="1335" y="471" on="0"/>
        <pt x="1226" y="307" on="0"/>
        <pt x="1021" y="209" on="0"/>
        <pt x="872" y="201" on="1"/>
        <pt x="872" y="0" on="1"/>
        <pt x="571" y="0" on="1"/>
      </contour>
      <contour>
        <pt x="725" y="1411" on="1"/>
        <pt x="673" y="1411" on="0"/>
        <pt x="610" y="1353" on="0"/>
        <pt x="610" y="1305" on="1"/>
        <pt x="610" y="1249" on="0"/>
        <pt x="668" y="1173" on="0"/>
        <pt x="731" y="1145" on="1"/>
        <pt x="838" y="1200" on="0"/>
        <pt x="838" y="1305" on="1"/>
        <pt x="838" y="1351" on="0"/>
        <pt x="775" y="1411" on="0"/>
      </contour>
    </TTGlyph>
    <TTGlyph name="uni1247" xMin="92" yMin="-127" xMax="1335" yMax="1577">
      <contour>
        <pt x="358" y="0" on="1"/>
        <pt x="336" y="-54" on="0"/>
        <pt x="209" y="-127" on="0"/>
        <pt x="141" y="-127" on="1"/>
        <pt x="92" y="-127" on="1"/>
        <pt x="147" y="102" on="1"/>
        <pt x="92" y="330" on="1"/>
        <pt x="141" y="330" on="1"/>
        <pt x="210" y="330" on="0"/>
        <pt x="337" y="257" on="0"/>
        <pt x="358" y="203" on="1"/>
        <pt x="571" y="203" on="1"/>
        <pt x="571" y="352" on="1"/>
        <pt x="352" y="364" on="0"/>
        <pt x="109" y="537" on="0"/>
        <pt x="109" y="688" on="1"/>
        <pt x="109" y="821" on="0"/>
        <pt x="352" y="984" on="0"/>
        <pt x="571" y="997" on="1"/>
        <pt x="571" y="1004" on="1"/>
        <pt x="571" y="1035" on="0"/>
        <pt x="590" y="1067" on="1"/>
        <pt x="529" y="1076" on="0"/>
        <pt x="416" y="1148" on="0"/>
        <pt x="348" y="1260" on="0"/>
        <pt x="348" y="1325" on="1"/>
        <pt x="348" y="1443" on="0"/>
        <pt x="546" y="1577" on="0"/>
        <pt x="725" y="1577" on="1"/>
        <pt x="902" y="1577" on="0"/>
        <pt x="1100" y="1451" on="0"/>
        <pt x="1100" y="1335" on="1"/>
        <pt x="1100" y="1257" on="0"/>
        <pt x="1007" y="1119" on="0"/>
        <pt x="920" y="1077" on="1"/>
        <pt x="895" y="1066" on="0"/>
        <pt x="872" y="1027" on="0"/>
        <pt x="872" y="1010" on="1"/>
        <pt x="872" y="997" on="1"/>
        <pt x="1094" y="986" on="0"/>
        <pt x="1335" y="823" on="0"/>
        <pt x="1335" y="688" on="1"/>
        <pt x="1335" y="539" on="0"/>
        <pt x="1092" y="364" on="0"/>
        <pt x="872" y="352" on="1"/>
        <pt x="872" y="0" on="1"/>
      </contour>
      <contour>
        <pt x="725" y="1432" on="1"/>
        <pt x="672" y="1432" on="0"/>
        <pt x="610" y="1372" on="0"/>
        <pt x="610" y="1325" on="1"/>
        <pt x="610" y="1269" on="0"/>
        <pt x="668" y="1193" on="0"/>
        <pt x="731" y="1165" on="1"/>
        <pt x="838" y="1220" on="0"/>
        <pt x="838" y="1325" on="1"/>
        <pt x="838" y="1369" on="0"/>
        <pt x="777" y="1432" on="0"/>
      </contour>
      <contour>
        <pt x="872" y="526" on="1"/>
        <pt x="952" y="533" on="0"/>
        <pt x="1042" y="617" on="0"/>
        <pt x="1042" y="678" on="1"/>
        <pt x="1042" y="734" on="0"/>
        <pt x="950" y="816" on="0"/>
        <pt x="872" y="823" on="1"/>
      </contour>
      <contour>
        <pt x="571" y="823" on="1"/>
        <pt x="493" y="817" on="0"/>
        <pt x="401" y="734" on="0"/>
        <pt x="401" y="678" on="1"/>
        <pt x="401" y="618" on="0"/>
        <pt x="492" y="533" on="0"/>
        <pt x="571" y="526" on="1"/>
      </contour>
    </TTGlyph>
    <TTGlyph name="uni1248" xMin="109" yMin="-43" xMax="1718" yMax="1462">
      <contour>
        <pt x="967" y="262" on="1"/>
        <pt x="967" y="283" on="1"/>
        <pt x="969" y="303" on="1"/>
        <pt x="872" y="303" on="1"/>
        <pt x="872" y="0" on="1"/>
        <pt x="571" y="0" on="1"/>
        <pt x="571" y="582" on="1"/>
        <pt x="353" y="594" on="0"/>
        <pt x="109" y="793" on="0"/>
        <pt x="109" y="958" on="1"/>
        <pt x="109" y="1058" on="0"/>
        <pt x="218" y="1217" on="0"/>
        <pt x="426" y="1311" on="0"/>
        <pt x="571" y="1317" on="1"/>
        <pt x="571" y="1462" on="1"/>
        <pt x="872" y="1462" on="1"/>
        <pt x="872" y="1317" on="1"/>
        <pt x="1016" y="1311" on="0"/>
        <pt x="1225" y="1217" on="0"/>
        <pt x="1335" y="1059" on="0"/>
        <pt x="1335" y="958" on="1"/>
        <pt x="1335" y="852" on="0"/>
        <pt x="1227" y="688" on="0"/>
        <pt x="1021" y="590" on="0"/>
        <pt x="872" y="582" on="1"/>
        <pt x="872" y="492" on="1"/>
        <pt x="1087" y="492" on="1"/>
        <pt x="1182" y="547" on="0"/>
        <pt x="1343" y="547" on="1"/>
        <pt x="1525" y="547" on="0"/>
        <pt x="1718" y="401" on="0"/>
        <pt x="1718" y="262" on="1"/>
        <pt x="1718" y="121" on="0"/>
        <pt x="1519" y="-43" on="0"/>
        <pt x="1343" y="-43" on="1"/>
        <pt x="1170" y="-43" on="0"/>
        <pt x="967" y="121" on="0"/>
      </contour>
      <contour>
        <pt x="1343" y="383" on="1"/>
        <pt x="1290" y="383" on="0"/>
        <pt x="1229" y="320" on="0"/>
        <pt x="1229" y="262" on="1"/>
        <pt x="1229" y="199" on="0"/>
        <pt x="1290" y="121" on="0"/>
        <pt x="1343" y="121" on="1"/>
        <pt x="1396" y="121" on="0"/>
        <pt x="1456" y="200" on="0"/>
        <pt x="1456" y="262" on="1"/>
        <pt x="1456" y="318" on="0"/>
        <pt x="1397" y="383" on="0"/>
      </contour>
      <contour>
        <pt x="872" y="786" on="1"/>
        <pt x="950" y="794" on="0"/>
        <pt x="1042" y="886" on="0"/>
        <pt x="1042" y="952" on="1"/>
        <pt x="1042" y="1015" on="0"/>
        <pt x="950" y="1104" on="0"/>
        <pt x="872" y="1112" on="1"/>
      </contour>
      <contour>
        <pt x="571" y="1112" on="1"/>
        <pt x="494" y="1104" on="0"/>
        <pt x="401" y="1016" on="0"/>
        <pt x="401" y="952" on="1"/>
        <pt x="401" y="886" on="0"/>
        <pt x="494" y="795" on="0"/>
        <pt x="571" y="786" on="1"/>
      </contour>
    </TTGlyph>
    <TTGlyph name="uni124A" xMin="109" yMin="0" xMax="1948" yMax="1462">
      <contour>
        <pt x="872" y="0" on="1"/>
        <pt x="571" y="0" on="1"/>
        <pt x="571" y="416" on="1"/>
        <pt x="422" y="424" on="0"/>
        <pt x="217" y="521" on="0"/>
        <pt x="109" y="686" on="0"/>
        <pt x="109" y="793" on="1"/>
        <pt x="109" y="894" on="0"/>
        <pt x="220" y="1053" on="0"/>
        <pt x="429" y="1146" on="0"/>
        <pt x="571" y="1151" on="1"/>
        <pt x="571" y="1462" on="1"/>
        <pt x="872" y="1462" on="1"/>
        <pt x="872" y="1151" on="1"/>
        <pt x="1043" y="1142" on="0"/>
        <pt x="1273" y="1016" on="0"/>
        <pt x="1315" y="903" on="1"/>
        <pt x="1374" y="903" on="1"/>
        <pt x="1374" y="1063" on="1"/>
        <pt x="1665" y="1063" on="1"/>
        <pt x="1665" y="741" on="1"/>
        <pt x="1876" y="741" on="1"/>
        <pt x="1948" y="348" on="1"/>
        <pt x="1898" y="348" on="1"/>
        <pt x="1809" y="348" on="0"/>
        <pt x="1685" y="437" on="0"/>
        <pt x="1665" y="512" on="1"/>
        <pt x="1374" y="512" on="1"/>
        <pt x="1374" y="674" on="1"/>
        <pt x="1315" y="674" on="1"/>
        <pt x="1270" y="555" on="0"/>
        <pt x="1041" y="425" on="0"/>
        <pt x="872" y="416" on="1"/>
      </contour>
      <contour>
        <pt x="872" y="621" on="1"/>
        <pt x="948" y="628" on="0"/>
        <pt x="1042" y="719" on="0"/>
        <pt x="1042" y="786" on="1"/>
        <pt x="1042" y="849" on="0"/>
        <pt x="950" y="938" on="0"/>
        <pt x="872" y="946" on="1"/>
      </contour>
      <contour>
        <pt x="571" y="946" on="1"/>
        <pt x="494" y="938" on="0"/>
        <pt x="401" y="850" on="0"/>
        <pt x="401" y="786" on="1"/>
        <pt x="401" y="719" on="0"/>
        <pt x="497" y="627" on="0"/>
        <pt x="571" y="621" on="1"/>
      </contour>
    </TTGlyph>
    <TTGlyph name="uni124B" xMin="109" yMin="0" xMax="1335" yMax="1462">
      <contour>
        <pt x="571" y="430" on="1"/>
        <pt x="571" y="553" on="1"/>
        <pt x="350" y="565" on="0"/>
        <pt x="109" y="749" on="0"/>
        <pt x="109" y="909" on="1"/>
        <pt x="109" y="1059" on="0"/>
        <pt x="353" y="1238" on="0"/>
        <pt x="571" y="1247" on="1"/>
        <pt x="571" y="1462" on="1"/>
        <pt x="872" y="1462" on="1"/>
        <pt x="872" y="1247" on="1"/>
        <pt x="1089" y="1238" on="0"/>
        <pt x="1335" y="1059" on="0"/>
        <pt x="1335" y="909" on="1"/>
        <pt x="1335" y="750" on="0"/>
        <pt x="1091" y="564" on="0"/>
        <pt x="872" y="553" on="1"/>
        <pt x="872" y="430" on="1"/>
        <pt x="1235" y="430" on="1"/>
        <pt x="1235" y="0" on="1"/>
        <pt x="944" y="0" on="1"/>
        <pt x="944" y="225" on="1"/>
        <pt x="479" y="225" on="1"/>
        <pt x="458" y="162" on="0"/>
        <pt x="332" y="82" on="0"/>
        <pt x="246" y="82" on="1"/>
        <pt x="197" y="82" on="1"/>
        <pt x="268" y="430" on="1"/>
      </contour>
      <contour>
        <pt x="872" y="758" on="1"/>
        <pt x="951" y="765" on="0"/>
        <pt x="1042" y="842" on="0"/>
        <pt x="1042" y="903" on="1"/>
        <pt x="1042" y="960" on="0"/>
        <pt x="954" y="1034" on="0"/>
        <pt x="872" y="1042" on="1"/>
      </contour>
      <contour>
        <pt x="571" y="1042" on="1"/>
        <pt x="489" y="1033" on="0"/>
        <pt x="401" y="960" on="0"/>
        <pt x="401" y="903" on="1"/>
        <pt x="401" y="842" on="0"/>
        <pt x="494" y="765" on="0"/>
        <pt x="571" y="758" on="1"/>
      </contour>
    </TTGlyph>
    <TTGlyph name="uni124C" xMin="109" yMin="-143" xMax="1335" yMax="1556">
      <contour>
        <pt x="571" y="205" on="1"/>
        <pt x="571" y="623" on="1"/>
        <pt x="353" y="635" on="0"/>
        <pt x="109" y="834" on="0"/>
        <pt x="109" y="999" on="1"/>
        <pt x="109" y="1099" on="0"/>
        <pt x="219" y="1259" on="0"/>
        <pt x="426" y="1351" on="0"/>
        <pt x="571" y="1358" on="1"/>
        <pt x="571" y="1556" on="1"/>
        <pt x="872" y="1556" on="1"/>
        <pt x="872" y="1358" on="1"/>
        <pt x="1090" y="1347" on="0"/>
        <pt x="1335" y="1154" on="0"/>
        <pt x="1335" y="999" on="1"/>
        <pt x="1335" y="893" on="0"/>
        <pt x="1227" y="729" on="0"/>
        <pt x="1021" y="631" on="0"/>
        <pt x="872" y="623" on="1"/>
        <pt x="872" y="530" on="1"/>
        <pt x="963" y="530" on="1"/>
        <pt x="1128" y="530" on="0"/>
        <pt x="1303" y="397" on="0"/>
        <pt x="1303" y="270" on="1"/>
        <pt x="1303" y="142" on="0"/>
        <pt x="1093" y="0" on="0"/>
        <pt x="905" y="0" on="1"/>
        <pt x="479" y="0" on="1"/>
        <pt x="458" y="-63" on="0"/>
        <pt x="332" y="-143" on="0"/>
        <pt x="246" y="-143" on="1"/>
        <pt x="197" y="-143" on="1"/>
        <pt x="268" y="205" on="1"/>
      </contour>
      <contour>
        <pt x="872" y="827" on="1"/>
        <pt x="950" y="835" on="0"/>
        <pt x="1042" y="927" on="0"/>
        <pt x="1042" y="993" on="1"/>
        <pt x="1042" y="1056" on="0"/>
        <pt x="950" y="1145" on="0"/>
        <pt x="872" y="1153" on="1"/>
      </contour>
      <contour>
        <pt x="571" y="1153" on="1"/>
        <pt x="494" y="1145" on="0"/>
        <pt x="401" y="1057" on="0"/>
        <pt x="401" y="993" on="1"/>
        <pt x="401" y="927" on="0"/>
        <pt x="494" y="836" on="0"/>
        <pt x="571" y="827" on="1"/>
      </contour>
      <contour>
        <pt x="872" y="365" on="1"/>
        <pt x="872" y="166" on="1"/>
        <pt x="956" y="168" on="0"/>
        <pt x="1038" y="219" on="0"/>
        <pt x="1038" y="274" on="1"/>
        <pt x="1038" y="324" on="0"/>
        <pt x="971" y="365" on="0"/>
        <pt x="899" y="365" on="1"/>
      </contour>
    </TTGlyph>
    <TTGlyph name="uni124D" xMin="109" yMin="0" xMax="1948" yMax="1462">
      <contour>
        <pt x="872" y="0" on="1"/>
        <pt x="571" y="0" on="1"/>
        <pt x="571" y="416" on="1"/>
        <pt x="422" y="424" on="0"/>
        <pt x="217" y="521" on="0"/>
        <pt x="109" y="686" on="0"/>
        <pt x="109" y="793" on="1"/>
        <pt x="109" y="894" on="0"/>
        <pt x="220" y="1053" on="0"/>
        <pt x="429" y="1146" on="0"/>
        <pt x="571" y="1151" on="1"/>
        <pt x="571" y="1462" on="1"/>
        <pt x="872" y="1462" on="1"/>
        <pt x="872" y="1151" on="1"/>
        <pt x="1043" y="1142" on="0"/>
        <pt x="1273" y="1016" on="0"/>
        <pt x="1315" y="903" on="1"/>
        <pt x="1374" y="903" on="1"/>
        <pt x="1374" y="1190" on="1"/>
        <pt x="1665" y="1190" on="1"/>
        <pt x="1665" y="903" on="1"/>
        <pt x="1876" y="903" on="1"/>
        <pt x="1948" y="510" on="1"/>
        <pt x="1898" y="510" on="1"/>
        <pt x="1809" y="510" on="0"/>
        <pt x="1685" y="598" on="0"/>
        <pt x="1665" y="674" on="1"/>
        <pt x="1315" y="674" on="1"/>
        <pt x="1270" y="555" on="0"/>
        <pt x="1041" y="425" on="0"/>
        <pt x="872" y="416" on="1"/>
      </contour>
      <contour>
        <pt x="872" y="621" on="1"/>
        <pt x="948" y="628" on="0"/>
        <pt x="1042" y="719" on="0"/>
        <pt x="1042" y="786" on="1"/>
        <pt x="1042" y="849" on="0"/>
        <pt x="950" y="938" on="0"/>
        <pt x="872" y="946" on="1"/>
      </contour>
      <contour>
        <pt x="571" y="946" on="1"/>
        <pt x="494" y="938" on="0"/>
        <pt x="401" y="850" on="0"/>
        <pt x="401" y="786" on="1"/>
        <pt x="401" y="719" on="0"/>
        <pt x="497" y="627" on="0"/>
        <pt x="571" y="621" on="1"/>
      </contour>
    </TTGlyph>
    <TTGlyph name="uni1250" xMin="109" yMin="0" xMax="1335" yMax="1726">
      <contour>
        <pt x="246" y="1726" on="1"/>
        <pt x="315" y="1726" on="0"/>
        <pt x="442" y="1636" on="0"/>
        <pt x="463" y="1577" on="1"/>
        <pt x="981" y="1577" on="1"/>
        <pt x="999" y="1634" on="0"/>
        <pt x="1128" y="1726" on="0"/>
        <pt x="1198" y="1726" on="1"/>
        <pt x="1247" y="1726" on="1"/>
        <pt x="1192" y="1491" on="1"/>
        <pt x="1247" y="1255" on="1"/>
        <pt x="1198" y="1255" on="1"/>
        <pt x="1127" y="1255" on="0"/>
        <pt x="1000" y="1346" on="0"/>
        <pt x="981" y="1405" on="1"/>
        <pt x="872" y="1405" on="1"/>
        <pt x="872" y="1151" on="1"/>
        <pt x="1016" y="1145" on="0"/>
        <pt x="1224" y="1052" on="0"/>
        <pt x="1335" y="894" on="0"/>
        <pt x="1335" y="793" on="1"/>
        <pt x="1335" y="686" on="0"/>
        <pt x="1226" y="522" on="0"/>
        <pt x="1021" y="424" on="0"/>
        <pt x="872" y="416" on="1"/>
        <pt x="872" y="0" on="1"/>
        <pt x="571" y="0" on="1"/>
        <pt x="571" y="416" on="1"/>
        <pt x="422" y="424" on="0"/>
        <pt x="217" y="521" on="0"/>
        <pt x="109" y="686" on="0"/>
        <pt x="109" y="793" on="1"/>
        <pt x="109" y="894" on="0"/>
        <pt x="220" y="1053" on="0"/>
        <pt x="429" y="1146" on="0"/>
        <pt x="571" y="1151" on="1"/>
        <pt x="571" y="1405" on="1"/>
        <pt x="463" y="1405" on="1"/>
        <pt x="441" y="1344" on="0"/>
        <pt x="315" y="1255" on="0"/>
        <pt x="246" y="1255" on="1"/>
        <pt x="197" y="1255" on="1"/>
        <pt x="252" y="1491" on="1"/>
        <pt x="197" y="1726" on="1"/>
      </contour>
      <contour>
        <pt x="872" y="621" on="1"/>
        <pt x="948" y="628" on="0"/>
        <pt x="1042" y="719" on="0"/>
        <pt x="1042" y="786" on="1"/>
        <pt x="1042" y="849" on="0"/>
        <pt x="950" y="938" on="0"/>
        <pt x="872" y="946" on="1"/>
      </contour>
      <contour>
        <pt x="571" y="946" on="1"/>
        <pt x="494" y="938" on="0"/>
        <pt x="401" y="850" on="0"/>
        <pt x="401" y="786" on="1"/>
        <pt x="401" y="719" on="0"/>
        <pt x="497" y="627" on="0"/>
        <pt x="571" y="621" on="1"/>
      </contour>
    </TTGlyph>
    <TTGlyph name="uni1251" xMin="109" yMin="0" xMax="1335" yMax="1726">
      <contour>
        <pt x="872" y="403" on="1"/>
        <pt x="1217" y="403" on="1"/>
        <pt x="1280" y="51" on="1"/>
        <pt x="1231" y="51" on="1"/>
        <pt x="1142" y="51" on="0"/>
        <pt x="1017" y="140" on="0"/>
        <pt x="997" y="215" on="1"/>
        <pt x="872" y="215" on="1"/>
        <pt x="872" y="0" on="1"/>
        <pt x="571" y="0" on="1"/>
        <pt x="571" y="518" on="1"/>
        <pt x="353" y="530" on="0"/>
        <pt x="109" y="714" on="0"/>
        <pt x="109" y="874" on="1"/>
        <pt x="109" y="1025" on="0"/>
        <pt x="352" y="1203" on="0"/>
        <pt x="571" y="1212" on="1"/>
        <pt x="571" y="1405" on="1"/>
        <pt x="463" y="1405" on="1"/>
        <pt x="441" y="1344" on="0"/>
        <pt x="315" y="1255" on="0"/>
        <pt x="246" y="1255" on="1"/>
        <pt x="197" y="1255" on="1"/>
        <pt x="252" y="1491" on="1"/>
        <pt x="197" y="1726" on="1"/>
        <pt x="246" y="1726" on="1"/>
        <pt x="315" y="1726" on="0"/>
        <pt x="442" y="1636" on="0"/>
        <pt x="463" y="1577" on="1"/>
        <pt x="981" y="1577" on="1"/>
        <pt x="999" y="1634" on="0"/>
        <pt x="1128" y="1726" on="0"/>
        <pt x="1198" y="1726" on="1"/>
        <pt x="1247" y="1726" on="1"/>
        <pt x="1192" y="1491" on="1"/>
        <pt x="1247" y="1255" on="1"/>
        <pt x="1198" y="1255" on="1"/>
        <pt x="1127" y="1255" on="0"/>
        <pt x="1000" y="1346" on="0"/>
        <pt x="981" y="1405" on="1"/>
        <pt x="872" y="1405" on="1"/>
        <pt x="872" y="1212" on="1"/>
        <pt x="1091" y="1203" on="0"/>
        <pt x="1335" y="1026" on="0"/>
        <pt x="1335" y="874" on="1"/>
        <pt x="1335" y="716" on="0"/>
        <pt x="1092" y="530" on="0"/>
        <pt x="872" y="518" on="1"/>
      </contour>
      <contour>
        <pt x="872" y="723" on="1"/>
        <pt x="951" y="730" on="0"/>
        <pt x="1042" y="807" on="0"/>
        <pt x="1042" y="868" on="1"/>
        <pt x="1042" y="925" on="0"/>
        <pt x="953" y="1000" on="0"/>
        <pt x="872" y="1008" on="1"/>
      </contour>
      <contour>
        <pt x="571" y="1008" on="1"/>
        <pt x="491" y="1000" on="0"/>
        <pt x="401" y="925" on="0"/>
        <pt x="401" y="868" on="1"/>
        <pt x="401" y="807" on="0"/>
        <pt x="494" y="730" on="0"/>
        <pt x="571" y="723" on="1"/>
      </contour>
    </TTGlyph>
    <TTGlyph name="uni1252" xMin="109" yMin="-131" xMax="1335" yMax="1726">
      <contour>
        <pt x="246" y="1726" on="1"/>
        <pt x="315" y="1726" on="0"/>
        <pt x="442" y="1636" on="0"/>
        <pt x="463" y="1577" on="1"/>
        <pt x="981" y="1577" on="1"/>
        <pt x="999" y="1634" on="0"/>
        <pt x="1128" y="1726" on="0"/>
        <pt x="1198" y="1726" on="1"/>
        <pt x="1247" y="1726" on="1"/>
        <pt x="1192" y="1491" on="1"/>
        <pt x="1247" y="1255" on="1"/>
        <pt x="1198" y="1255" on="1"/>
        <pt x="1127" y="1255" on="0"/>
        <pt x="1000" y="1346" on="0"/>
        <pt x="981" y="1405" on="1"/>
        <pt x="872" y="1405" on="1"/>
        <pt x="872" y="1151" on="1"/>
        <pt x="1089" y="1142" on="0"/>
        <pt x="1335" y="963" on="0"/>
        <pt x="1335" y="813" on="1"/>
        <pt x="1335" y="654" on="0"/>
        <pt x="1091" y="468" on="0"/>
        <pt x="872" y="457" on="1"/>
        <pt x="872" y="188" on="1"/>
        <pt x="981" y="188" on="1"/>
        <pt x="998" y="241" on="0"/>
        <pt x="1125" y="319" on="0"/>
        <pt x="1198" y="319" on="1"/>
        <pt x="1247" y="319" on="1"/>
        <pt x="1192" y="94" on="1"/>
        <pt x="1247" y="-131" on="1"/>
        <pt x="1198" y="-131" on="1"/>
        <pt x="1123" y="-131" on="0"/>
        <pt x="998" y="-53" on="0"/>
        <pt x="981" y="0" on="1"/>
        <pt x="571" y="0" on="1"/>
        <pt x="571" y="457" on="1"/>
        <pt x="350" y="469" on="0"/>
        <pt x="109" y="653" on="0"/>
        <pt x="109" y="813" on="1"/>
        <pt x="109" y="963" on="0"/>
        <pt x="353" y="1142" on="0"/>
        <pt x="571" y="1151" on="1"/>
        <pt x="571" y="1405" on="1"/>
        <pt x="463" y="1405" on="1"/>
        <pt x="441" y="1344" on="0"/>
        <pt x="315" y="1255" on="0"/>
        <pt x="246" y="1255" on="1"/>
        <pt x="197" y="1255" on="1"/>
        <pt x="252" y="1491" on="1"/>
        <pt x="197" y="1726" on="1"/>
      </contour>
      <contour>
        <pt x="872" y="662" on="1"/>
        <pt x="953" y="669" on="0"/>
        <pt x="1042" y="746" on="0"/>
        <pt x="1042" y="807" on="1"/>
        <pt x="1042" y="864" on="0"/>
        <pt x="954" y="938" on="0"/>
        <pt x="872" y="946" on="1"/>
      </contour>
      <contour>
        <pt x="571" y="946" on="1"/>
        <pt x="489" y="937" on="0"/>
        <pt x="401" y="864" on="0"/>
        <pt x="401" y="807" on="1"/>
        <pt x="401" y="746" on="0"/>
        <pt x="491" y="669" on="0"/>
        <pt x="571" y="662" on="1"/>
      </contour>
    </TTGlyph>
    <TTGlyph name="uni1253" xMin="78" yMin="-164" xMax="1335" yMax="1726">
      <contour>
        <pt x="872" y="395" on="1"/>
        <pt x="872" y="275" on="0"/>
        <pt x="765" y="97" on="0"/>
        <pt x="558" y="0" on="0"/>
        <pt x="410" y="0" on="1"/>
        <pt x="360" y="0" on="1"/>
        <pt x="339" y="-77" on="0"/>
        <pt x="214" y="-164" on="0"/>
        <pt x="127" y="-164" on="1"/>
        <pt x="78" y="-164" on="1"/>
        <pt x="150" y="229" on="1"/>
        <pt x="338" y="229" on="1"/>
        <pt x="462" y="229" on="0"/>
        <pt x="571" y="310" on="0"/>
        <pt x="571" y="408" on="1"/>
        <pt x="571" y="416" on="1"/>
        <pt x="422" y="424" on="0"/>
        <pt x="217" y="521" on="0"/>
        <pt x="109" y="686" on="0"/>
        <pt x="109" y="793" on="1"/>
        <pt x="109" y="894" on="0"/>
        <pt x="220" y="1053" on="0"/>
        <pt x="429" y="1146" on="0"/>
        <pt x="571" y="1151" on="1"/>
        <pt x="571" y="1405" on="1"/>
        <pt x="463" y="1405" on="1"/>
        <pt x="441" y="1344" on="0"/>
        <pt x="315" y="1255" on="0"/>
        <pt x="246" y="1255" on="1"/>
        <pt x="197" y="1255" on="1"/>
        <pt x="252" y="1491" on="1"/>
        <pt x="197" y="1726" on="1"/>
        <pt x="246" y="1726" on="1"/>
        <pt x="315" y="1726" on="0"/>
        <pt x="442" y="1636" on="0"/>
        <pt x="463" y="1577" on="1"/>
        <pt x="981" y="1577" on="1"/>
        <pt x="999" y="1634" on="0"/>
        <pt x="1128" y="1726" on="0"/>
        <pt x="1198" y="1726" on="1"/>
        <pt x="1247" y="1726" on="1"/>
        <pt x="1192" y="1491" on="1"/>
        <pt x="1247" y="1255" on="1"/>
        <pt x="1198" y="1255" on="1"/>
        <pt x="1127" y="1255" on="0"/>
        <pt x="1000" y="1346" on="0"/>
        <pt x="981" y="1405" on="1"/>
        <pt x="872" y="1405" on="1"/>
        <pt x="872" y="1151" on="1"/>
        <pt x="1016" y="1145" on="0"/>
        <pt x="1224" y="1052" on="0"/>
        <pt x="1335" y="894" on="0"/>
        <pt x="1335" y="793" on="1"/>
        <pt x="1335" y="686" on="0"/>
        <pt x="1226" y="522" on="0"/>
        <pt x="1021" y="424" on="0"/>
        <pt x="872" y="416" on="1"/>
      </contour>
      <contour>
        <pt x="872" y="621" on="1"/>
        <pt x="948" y="628" on="0"/>
        <pt x="1042" y="719" on="0"/>
        <pt x="1042" y="786" on="1"/>
        <pt x="1042" y="849" on="0"/>
        <pt x="950" y="938" on="0"/>
        <pt x="872" y="946" on="1"/>
      </contour>
      <contour>
        <pt x="571" y="946" on="1"/>
        <pt x="494" y="938" on="0"/>
        <pt x="401" y="850" on="0"/>
        <pt x="401" y="786" on="1"/>
        <pt x="401" y="719" on="0"/>
        <pt x="497" y="627" on="0"/>
        <pt x="571" y="621" on="1"/>
      </contour>
    </TTGlyph>
    <TTGlyph name="uni1254" xMin="109" yMin="0" xMax="1335" yMax="1767">
      <contour>
        <pt x="246" y="1767" on="1"/>
        <pt x="315" y="1767" on="0"/>
        <pt x="442" y="1677" on="0"/>
        <pt x="463" y="1618" on="1"/>
        <pt x="981" y="1618" on="1"/>
        <pt x="999" y="1675" on="0"/>
        <pt x="1128" y="1767" on="0"/>
        <pt x="1198" y="1767" on="1"/>
        <pt x="1247" y="1767" on="1"/>
        <pt x="1192" y="1532" on="1"/>
        <pt x="1247" y="1296" on="1"/>
        <pt x="1198" y="1296" on="1"/>
        <pt x="1126" y="1296" on="0"/>
        <pt x="998" y="1389" on="0"/>
        <pt x="981" y="1446" on="1"/>
        <pt x="872" y="1446" on="1"/>
        <pt x="872" y="1276" on="1"/>
        <pt x="1093" y="1267" on="0"/>
        <pt x="1335" y="1104" on="0"/>
        <pt x="1335" y="969" on="1"/>
        <pt x="1335" y="823" on="0"/>
        <pt x="1093" y="653" on="0"/>
        <pt x="872" y="643" on="1"/>
        <pt x="872" y="530" on="1"/>
        <pt x="963" y="530" on="1"/>
        <pt x="1128" y="530" on="0"/>
        <pt x="1303" y="397" on="0"/>
        <pt x="1303" y="270" on="1"/>
        <pt x="1303" y="142" on="0"/>
        <pt x="1093" y="0" on="0"/>
        <pt x="905" y="0" on="1"/>
        <pt x="571" y="0" on="1"/>
        <pt x="571" y="643" on="1"/>
        <pt x="349" y="653" on="0"/>
        <pt x="109" y="822" on="0"/>
        <pt x="109" y="969" on="1"/>
        <pt x="109" y="1104" on="0"/>
        <pt x="349" y="1267" on="0"/>
        <pt x="571" y="1276" on="1"/>
        <pt x="571" y="1446" on="1"/>
        <pt x="463" y="1446" on="1"/>
        <pt x="442" y="1387" on="0"/>
        <pt x="316" y="1296" on="0"/>
        <pt x="246" y="1296" on="1"/>
        <pt x="197" y="1296" on="1"/>
        <pt x="252" y="1532" on="1"/>
        <pt x="197" y="1767" on="1"/>
      </contour>
      <contour>
        <pt x="872" y="817" on="1"/>
        <pt x="951" y="824" on="0"/>
        <pt x="1042" y="901" on="0"/>
        <pt x="1042" y="963" on="1"/>
        <pt x="1042" y="1020" on="0"/>
        <pt x="954" y="1094" on="0"/>
        <pt x="872" y="1102" on="1"/>
      </contour>
      <contour>
        <pt x="571" y="1102" on="1"/>
        <pt x="489" y="1093" on="0"/>
        <pt x="401" y="1020" on="0"/>
        <pt x="401" y="963" on="1"/>
        <pt x="401" y="901" on="0"/>
        <pt x="494" y="824" on="0"/>
        <pt x="571" y="817" on="1"/>
      </contour>
      <contour>
        <pt x="872" y="365" on="1"/>
        <pt x="872" y="166" on="1"/>
        <pt x="956" y="168" on="0"/>
        <pt x="1038" y="219" on="0"/>
        <pt x="1038" y="274" on="1"/>
        <pt x="1038" y="324" on="0"/>
        <pt x="971" y="365" on="0"/>
        <pt x="899" y="365" on="1"/>
      </contour>
    </TTGlyph>
    <TTGlyph name="uni1255" xMin="72" yMin="0" xMax="1485" yMax="1726">
      <contour>
        <pt x="1022" y="0" on="1"/>
        <pt x="721" y="0" on="1"/>
        <pt x="721" y="195" on="1"/>
        <pt x="572" y="203" on="0"/>
        <pt x="366" y="300" on="0"/>
        <pt x="258" y="464" on="0"/>
        <pt x="258" y="571" on="1"/>
        <pt x="258" y="671" on="0"/>
        <pt x="368" y="831" on="0"/>
        <pt x="574" y="923" on="0"/>
        <pt x="721" y="930" on="1"/>
        <pt x="721" y="983" on="1"/>
        <pt x="453" y="1061" on="0"/>
        <pt x="453" y="1348" on="1"/>
        <pt x="453" y="1405" on="1"/>
        <pt x="338" y="1405" on="1"/>
        <pt x="316" y="1344" on="0"/>
        <pt x="190" y="1255" on="0"/>
        <pt x="121" y="1255" on="1"/>
        <pt x="72" y="1255" on="1"/>
        <pt x="127" y="1491" on="1"/>
        <pt x="72" y="1726" on="1"/>
        <pt x="121" y="1726" on="1"/>
        <pt x="190" y="1726" on="0"/>
        <pt x="317" y="1636" on="0"/>
        <pt x="338" y="1577" on="1"/>
        <pt x="856" y="1577" on="1"/>
        <pt x="878" y="1636" on="0"/>
        <pt x="1004" y="1726" on="0"/>
        <pt x="1073" y="1726" on="1"/>
        <pt x="1122" y="1726" on="1"/>
        <pt x="1067" y="1491" on="1"/>
        <pt x="1122" y="1255" on="1"/>
        <pt x="1073" y="1255" on="1"/>
        <pt x="1004" y="1255" on="0"/>
        <pt x="879" y="1343" on="0"/>
        <pt x="856" y="1405" on="1"/>
        <pt x="743" y="1405" on="1"/>
        <pt x="743" y="1360" on="1"/>
        <pt x="743" y="1249" on="0"/>
        <pt x="840" y="1157" on="0"/>
        <pt x="934" y="1157" on="1"/>
        <pt x="1022" y="1157" on="1"/>
        <pt x="1022" y="930" on="1"/>
        <pt x="1240" y="919" on="0"/>
        <pt x="1485" y="726" on="0"/>
        <pt x="1485" y="571" on="1"/>
        <pt x="1485" y="465" on="0"/>
        <pt x="1377" y="301" on="0"/>
        <pt x="1171" y="203" on="0"/>
        <pt x="1022" y="195" on="1"/>
      </contour>
      <contour>
        <pt x="1022" y="399" on="1"/>
        <pt x="1100" y="407" on="0"/>
        <pt x="1192" y="499" on="0"/>
        <pt x="1192" y="565" on="1"/>
        <pt x="1192" y="628" on="0"/>
        <pt x="1100" y="717" on="0"/>
        <pt x="1022" y="725" on="1"/>
      </contour>
      <contour>
        <pt x="721" y="725" on="1"/>
        <pt x="644" y="717" on="0"/>
        <pt x="551" y="629" on="0"/>
        <pt x="551" y="565" on="1"/>
        <pt x="551" y="499" on="0"/>
        <pt x="643" y="408" on="0"/>
        <pt x="721" y="399" on="1"/>
      </contour>
    </TTGlyph>
    <TTGlyph name="uni1256" xMin="92" yMin="0" xMax="1356" yMax="1767">
      <contour>
        <pt x="872" y="965" on="1"/>
        <pt x="1014" y="957" on="0"/>
        <pt x="1223" y="861" on="0"/>
        <pt x="1335" y="703" on="0"/>
        <pt x="1335" y="606" on="1"/>
        <pt x="1335" y="500" on="0"/>
        <pt x="1228" y="337" on="0"/>
        <pt x="1022" y="237" on="0"/>
        <pt x="872" y="229" on="1"/>
        <pt x="872" y="0" on="1"/>
        <pt x="571" y="0" on="1"/>
        <pt x="571" y="229" on="1"/>
        <pt x="354" y="241" on="0"/>
        <pt x="109" y="441" on="0"/>
        <pt x="109" y="606" on="1"/>
        <pt x="109" y="701" on="0"/>
        <pt x="221" y="858" on="0"/>
        <pt x="432" y="955" on="0"/>
        <pt x="571" y="963" on="1"/>
        <pt x="571" y="996" on="0"/>
        <pt x="590" y="1028" on="1"/>
        <pt x="536" y="1036" on="0"/>
        <pt x="431" y="1107" on="0"/>
        <pt x="369" y="1212" on="0"/>
        <pt x="369" y="1274" on="1"/>
        <pt x="369" y="1379" on="0"/>
        <pt x="434" y="1446" on="1"/>
        <pt x="358" y="1446" on="1"/>
        <pt x="337" y="1385" on="0"/>
        <pt x="211" y="1296" on="0"/>
        <pt x="141" y="1296" on="1"/>
        <pt x="92" y="1296" on="1"/>
        <pt x="147" y="1532" on="1"/>
        <pt x="92" y="1767" on="1"/>
        <pt x="141" y="1767" on="1"/>
        <pt x="210" y="1767" on="0"/>
        <pt x="335" y="1680" on="0"/>
        <pt x="358" y="1618" on="1"/>
        <pt x="1090" y="1618" on="1"/>
        <pt x="1108" y="1675" on="0"/>
        <pt x="1237" y="1767" on="0"/>
        <pt x="1307" y="1767" on="1"/>
        <pt x="1356" y="1767" on="1"/>
        <pt x="1300" y="1532" on="1"/>
        <pt x="1356" y="1296" on="1"/>
        <pt x="1307" y="1296" on="1"/>
        <pt x="1235" y="1296" on="0"/>
        <pt x="1107" y="1389" on="0"/>
        <pt x="1090" y="1446" on="1"/>
        <pt x="1022" y="1446" on="1"/>
        <pt x="1079" y="1383" on="0"/>
        <pt x="1079" y="1282" on="1"/>
        <pt x="1079" y="1210" on="0"/>
        <pt x="996" y="1080" on="0"/>
        <pt x="920" y="1038" on="1"/>
        <pt x="895" y="1026" on="0"/>
        <pt x="872" y="983" on="0"/>
      </contour>
      <contour>
        <pt x="725" y="1427" on="1"/>
        <pt x="673" y="1427" on="0"/>
        <pt x="610" y="1366" on="0"/>
        <pt x="610" y="1315" on="1"/>
        <pt x="610" y="1256" on="0"/>
        <pt x="668" y="1174" on="0"/>
        <pt x="731" y="1145" on="1"/>
        <pt x="838" y="1203" on="0"/>
        <pt x="838" y="1315" on="1"/>
        <pt x="838" y="1362" on="0"/>
        <pt x="776" y="1427" on="0"/>
      </contour>
      <contour>
        <pt x="872" y="434" on="1"/>
        <pt x="949" y="441" on="0"/>
        <pt x="1042" y="534" on="0"/>
        <pt x="1042" y="600" on="1"/>
        <pt x="1042" y="662" on="0"/>
        <pt x="950" y="752" on="0"/>
        <pt x="872" y="760" on="1"/>
      </contour>
      <contour>
        <pt x="571" y="760" on="1"/>
        <pt x="493" y="752" on="0"/>
        <pt x="401" y="662" on="0"/>
        <pt x="401" y="600" on="1"/>
        <pt x="401" y="534" on="0"/>
        <pt x="496" y="440" on="0"/>
        <pt x="571" y="434" on="1"/>
      </contour>
    </TTGlyph>
    <TTGlyph name="uni1258" xMin="109" yMin="-43" xMax="1718" yMax="1726">
      <contour>
        <pt x="246" y="1726" on="1"/>
        <pt x="315" y="1726" on="0"/>
        <pt x="442" y="1636" on="0"/>
        <pt x="463" y="1577" on="1"/>
        <pt x="981" y="1577" on="1"/>
        <pt x="999" y="1634" on="0"/>
        <pt x="1128" y="1726" on="0"/>
        <pt x="1198" y="1726" on="1"/>
        <pt x="1247" y="1726" on="1"/>
        <pt x="1192" y="1491" on="1"/>
        <pt x="1247" y="1255" on="1"/>
        <pt x="1198" y="1255" on="1"/>
        <pt x="1127" y="1255" on="0"/>
        <pt x="1000" y="1346" on="0"/>
        <pt x="981" y="1405" on="1"/>
        <pt x="872" y="1405" on="1"/>
        <pt x="872" y="1231" on="1"/>
        <pt x="1017" y="1225" on="0"/>
        <pt x="1224" y="1145" on="0"/>
        <pt x="1335" y="1008" on="0"/>
        <pt x="1335" y="920" on="1"/>
        <pt x="1335" y="827" on="0"/>
        <pt x="1227" y="683" on="0"/>
        <pt x="1020" y="597" on="0"/>
        <pt x="872" y="590" on="1"/>
        <pt x="872" y="438" on="1"/>
        <pt x="1022" y="438" on="1"/>
        <pt x="1115" y="547" on="0"/>
        <pt x="1343" y="547" on="1"/>
        <pt x="1525" y="547" on="0"/>
        <pt x="1718" y="401" on="0"/>
        <pt x="1718" y="262" on="1"/>
        <pt x="1718" y="121" on="0"/>
        <pt x="1519" y="-43" on="0"/>
        <pt x="1343" y="-43" on="1"/>
        <pt x="1170" y="-43" on="0"/>
        <pt x="967" y="121" on="0"/>
        <pt x="967" y="262" on="1"/>
        <pt x="967" y="266" on="1"/>
        <pt x="872" y="266" on="1"/>
        <pt x="872" y="0" on="1"/>
        <pt x="571" y="0" on="1"/>
        <pt x="571" y="590" on="1"/>
        <pt x="421" y="597" on="0"/>
        <pt x="215" y="682" on="0"/>
        <pt x="109" y="826" on="0"/>
        <pt x="109" y="920" on="1"/>
        <pt x="109" y="1007" on="0"/>
        <pt x="219" y="1145" on="0"/>
        <pt x="425" y="1225" on="0"/>
        <pt x="571" y="1231" on="1"/>
        <pt x="571" y="1405" on="1"/>
        <pt x="463" y="1405" on="1"/>
        <pt x="441" y="1344" on="0"/>
        <pt x="315" y="1255" on="0"/>
        <pt x="246" y="1255" on="1"/>
        <pt x="197" y="1255" on="1"/>
        <pt x="252" y="1491" on="1"/>
        <pt x="197" y="1726" on="1"/>
      </contour>
      <contour>
        <pt x="1343" y="383" on="1"/>
        <pt x="1290" y="383" on="0"/>
        <pt x="1229" y="320" on="0"/>
        <pt x="1229" y="262" on="1"/>
        <pt x="1229" y="199" on="0"/>
        <pt x="1290" y="121" on="0"/>
        <pt x="1343" y="121" on="1"/>
        <pt x="1396" y="121" on="0"/>
        <pt x="1456" y="200" on="0"/>
        <pt x="1456" y="262" on="1"/>
        <pt x="1456" y="318" on="0"/>
        <pt x="1397" y="383" on="0"/>
      </contour>
      <contour>
        <pt x="872" y="764" on="1"/>
        <pt x="950" y="771" on="0"/>
        <pt x="1042" y="854" on="0"/>
        <pt x="1042" y="913" on="1"/>
        <pt x="1042" y="970" on="0"/>
        <pt x="949" y="1051" on="0"/>
        <pt x="872" y="1057" on="1"/>
      </contour>
      <contour>
        <pt x="571" y="1057" on="1"/>
        <pt x="494" y="1051" on="0"/>
        <pt x="401" y="969" on="0"/>
        <pt x="401" y="913" on="1"/>
        <pt x="401" y="854" on="0"/>
        <pt x="493" y="771" on="0"/>
        <pt x="571" y="764" on="1"/>
      </contour>
    </TTGlyph>
    <TTGlyph name="uni125A" xMin="109" yMin="0" xMax="1948" yMax="1726">
      <contour>
        <pt x="1374" y="674" on="1"/>
        <pt x="1315" y="674" on="1"/>
        <pt x="1270" y="555" on="0"/>
        <pt x="1041" y="425" on="0"/>
        <pt x="872" y="416" on="1"/>
        <pt x="872" y="0" on="1"/>
        <pt x="571" y="0" on="1"/>
        <pt x="571" y="416" on="1"/>
        <pt x="422" y="424" on="0"/>
        <pt x="217" y="521" on="0"/>
        <pt x="109" y="686" on="0"/>
        <pt x="109" y="793" on="1"/>
        <pt x="109" y="894" on="0"/>
        <pt x="220" y="1053" on="0"/>
        <pt x="429" y="1146" on="0"/>
        <pt x="571" y="1151" on="1"/>
        <pt x="571" y="1405" on="1"/>
        <pt x="463" y="1405" on="1"/>
        <pt x="441" y="1344" on="0"/>
        <pt x="315" y="1255" on="0"/>
        <pt x="246" y="1255" on="1"/>
        <pt x="197" y="1255" on="1"/>
        <pt x="252" y="1491" on="1"/>
        <pt x="197" y="1726" on="1"/>
        <pt x="246" y="1726" on="1"/>
        <pt x="315" y="1726" on="0"/>
        <pt x="442" y="1636" on="0"/>
        <pt x="463" y="1577" on="1"/>
        <pt x="981" y="1577" on="1"/>
        <pt x="999" y="1634" on="0"/>
        <pt x="1128" y="1726" on="0"/>
        <pt x="1198" y="1726" on="1"/>
        <pt x="1247" y="1726" on="1"/>
        <pt x="1192" y="1491" on="1"/>
        <pt x="1247" y="1255" on="1"/>
        <pt x="1198" y="1255" on="1"/>
        <pt x="1127" y="1255" on="0"/>
        <pt x="1000" y="1346" on="0"/>
        <pt x="981" y="1405" on="1"/>
        <pt x="872" y="1405" on="1"/>
        <pt x="872" y="1151" on="1"/>
        <pt x="1043" y="1142" on="0"/>
        <pt x="1273" y="1016" on="0"/>
        <pt x="1315" y="903" on="1"/>
        <pt x="1374" y="903" on="1"/>
        <pt x="1374" y="1063" on="1"/>
        <pt x="1665" y="1063" on="1"/>
        <pt x="1665" y="741" on="1"/>
        <pt x="1876" y="741" on="1"/>
        <pt x="1948" y="348" on="1"/>
        <pt x="1898" y="348" on="1"/>
        <pt x="1809" y="348" on="0"/>
        <pt x="1685" y="437" on="0"/>
        <pt x="1665" y="512" on="1"/>
        <pt x="1374" y="512" on="1"/>
      </contour>
      <contour>
        <pt x="872" y="621" on="1"/>
        <pt x="948" y="628" on="0"/>
        <pt x="1042" y="719" on="0"/>
        <pt x="1042" y="786" on="1"/>
        <pt x="1042" y="849" on="0"/>
        <pt x="950" y="938" on="0"/>
        <pt x="872" y="946" on="1"/>
      </contour>
      <contour>
        <pt x="571" y="946" on="1"/>
        <pt x="494" y="938" on="0"/>
        <pt x="401" y="850" on="0"/>
        <pt x="401" y="786" on="1"/>
        <pt x="401" y="719" on="0"/>
        <pt x="497" y="627" on="0"/>
        <pt x="571" y="621" on="1"/>
      </contour>
    </TTGlyph>
    <TTGlyph name="uni125B" xMin="109" yMin="0" xMax="1335" yMax="1726">
      <contour>
        <pt x="246" y="1726" on="1"/>
        <pt x="315" y="1726" on="0"/>
        <pt x="442" y="1636" on="0"/>
        <pt x="463" y="1577" on="1"/>
        <pt x="981" y="1577" on="1"/>
        <pt x="999" y="1634" on="0"/>
        <pt x="1128" y="1726" on="0"/>
        <pt x="1198" y="1726" on="1"/>
        <pt x="1247" y="1726" on="1"/>
        <pt x="1192" y="1491" on="1"/>
        <pt x="1247" y="1255" on="1"/>
        <pt x="1198" y="1255" on="1"/>
        <pt x="1127" y="1255" on="0"/>
        <pt x="1000" y="1346" on="0"/>
        <pt x="981" y="1405" on="1"/>
        <pt x="872" y="1405" on="1"/>
        <pt x="872" y="1247" on="1"/>
        <pt x="1089" y="1238" on="0"/>
        <pt x="1335" y="1059" on="0"/>
        <pt x="1335" y="909" on="1"/>
        <pt x="1335" y="750" on="0"/>
        <pt x="1091" y="564" on="0"/>
        <pt x="872" y="553" on="1"/>
        <pt x="872" y="430" on="1"/>
        <pt x="1235" y="430" on="1"/>
        <pt x="1235" y="0" on="1"/>
        <pt x="944" y="0" on="1"/>
        <pt x="944" y="225" on="1"/>
        <pt x="479" y="225" on="1"/>
        <pt x="458" y="162" on="0"/>
        <pt x="332" y="82" on="0"/>
        <pt x="246" y="82" on="1"/>
        <pt x="197" y="82" on="1"/>
        <pt x="268" y="430" on="1"/>
        <pt x="571" y="430" on="1"/>
        <pt x="571" y="553" on="1"/>
        <pt x="350" y="565" on="0"/>
        <pt x="109" y="749" on="0"/>
        <pt x="109" y="909" on="1"/>
        <pt x="109" y="1059" on="0"/>
        <pt x="353" y="1238" on="0"/>
        <pt x="571" y="1247" on="1"/>
        <pt x="571" y="1405" on="1"/>
        <pt x="463" y="1405" on="1"/>
        <pt x="441" y="1344" on="0"/>
        <pt x="315" y="1255" on="0"/>
        <pt x="246" y="1255" on="1"/>
        <pt x="197" y="1255" on="1"/>
        <pt x="252" y="1491" on="1"/>
        <pt x="197" y="1726" on="1"/>
      </contour>
      <contour>
        <pt x="872" y="758" on="1"/>
        <pt x="951" y="765" on="0"/>
        <pt x="1042" y="842" on="0"/>
        <pt x="1042" y="903" on="1"/>
        <pt x="1042" y="960" on="0"/>
        <pt x="954" y="1034" on="0"/>
        <pt x="872" y="1042" on="1"/>
      </contour>
      <contour>
        <pt x="571" y="1042" on="1"/>
        <pt x="489" y="1033" on="0"/>
        <pt x="401" y="960" on="0"/>
        <pt x="401" y="903" on="1"/>
        <pt x="401" y="842" on="0"/>
        <pt x="494" y="765" on="0"/>
        <pt x="571" y="758" on="1"/>
      </contour>
    </TTGlyph>
    <TTGlyph name="uni125C" xMin="109" yMin="-143" xMax="1335" yMax="1767">
      <contour>
        <pt x="571" y="643" on="1"/>
        <pt x="349" y="653" on="0"/>
        <pt x="109" y="822" on="0"/>
        <pt x="109" y="969" on="1"/>
        <pt x="109" y="1104" on="0"/>
        <pt x="349" y="1267" on="0"/>
        <pt x="571" y="1276" on="1"/>
        <pt x="571" y="1446" on="1"/>
        <pt x="463" y="1446" on="1"/>
        <pt x="442" y="1387" on="0"/>
        <pt x="316" y="1296" on="0"/>
        <pt x="246" y="1296" on="1"/>
        <pt x="197" y="1296" on="1"/>
        <pt x="252" y="1532" on="1"/>
        <pt x="197" y="1767" on="1"/>
        <pt x="246" y="1767" on="1"/>
        <pt x="315" y="1767" on="0"/>
        <pt x="442" y="1677" on="0"/>
        <pt x="463" y="1618" on="1"/>
        <pt x="981" y="1618" on="1"/>
        <pt x="999" y="1675" on="0"/>
        <pt x="1128" y="1767" on="0"/>
        <pt x="1198" y="1767" on="1"/>
        <pt x="1247" y="1767" on="1"/>
        <pt x="1192" y="1532" on="1"/>
        <pt x="1247" y="1296" on="1"/>
        <pt x="1198" y="1296" on="1"/>
        <pt x="1126" y="1296" on="0"/>
        <pt x="998" y="1389" on="0"/>
        <pt x="981" y="1446" on="1"/>
        <pt x="872" y="1446" on="1"/>
        <pt x="872" y="1276" on="1"/>
        <pt x="1093" y="1267" on="0"/>
        <pt x="1335" y="1104" on="0"/>
        <pt x="1335" y="969" on="1"/>
        <pt x="1335" y="823" on="0"/>
        <pt x="1093" y="653" on="0"/>
        <pt x="872" y="643" on="1"/>
        <pt x="872" y="530" on="1"/>
        <pt x="963" y="530" on="1"/>
        <pt x="1128" y="530" on="0"/>
        <pt x="1303" y="397" on="0"/>
        <pt x="1303" y="270" on="1"/>
        <pt x="1303" y="142" on="0"/>
        <pt x="1093" y="0" on="0"/>
        <pt x="905" y="0" on="1"/>
        <pt x="479" y="0" on="1"/>
        <pt x="458" y="-63" on="0"/>
        <pt x="332" y="-143" on="0"/>
        <pt x="246" y="-143" on="1"/>
        <pt x="197" y="-143" on="1"/>
        <pt x="268" y="184" on="1"/>
        <pt x="571" y="184" on="1"/>
      </contour>
      <contour>
        <pt x="872" y="817" on="1"/>
        <pt x="951" y="824" on="0"/>
        <pt x="1042" y="901" on="0"/>
        <pt x="1042" y="963" on="1"/>
        <pt x="1042" y="1020" on="0"/>
        <pt x="954" y="1094" on="0"/>
        <pt x="872" y="1102" on="1"/>
      </contour>
      <contour>
        <pt x="571" y="1102" on="1"/>
        <pt x="489" y="1093" on="0"/>
        <pt x="401" y="1020" on="0"/>
        <pt x="401" y="963" on="1"/>
        <pt x="401" y="901" on="0"/>
        <pt x="494" y="824" on="0"/>
        <pt x="571" y="817" on="1"/>
      </contour>
      <contour>
        <pt x="872" y="365" on="1"/>
        <pt x="872" y="166" on="1"/>
        <pt x="956" y="168" on="0"/>
        <pt x="1038" y="219" on="0"/>
        <pt x="1038" y="274" on="1"/>
        <pt x="1038" y="324" on="0"/>
        <pt x="971" y="365" on="0"/>
        <pt x="899" y="365" on="1"/>
      </contour>
    </TTGlyph>
    <TTGlyph name="uni125D" xMin="109" yMin="0" xMax="1948" yMax="1767">
      <contour>
        <pt x="246" y="1767" on="1"/>
        <pt x="315" y="1767" on="0"/>
        <pt x="442" y="1677" on="0"/>
        <pt x="463" y="1618" on="1"/>
        <pt x="981" y="1618" on="1"/>
        <pt x="999" y="1675" on="0"/>
        <pt x="1128" y="1767" on="0"/>
        <pt x="1198" y="1767" on="1"/>
        <pt x="1247" y="1767" on="1"/>
        <pt x="1192" y="1532" on="1"/>
        <pt x="1247" y="1296" on="1"/>
        <pt x="1198" y="1296" on="1"/>
        <pt x="1126" y="1296" on="0"/>
        <pt x="998" y="1389" on="0"/>
        <pt x="981" y="1446" on="1"/>
        <pt x="872" y="1446" on="1"/>
        <pt x="872" y="1151" on="1"/>
        <pt x="1043" y="1142" on="0"/>
        <pt x="1273" y="1016" on="0"/>
        <pt x="1315" y="903" on="1"/>
        <pt x="1374" y="903" on="1"/>
        <pt x="1374" y="1190" on="1"/>
        <pt x="1665" y="1190" on="1"/>
        <pt x="1665" y="903" on="1"/>
        <pt x="1876" y="903" on="1"/>
        <pt x="1948" y="510" on="1"/>
        <pt x="1898" y="510" on="1"/>
        <pt x="1809" y="510" on="0"/>
        <pt x="1685" y="598" on="0"/>
        <pt x="1665" y="674" on="1"/>
        <pt x="1315" y="674" on="1"/>
        <pt x="1270" y="555" on="0"/>
        <pt x="1041" y="425" on="0"/>
        <pt x="872" y="416" on="1"/>
        <pt x="872" y="0" on="1"/>
        <pt x="571" y="0" on="1"/>
        <pt x="571" y="416" on="1"/>
        <pt x="422" y="424" on="0"/>
        <pt x="217" y="521" on="0"/>
        <pt x="109" y="686" on="0"/>
        <pt x="109" y="793" on="1"/>
        <pt x="109" y="894" on="0"/>
        <pt x="220" y="1053" on="0"/>
        <pt x="429" y="1146" on="0"/>
        <pt x="571" y="1151" on="1"/>
        <pt x="571" y="1446" on="1"/>
        <pt x="463" y="1446" on="1"/>
        <pt x="442" y="1387" on="0"/>
        <pt x="316" y="1296" on="0"/>
        <pt x="246" y="1296" on="1"/>
        <pt x="197" y="1296" on="1"/>
        <pt x="252" y="1532" on="1"/>
        <pt x="197" y="1767" on="1"/>
      </contour>
      <contour>
        <pt x="872" y="621" on="1"/>
        <pt x="948" y="628" on="0"/>
        <pt x="1042" y="719" on="0"/>
        <pt x="1042" y="786" on="1"/>
        <pt x="1042" y="849" on="0"/>
        <pt x="950" y="938" on="0"/>
        <pt x="872" y="946" on="1"/>
      </contour>
      <contour>
        <pt x="571" y="946" on="1"/>
        <pt x="494" y="938" on="0"/>
        <pt x="401" y="850" on="0"/>
        <pt x="401" y="786" on="1"/>
        <pt x="401" y="719" on="0"/>
        <pt x="497" y="627" on="0"/>
        <pt x="571" y="621" on="1"/>
      </contour>
    </TTGlyph>
    <TTGlyph name="uni1260" xMin="170" yMin="0" xMax="1118" yMax="1483">
      <contour>
        <pt x="170" y="0" on="1"/>
        <pt x="170" y="944" on="1"/>
        <pt x="170" y="1206" on="0"/>
        <pt x="418" y="1483" on="0"/>
        <pt x="649" y="1483" on="1"/>
        <pt x="879" y="1483" on="0"/>
        <pt x="1118" y="1203" on="0"/>
        <pt x="1118" y="940" on="1"/>
        <pt x="1118" y="0" on="1"/>
        <pt x="815" y="0" on="1"/>
        <pt x="815" y="950" on="1"/>
        <pt x="815" y="1096" on="0"/>
        <pt x="730" y="1231" on="0"/>
        <pt x="641" y="1231" on="1"/>
        <pt x="556" y="1231" on="0"/>
        <pt x="473" y="1095" on="0"/>
        <pt x="473" y="948" on="1"/>
        <pt x="473" y="0" on="1"/>
      </contour>
    </TTGlyph>
    <TTGlyph name="uni1261" xMin="170" yMin="0" xMax="1526" yMax="1483">
      <contour>
        <pt x="1118" y="758" on="1"/>
        <pt x="1454" y="758" on="1"/>
        <pt x="1526" y="365" on="1"/>
        <pt x="1477" y="365" on="1"/>
        <pt x="1388" y="365" on="0"/>
        <pt x="1263" y="453" on="0"/>
        <pt x="1243" y="528" on="1"/>
        <pt x="1118" y="528" on="1"/>
        <pt x="1118" y="0" on="1"/>
        <pt x="815" y="0" on="1"/>
        <pt x="815" y="950" on="1"/>
        <pt x="815" y="1096" on="0"/>
        <pt x="730" y="1231" on="0"/>
        <pt x="641" y="1231" on="1"/>
        <pt x="556" y="1231" on="0"/>
        <pt x="473" y="1095" on="0"/>
        <pt x="473" y="948" on="1"/>
        <pt x="473" y="0" on="1"/>
        <pt x="170" y="0" on="1"/>
        <pt x="170" y="944" on="1"/>
        <pt x="170" y="1206" on="0"/>
        <pt x="418" y="1483" on="0"/>
        <pt x="649" y="1483" on="1"/>
        <pt x="879" y="1483" on="0"/>
        <pt x="1118" y="1203" on="0"/>
        <pt x="1118" y="940" on="1"/>
      </contour>
    </TTGlyph>
    <TTGlyph name="uni1262" xMin="170" yMin="-131" xMax="1503" yMax="1483">
      <contour>
        <pt x="170" y="0" on="1"/>
        <pt x="170" y="944" on="1"/>
        <pt x="170" y="1206" on="0"/>
        <pt x="418" y="1483" on="0"/>
        <pt x="649" y="1483" on="1"/>
        <pt x="879" y="1483" on="0"/>
        <pt x="1118" y="1203" on="0"/>
        <pt x="1118" y="940" on="1"/>
        <pt x="1118" y="229" on="1"/>
        <pt x="1237" y="229" on="1"/>
        <pt x="1254" y="282" on="0"/>
        <pt x="1381" y="360" on="0"/>
        <pt x="1454" y="360" on="1"/>
        <pt x="1503" y="360" on="1"/>
        <pt x="1448" y="115" on="1"/>
        <pt x="1503" y="-131" on="1"/>
        <pt x="1454" y="-131" on="1"/>
        <pt x="1379" y="-131" on="0"/>
        <pt x="1254" y="-53" on="0"/>
        <pt x="1237" y="0" on="1"/>
        <pt x="815" y="0" on="1"/>
        <pt x="815" y="950" on="1"/>
        <pt x="815" y="1096" on="0"/>
        <pt x="730" y="1231" on="0"/>
        <pt x="641" y="1231" on="1"/>
        <pt x="556" y="1231" on="0"/>
        <pt x="473" y="1095" on="0"/>
        <pt x="473" y="948" on="1"/>
        <pt x="473" y="0" on="1"/>
      </contour>
    </TTGlyph>
    <TTGlyph name="uni1263" xMin="150" yMin="0" xMax="1098" yMax="1483">
      <contour>
        <pt x="150" y="485" on="1"/>
        <pt x="150" y="944" on="1"/>
        <pt x="150" y="1206" on="0"/>
        <pt x="398" y="1483" on="0"/>
        <pt x="629" y="1483" on="1"/>
        <pt x="859" y="1483" on="0"/>
        <pt x="1098" y="1203" on="0"/>
        <pt x="1098" y="940" on="1"/>
        <pt x="1098" y="0" on="1"/>
        <pt x="795" y="0" on="1"/>
        <pt x="795" y="950" on="1"/>
        <pt x="795" y="1096" on="0"/>
        <pt x="710" y="1231" on="0"/>
        <pt x="621" y="1231" on="1"/>
        <pt x="537" y="1231" on="0"/>
        <pt x="453" y="1098" on="0"/>
        <pt x="453" y="948" on="1"/>
        <pt x="453" y="485" on="1"/>
      </contour>
    </TTGlyph>
    <TTGlyph name="uni1264" xMin="170" yMin="0" xMax="1649" yMax="1483">
      <contour>
        <pt x="170" y="0" on="1"/>
        <pt x="170" y="944" on="1"/>
        <pt x="170" y="1206" on="0"/>
        <pt x="418" y="1483" on="0"/>
        <pt x="649" y="1483" on="1"/>
        <pt x="879" y="1483" on="0"/>
        <pt x="1118" y="1203" on="0"/>
        <pt x="1118" y="940" on="1"/>
        <pt x="1118" y="643" on="1"/>
        <pt x="1249" y="643" on="1"/>
        <pt x="1444" y="643" on="0"/>
        <pt x="1649" y="484" on="0"/>
        <pt x="1649" y="336" on="1"/>
        <pt x="1649" y="180" on="0"/>
        <pt x="1405" y="0" on="0"/>
        <pt x="1194" y="0" on="1"/>
        <pt x="815" y="0" on="1"/>
        <pt x="815" y="950" on="1"/>
        <pt x="815" y="1096" on="0"/>
        <pt x="730" y="1231" on="0"/>
        <pt x="641" y="1231" on="1"/>
        <pt x="556" y="1231" on="0"/>
        <pt x="473" y="1095" on="0"/>
        <pt x="473" y="948" on="1"/>
        <pt x="473" y="0" on="1"/>
      </contour>
      <contour>
        <pt x="1118" y="440" on="1"/>
        <pt x="1118" y="203" on="1"/>
        <pt x="1139" y="203" on="1"/>
        <pt x="1245" y="203" on="0"/>
        <pt x="1350" y="264" on="0"/>
        <pt x="1350" y="334" on="1"/>
        <pt x="1350" y="394" on="0"/>
        <pt x="1265" y="440" on="0"/>
        <pt x="1186" y="440" on="1"/>
      </contour>
    </TTGlyph>
    <TTGlyph name="uni1265" xMin="72" yMin="0" xMax="1427" yMax="1483">
      <contour>
        <pt x="479" y="768" on="1"/>
        <pt x="479" y="944" on="1"/>
        <pt x="479" y="1206" on="0"/>
        <pt x="727" y="1483" on="0"/>
        <pt x="958" y="1483" on="1"/>
        <pt x="1188" y="1483" on="0"/>
        <pt x="1427" y="1203" on="0"/>
        <pt x="1427" y="940" on="1"/>
        <pt x="1427" y="0" on="1"/>
        <pt x="1124" y="0" on="1"/>
        <pt x="1124" y="950" on="1"/>
        <pt x="1124" y="1096" on="0"/>
        <pt x="1039" y="1231" on="0"/>
        <pt x="950" y="1231" on="1"/>
        <pt x="865" y="1231" on="0"/>
        <pt x="782" y="1095" on="0"/>
        <pt x="782" y="948" on="1"/>
        <pt x="782" y="0" on="1"/>
        <pt x="479" y="0" on="1"/>
        <pt x="479" y="539" on="1"/>
        <pt x="354" y="539" on="1"/>
        <pt x="334" y="463" on="0"/>
        <pt x="211" y="375" on="0"/>
        <pt x="121" y="375" on="1"/>
        <pt x="72" y="375" on="1"/>
        <pt x="143" y="768" on="1"/>
      </contour>
    </TTGlyph>
    <TTGlyph name="uni1266" xMin="170" yMin="0" xMax="1118" yMax="1483">
      <contour>
        <pt x="170" y="0" on="1"/>
        <pt x="170" y="944" on="1"/>
        <pt x="170" y="1206" on="0"/>
        <pt x="418" y="1483" on="0"/>
        <pt x="649" y="1483" on="1"/>
        <pt x="879" y="1483" on="0"/>
        <pt x="1118" y="1203" on="0"/>
        <pt x="1118" y="940" on="1"/>
        <pt x="1118" y="485" on="1"/>
        <pt x="815" y="485" on="1"/>
        <pt x="815" y="950" on="1"/>
        <pt x="815" y="1096" on="0"/>
        <pt x="730" y="1231" on="0"/>
        <pt x="641" y="1231" on="1"/>
        <pt x="556" y="1231" on="0"/>
        <pt x="473" y="1095" on="0"/>
        <pt x="473" y="948" on="1"/>
        <pt x="473" y="0" on="1"/>
      </contour>
    </TTGlyph>
    <TTGlyph name="uni1267" xMin="98" yMin="-164" xMax="1393" yMax="1483">
      <contour>
        <pt x="795" y="229" on="1"/>
        <pt x="795" y="950" on="1"/>
        <pt x="795" y="1096" on="0"/>
        <pt x="710" y="1231" on="0"/>
        <pt x="621" y="1231" on="1"/>
        <pt x="537" y="1231" on="0"/>
        <pt x="453" y="1098" on="0"/>
        <pt x="453" y="948" on="1"/>
        <pt x="453" y="487" on="1"/>
        <pt x="150" y="487" on="1"/>
        <pt x="150" y="944" on="1"/>
        <pt x="150" y="1206" on="0"/>
        <pt x="398" y="1483" on="0"/>
        <pt x="629" y="1483" on="1"/>
        <pt x="859" y="1483" on="0"/>
        <pt x="1098" y="1203" on="0"/>
        <pt x="1098" y="940" on="1"/>
        <pt x="1098" y="229" on="1"/>
        <pt x="1321" y="229" on="1"/>
        <pt x="1393" y="-164" on="1"/>
        <pt x="1343" y="-164" on="1"/>
        <pt x="1254" y="-164" on="0"/>
        <pt x="1130" y="-75" on="0"/>
        <pt x="1110" y="0" on="1"/>
        <pt x="381" y="0" on="1"/>
        <pt x="361" y="-75" on="0"/>
        <pt x="236" y="-164" on="0"/>
        <pt x="147" y="-164" on="1"/>
        <pt x="98" y="-164" on="1"/>
        <pt x="170" y="229" on="1"/>
      </contour>
    </TTGlyph>
    <TTGlyph name="uni1268" xMin="115" yMin="0" xMax="1174" yMax="1726">
      <contour>
        <pt x="170" y="0" on="1"/>
        <pt x="170" y="694" on="1"/>
        <pt x="170" y="956" on="0"/>
        <pt x="418" y="1233" on="0"/>
        <pt x="649" y="1233" on="1"/>
        <pt x="879" y="1233" on="0"/>
        <pt x="1118" y="953" on="0"/>
        <pt x="1118" y="690" on="1"/>
        <pt x="1118" y="0" on="1"/>
        <pt x="815" y="0" on="1"/>
        <pt x="815" y="700" on="1"/>
        <pt x="815" y="847" on="0"/>
        <pt x="730" y="981" on="0"/>
        <pt x="641" y="981" on="1"/>
        <pt x="556" y="981" on="0"/>
        <pt x="473" y="845" on="0"/>
        <pt x="473" y="698" on="1"/>
        <pt x="473" y="0" on="1"/>
      </contour>
      <contour>
        <pt x="164" y="1726" on="1"/>
        <pt x="233" y="1726" on="0"/>
        <pt x="360" y="1636" on="0"/>
        <pt x="381" y="1577" on="1"/>
        <pt x="907" y="1577" on="1"/>
        <pt x="929" y="1636" on="0"/>
        <pt x="1055" y="1726" on="0"/>
        <pt x="1124" y="1726" on="1"/>
        <pt x="1174" y="1726" on="1"/>
        <pt x="1118" y="1475" on="1"/>
        <pt x="1174" y="1223" on="1"/>
        <pt x="1124" y="1223" on="1"/>
        <pt x="1055" y="1223" on="0"/>
        <pt x="928" y="1313" on="0"/>
        <pt x="907" y="1372" on="1"/>
        <pt x="381" y="1372" on="1"/>
        <pt x="359" y="1313" on="0"/>
        <pt x="233" y="1223" on="0"/>
        <pt x="164" y="1223" on="1"/>
        <pt x="115" y="1223" on="1"/>
        <pt x="170" y="1475" on="1"/>
        <pt x="115" y="1726" on="1"/>
      </contour>
    </TTGlyph>
    <TTGlyph name="uni1269" xMin="115" yMin="0" xMax="1526" yMax="1726">
      <contour>
        <pt x="1118" y="662" on="1"/>
        <pt x="1454" y="662" on="1"/>
        <pt x="1526" y="268" on="1"/>
        <pt x="1477" y="268" on="1"/>
        <pt x="1388" y="268" on="0"/>
        <pt x="1263" y="357" on="0"/>
        <pt x="1243" y="432" on="1"/>
        <pt x="1118" y="432" on="1"/>
        <pt x="1118" y="0" on="1"/>
        <pt x="815" y="0" on="1"/>
        <pt x="815" y="700" on="1"/>
        <pt x="815" y="847" on="0"/>
        <pt x="730" y="981" on="0"/>
        <pt x="641" y="981" on="1"/>
        <pt x="556" y="981" on="0"/>
        <pt x="473" y="845" on="0"/>
        <pt x="473" y="698" on="1"/>
        <pt x="473" y="0" on="1"/>
        <pt x="170" y="0" on="1"/>
        <pt x="170" y="694" on="1"/>
        <pt x="170" y="956" on="0"/>
        <pt x="418" y="1233" on="0"/>
        <pt x="649" y="1233" on="1"/>
        <pt x="879" y="1233" on="0"/>
        <pt x="1118" y="953" on="0"/>
        <pt x="1118" y="690" on="1"/>
      </contour>
      <contour>
        <pt x="164" y="1726" on="1"/>
        <pt x="233" y="1726" on="0"/>
        <pt x="360" y="1636" on="0"/>
        <pt x="381" y="1577" on="1"/>
        <pt x="907" y="1577" on="1"/>
        <pt x="929" y="1636" on="0"/>
        <pt x="1055" y="1726" on="0"/>
        <pt x="1124" y="1726" on="1"/>
        <pt x="1174" y="1726" on="1"/>
        <pt x="1118" y="1475" on="1"/>
        <pt x="1174" y="1223" on="1"/>
        <pt x="1124" y="1223" on="1"/>
        <pt x="1055" y="1223" on="0"/>
        <pt x="928" y="1313" on="0"/>
        <pt x="907" y="1372" on="1"/>
        <pt x="381" y="1372" on="1"/>
        <pt x="359" y="1313" on="0"/>
        <pt x="233" y="1223" on="0"/>
        <pt x="164" y="1223" on="1"/>
        <pt x="115" y="1223" on="1"/>
        <pt x="170" y="1475" on="1"/>
        <pt x="115" y="1726" on="1"/>
      </contour>
    </TTGlyph>
    <TTGlyph name="uni126A" xMin="115" yMin="-131" xMax="1503" yMax="1726">
      <contour>
        <pt x="170" y="0" on="1"/>
        <pt x="170" y="694" on="1"/>
        <pt x="170" y="956" on="0"/>
        <pt x="418" y="1233" on="0"/>
        <pt x="649" y="1233" on="1"/>
        <pt x="879" y="1233" on="0"/>
        <pt x="1118" y="953" on="0"/>
        <pt x="1118" y="690" on="1"/>
        <pt x="1118" y="229" on="1"/>
        <pt x="1237" y="229" on="1"/>
        <pt x="1254" y="282" on="0"/>
        <pt x="1381" y="360" on="0"/>
        <pt x="1454" y="360" on="1"/>
        <pt x="1503" y="360" on="1"/>
        <pt x="1448" y="115" on="1"/>
        <pt x="1503" y="-131" on="1"/>
        <pt x="1454" y="-131" on="1"/>
        <pt x="1379" y="-131" on="0"/>
        <pt x="1254" y="-53" on="0"/>
        <pt x="1237" y="0" on="1"/>
        <pt x="815" y="0" on="1"/>
        <pt x="815" y="700" on="1"/>
        <pt x="815" y="847" on="0"/>
        <pt x="730" y="981" on="0"/>
        <pt x="641" y="981" on="1"/>
        <pt x="556" y="981" on="0"/>
        <pt x="473" y="845" on="0"/>
        <pt x="473" y="698" on="1"/>
        <pt x="473" y="0" on="1"/>
      </contour>
      <contour>
        <pt x="164" y="1726" on="1"/>
        <pt x="233" y="1726" on="0"/>
        <pt x="360" y="1636" on="0"/>
        <pt x="381" y="1577" on="1"/>
        <pt x="907" y="1577" on="1"/>
        <pt x="929" y="1636" on="0"/>
        <pt x="1055" y="1726" on="0"/>
        <pt x="1124" y="1726" on="1"/>
        <pt x="1174" y="1726" on="1"/>
        <pt x="1118" y="1475" on="1"/>
        <pt x="1174" y="1223" on="1"/>
        <pt x="1124" y="1223" on="1"/>
        <pt x="1055" y="1223" on="0"/>
        <pt x="928" y="1313" on="0"/>
        <pt x="907" y="1372" on="1"/>
        <pt x="381" y="1372" on="1"/>
        <pt x="359" y="1313" on="0"/>
        <pt x="233" y="1223" on="0"/>
        <pt x="164" y="1223" on="1"/>
        <pt x="115" y="1223" on="1"/>
        <pt x="170" y="1475" on="1"/>
        <pt x="115" y="1726" on="1"/>
      </contour>
    </TTGlyph>
    <TTGlyph name="uni126B" xMin="94" yMin="0" xMax="1153" yMax="1726">
      <contour>
        <pt x="150" y="485" on="1"/>
        <pt x="150" y="694" on="1"/>
        <pt x="150" y="956" on="0"/>
        <pt x="398" y="1233" on="0"/>
        <pt x="629" y="1233" on="1"/>
        <pt x="859" y="1233" on="0"/>
        <pt x="1098" y="953" on="0"/>
        <pt x="1098" y="690" on="1"/>
        <pt x="1098" y="0" on="1"/>
        <pt x="795" y="0" on="1"/>
        <pt x="795" y="700" on="1"/>
        <pt x="795" y="847" on="0"/>
        <pt x="710" y="981" on="0"/>
        <pt x="621" y="981" on="1"/>
        <pt x="537" y="981" on="0"/>
        <pt x="453" y="848" on="0"/>
        <pt x="453" y="698" on="1"/>
        <pt x="453" y="485" on="1"/>
      </contour>
      <contour>
        <pt x="143" y="1726" on="1"/>
        <pt x="212" y="1726" on="0"/>
        <pt x="337" y="1639" on="0"/>
        <pt x="360" y="1577" on="1"/>
        <pt x="887" y="1577" on="1"/>
        <pt x="905" y="1634" on="0"/>
        <pt x="1034" y="1726" on="0"/>
        <pt x="1104" y="1726" on="1"/>
        <pt x="1153" y="1726" on="1"/>
        <pt x="1098" y="1475" on="1"/>
        <pt x="1153" y="1223" on="1"/>
        <pt x="1104" y="1223" on="1"/>
        <pt x="1056" y="1223" on="0"/>
        <pt x="966" y="1266" on="0"/>
        <pt x="899" y="1336" on="0"/>
        <pt x="887" y="1372" on="1"/>
        <pt x="360" y="1372" on="1"/>
        <pt x="338" y="1311" on="0"/>
        <pt x="212" y="1223" on="0"/>
        <pt x="143" y="1223" on="1"/>
        <pt x="94" y="1223" on="1"/>
        <pt x="150" y="1475" on="1"/>
        <pt x="94" y="1726" on="1"/>
      </contour>
    </TTGlyph>
    <TTGlyph name="uni126C" xMin="115" yMin="0" xMax="1649" yMax="1726">
      <contour>
        <pt x="815" y="700" on="1"/>
        <pt x="815" y="847" on="0"/>
        <pt x="730" y="981" on="0"/>
        <pt x="641" y="981" on="1"/>
        <pt x="556" y="981" on="0"/>
        <pt x="473" y="845" on="0"/>
        <pt x="473" y="698" on="1"/>
        <pt x="473" y="0" on="1"/>
        <pt x="170" y="0" on="1"/>
        <pt x="170" y="694" on="1"/>
        <pt x="170" y="956" on="0"/>
        <pt x="418" y="1233" on="0"/>
        <pt x="649" y="1233" on="1"/>
        <pt x="879" y="1233" on="0"/>
        <pt x="1118" y="953" on="0"/>
        <pt x="1118" y="690" on="1"/>
        <pt x="1118" y="643" on="1"/>
        <pt x="1249" y="643" on="1"/>
        <pt x="1444" y="643" on="0"/>
        <pt x="1649" y="484" on="0"/>
        <pt x="1649" y="336" on="1"/>
        <pt x="1649" y="180" on="0"/>
        <pt x="1405" y="0" on="0"/>
        <pt x="1194" y="0" on="1"/>
        <pt x="815" y="0" on="1"/>
      </contour>
      <contour>
        <pt x="164" y="1726" on="1"/>
        <pt x="233" y="1726" on="0"/>
        <pt x="360" y="1636" on="0"/>
        <pt x="381" y="1577" on="1"/>
        <pt x="907" y="1577" on="1"/>
        <pt x="929" y="1636" on="0"/>
        <pt x="1055" y="1726" on="0"/>
        <pt x="1124" y="1726" on="1"/>
        <pt x="1174" y="1726" on="1"/>
        <pt x="1118" y="1475" on="1"/>
        <pt x="1174" y="1223" on="1"/>
        <pt x="1124" y="1223" on="1"/>
        <pt x="1055" y="1223" on="0"/>
        <pt x="928" y="1313" on="0"/>
        <pt x="907" y="1372" on="1"/>
        <pt x="381" y="1372" on="1"/>
        <pt x="359" y="1313" on="0"/>
        <pt x="233" y="1223" on="0"/>
        <pt x="164" y="1223" on="1"/>
        <pt x="115" y="1223" on="1"/>
        <pt x="170" y="1475" on="1"/>
        <pt x="115" y="1726" on="1"/>
      </contour>
      <contour>
        <pt x="1118" y="440" on="1"/>
        <pt x="1118" y="203" on="1"/>
        <pt x="1139" y="203" on="1"/>
        <pt x="1245" y="203" on="0"/>
        <pt x="1350" y="264" on="0"/>
        <pt x="1350" y="334" on="1"/>
        <pt x="1350" y="394" on="0"/>
        <pt x="1265" y="440" on="0"/>
        <pt x="1186" y="440" on="1"/>
      </contour>
    </TTGlyph>
    <TTGlyph name="uni126D" xMin="72" yMin="0" xMax="1483" yMax="1726">
      <contour>
        <pt x="479" y="0" on="1"/>
        <pt x="479" y="432" on="1"/>
        <pt x="354" y="432" on="1"/>
        <pt x="334" y="357" on="0"/>
        <pt x="211" y="268" on="0"/>
        <pt x="121" y="268" on="1"/>
        <pt x="72" y="268" on="1"/>
        <pt x="143" y="662" on="1"/>
        <pt x="479" y="662" on="1"/>
        <pt x="479" y="694" on="1"/>
        <pt x="479" y="956" on="0"/>
        <pt x="727" y="1233" on="0"/>
        <pt x="958" y="1233" on="1"/>
        <pt x="1188" y="1233" on="0"/>
        <pt x="1427" y="953" on="0"/>
        <pt x="1427" y="690" on="1"/>
        <pt x="1427" y="0" on="1"/>
        <pt x="1124" y="0" on="1"/>
        <pt x="1124" y="700" on="1"/>
        <pt x="1124" y="847" on="0"/>
        <pt x="1039" y="981" on="0"/>
        <pt x="950" y="981" on="1"/>
        <pt x="865" y="981" on="0"/>
        <pt x="782" y="845" on="0"/>
        <pt x="782" y="698" on="1"/>
        <pt x="782" y="0" on="1"/>
      </contour>
      <contour>
        <pt x="473" y="1726" on="1"/>
        <pt x="542" y="1726" on="0"/>
        <pt x="667" y="1639" on="0"/>
        <pt x="690" y="1577" on="1"/>
        <pt x="1217" y="1577" on="1"/>
        <pt x="1235" y="1634" on="0"/>
        <pt x="1364" y="1726" on="0"/>
        <pt x="1434" y="1726" on="1"/>
        <pt x="1483" y="1726" on="1"/>
        <pt x="1427" y="1475" on="1"/>
        <pt x="1483" y="1223" on="1"/>
        <pt x="1434" y="1223" on="1"/>
        <pt x="1386" y="1223" on="0"/>
        <pt x="1296" y="1266" on="0"/>
        <pt x="1229" y="1336" on="0"/>
        <pt x="1217" y="1372" on="1"/>
        <pt x="690" y="1372" on="1"/>
        <pt x="668" y="1311" on="0"/>
        <pt x="542" y="1223" on="0"/>
        <pt x="473" y="1223" on="1"/>
        <pt x="424" y="1223" on="1"/>
        <pt x="479" y="1475" on="1"/>
        <pt x="424" y="1726" on="1"/>
      </contour>
    </TTGlyph>
    <TTGlyph name="uni126E" xMin="115" yMin="0" xMax="1174" yMax="1726">
      <contour>
        <pt x="170" y="0" on="1"/>
        <pt x="170" y="694" on="1"/>
        <pt x="170" y="956" on="0"/>
        <pt x="418" y="1233" on="0"/>
        <pt x="649" y="1233" on="1"/>
        <pt x="879" y="1233" on="0"/>
        <pt x="1118" y="953" on="0"/>
        <pt x="1118" y="690" on="1"/>
        <pt x="1118" y="485" on="1"/>
        <pt x="815" y="485" on="1"/>
        <pt x="815" y="700" on="1"/>
        <pt x="815" y="847" on="0"/>
        <pt x="730" y="981" on="0"/>
        <pt x="641" y="981" on="1"/>
        <pt x="556" y="981" on="0"/>
        <pt x="473" y="845" on="0"/>
        <pt x="473" y="698" on="1"/>
        <pt x="473" y="0" on="1"/>
      </contour>
      <contour>
        <pt x="164" y="1726" on="1"/>
        <pt x="233" y="1726" on="0"/>
        <pt x="360" y="1636" on="0"/>
        <pt x="381" y="1577" on="1"/>
        <pt x="907" y="1577" on="1"/>
        <pt x="929" y="1636" on="0"/>
        <pt x="1055" y="1726" on="0"/>
        <pt x="1124" y="1726" on="1"/>
        <pt x="1174" y="1726" on="1"/>
        <pt x="1118" y="1475" on="1"/>
        <pt x="1174" y="1223" on="1"/>
        <pt x="1124" y="1223" on="1"/>
        <pt x="1055" y="1223" on="0"/>
        <pt x="928" y="1313" on="0"/>
        <pt x="907" y="1372" on="1"/>
        <pt x="381" y="1372" on="1"/>
        <pt x="359" y="1313" on="0"/>
        <pt x="233" y="1223" on="0"/>
        <pt x="164" y="1223" on="1"/>
        <pt x="115" y="1223" on="1"/>
        <pt x="170" y="1475" on="1"/>
        <pt x="115" y="1726" on="1"/>
      </contour>
    </TTGlyph>
    <TTGlyph name="uni126F" xMin="94" yMin="-164" xMax="1393" yMax="1726">
      <contour>
        <pt x="795" y="229" on="1"/>
        <pt x="795" y="700" on="1"/>
        <pt x="795" y="847" on="0"/>
        <pt x="710" y="981" on="0"/>
        <pt x="621" y="981" on="1"/>
        <pt x="537" y="981" on="0"/>
        <pt x="453" y="848" on="0"/>
        <pt x="453" y="698" on="1"/>
        <pt x="453" y="487" on="1"/>
        <pt x="150" y="487" on="1"/>
        <pt x="150" y="694" on="1"/>
        <pt x="150" y="956" on="0"/>
        <pt x="398" y="1233" on="0"/>
        <pt x="629" y="1233" on="1"/>
        <pt x="859" y="1233" on="0"/>
        <pt x="1098" y="953" on="0"/>
        <pt x="1098" y="690" on="1"/>
        <pt x="1098" y="229" on="1"/>
        <pt x="1321" y="229" on="1"/>
        <pt x="1393" y="-164" on="1"/>
        <pt x="1343" y="-164" on="1"/>
        <pt x="1254" y="-164" on="0"/>
        <pt x="1130" y="-75" on="0"/>
        <pt x="1110" y="0" on="1"/>
        <pt x="381" y="0" on="1"/>
        <pt x="361" y="-75" on="0"/>
        <pt x="236" y="-164" on="0"/>
        <pt x="147" y="-164" on="1"/>
        <pt x="98" y="-164" on="1"/>
        <pt x="170" y="229" on="1"/>
      </contour>
      <contour>
        <pt x="143" y="1726" on="1"/>
        <pt x="212" y="1726" on="0"/>
        <pt x="337" y="1639" on="0"/>
        <pt x="360" y="1577" on="1"/>
        <pt x="887" y="1577" on="1"/>
        <pt x="905" y="1634" on="0"/>
        <pt x="1034" y="1726" on="0"/>
        <pt x="1104" y="1726" on="1"/>
        <pt x="1153" y="1726" on="1"/>
        <pt x="1098" y="1475" on="1"/>
        <pt x="1153" y="1223" on="1"/>
        <pt x="1104" y="1223" on="1"/>
        <pt x="1056" y="1223" on="0"/>
        <pt x="966" y="1266" on="0"/>
        <pt x="899" y="1336" on="0"/>
        <pt x="887" y="1372" on="1"/>
        <pt x="360" y="1372" on="1"/>
        <pt x="338" y="1311" on="0"/>
        <pt x="212" y="1223" on="0"/>
        <pt x="143" y="1223" on="1"/>
        <pt x="94" y="1223" on="1"/>
        <pt x="150" y="1475" on="1"/>
        <pt x="94" y="1726" on="1"/>
      </contour>
    </TTGlyph>
    <TTGlyph name="uni1270" xMin="92" yMin="0" xMax="1352" yMax="1462">
      <contour>
        <pt x="571" y="1081" on="1"/>
        <pt x="571" y="1462" on="1"/>
        <pt x="872" y="1462" on="1"/>
        <pt x="872" y="1081" on="1"/>
        <pt x="1280" y="1081" on="1"/>
        <pt x="1352" y="688" on="1"/>
        <pt x="1303" y="688" on="1"/>
        <pt x="1214" y="688" on="0"/>
        <pt x="1089" y="777" on="0"/>
        <pt x="1069" y="852" on="1"/>
        <pt x="872" y="852" on="1"/>
        <pt x="872" y="0" on="1"/>
        <pt x="571" y="0" on="1"/>
        <pt x="571" y="852" on="1"/>
        <pt x="375" y="852" on="1"/>
        <pt x="355" y="777" on="0"/>
        <pt x="230" y="688" on="0"/>
        <pt x="141" y="688" on="1"/>
        <pt x="92" y="688" on="1"/>
        <pt x="164" y="1081" on="1"/>
      </contour>
    </TTGlyph>
    <TTGlyph name="uni1271" xMin="92" yMin="0" xMax="1352" yMax="1462">
      <contour>
        <pt x="872" y="541" on="1"/>
        <pt x="1280" y="541" on="1"/>
        <pt x="1352" y="147" on="1"/>
        <pt x="1303" y="147" on="1"/>
        <pt x="1214" y="147" on="0"/>
        <pt x="1089" y="236" on="0"/>
        <pt x="1069" y="311" on="1"/>
        <pt x="872" y="311" on="1"/>
        <pt x="872" y="0" on="1"/>
        <pt x="571" y="0" on="1"/>
        <pt x="571" y="852" on="1"/>
        <pt x="375" y="852" on="1"/>
        <pt x="355" y="777" on="0"/>
        <pt x="230" y="688" on="0"/>
        <pt x="141" y="688" on="1"/>
        <pt x="92" y="688" on="1"/>
        <pt x="164" y="1081" on="1"/>
        <pt x="571" y="1081" on="1"/>
        <pt x="571" y="1462" on="1"/>
        <pt x="872" y="1462" on="1"/>
        <pt x="872" y="1081" on="1"/>
        <pt x="1280" y="1081" on="1"/>
        <pt x="1352" y="688" on="1"/>
        <pt x="1303" y="688" on="1"/>
        <pt x="1214" y="688" on="0"/>
        <pt x="1089" y="777" on="0"/>
        <pt x="1069" y="852" on="1"/>
        <pt x="872" y="852" on="1"/>
      </contour>
    </TTGlyph>
    <TTGlyph name="uni1272" xMin="92" yMin="-131" xMax="1352" yMax="1462">
      <contour>
        <pt x="571" y="1081" on="1"/>
        <pt x="571" y="1462" on="1"/>
        <pt x="872" y="1462" on="1"/>
        <pt x="872" y="1081" on="1"/>
        <pt x="1280" y="1081" on="1"/>
        <pt x="1352" y="688" on="1"/>
        <pt x="1303" y="688" on="1"/>
        <pt x="1214" y="688" on="0"/>
        <pt x="1089" y="777" on="0"/>
        <pt x="1069" y="852" on="1"/>
        <pt x="872" y="852" on="1"/>
        <pt x="872" y="229" on="1"/>
        <pt x="1085" y="229" on="1"/>
        <pt x="1105" y="284" on="0"/>
        <pt x="1231" y="360" on="0"/>
        <pt x="1303" y="360" on="1"/>
        <pt x="1352" y="360" on="1"/>
        <pt x="1296" y="115" on="1"/>
        <pt x="1352" y="-131" on="1"/>
        <pt x="1303" y="-131" on="1"/>
        <pt x="1230" y="-131" on="0"/>
        <pt x="1105" y="-55" on="0"/>
        <pt x="1085" y="0" on="1"/>
        <pt x="571" y="0" on="1"/>
        <pt x="571" y="852" on="1"/>
        <pt x="375" y="852" on="1"/>
        <pt x="355" y="777" on="0"/>
        <pt x="230" y="688" on="0"/>
        <pt x="141" y="688" on="1"/>
        <pt x="92" y="688" on="1"/>
        <pt x="164" y="1081" on="1"/>
      </contour>
    </TTGlyph>
    <TTGlyph name="uni1273" xMin="92" yMin="-164" xMax="1352" yMax="1462">
      <contour>
        <pt x="571" y="1081" on="1"/>
        <pt x="571" y="1462" on="1"/>
        <pt x="872" y="1462" on="1"/>
        <pt x="872" y="1081" on="1"/>
        <pt x="1280" y="1081" on="1"/>
        <pt x="1352" y="688" on="1"/>
        <pt x="1303" y="688" on="1"/>
        <pt x="1214" y="688" on="0"/>
        <pt x="1089" y="777" on="0"/>
        <pt x="1069" y="852" on="1"/>
        <pt x="872" y="852" on="1"/>
        <pt x="872" y="465" on="1"/>
        <pt x="872" y="233" on="0"/>
        <pt x="685" y="0" on="0"/>
        <pt x="504" y="0" on="1"/>
        <pt x="375" y="0" on="1"/>
        <pt x="353" y="-77" on="0"/>
        <pt x="228" y="-164" on="0"/>
        <pt x="141" y="-164" on="1"/>
        <pt x="92" y="-164" on="1"/>
        <pt x="164" y="229" on="1"/>
        <pt x="395" y="229" on="1"/>
        <pt x="489" y="229" on="0"/>
        <pt x="571" y="310" on="0"/>
        <pt x="571" y="408" on="1"/>
        <pt x="571" y="852" on="1"/>
        <pt x="375" y="852" on="1"/>
        <pt x="355" y="777" on="0"/>
        <pt x="230" y="688" on="0"/>
        <pt x="141" y="688" on="1"/>
        <pt x="92" y="688" on="1"/>
        <pt x="164" y="1081" on="1"/>
      </contour>
    </TTGlyph>
    <TTGlyph name="uni1274" xMin="92" yMin="0" xMax="1403" yMax="1462">
      <contour>
        <pt x="571" y="1126" on="1"/>
        <pt x="571" y="1462" on="1"/>
        <pt x="872" y="1462" on="1"/>
        <pt x="872" y="1126" on="1"/>
        <pt x="1280" y="1126" on="1"/>
        <pt x="1352" y="733" on="1"/>
        <pt x="1303" y="733" on="1"/>
        <pt x="1214" y="733" on="0"/>
        <pt x="1089" y="822" on="0"/>
        <pt x="1069" y="897" on="1"/>
        <pt x="872" y="897" on="1"/>
        <pt x="872" y="643" on="1"/>
        <pt x="1004" y="643" on="1"/>
        <pt x="1199" y="643" on="0"/>
        <pt x="1403" y="484" on="0"/>
        <pt x="1403" y="336" on="1"/>
        <pt x="1403" y="180" on="0"/>
        <pt x="1159" y="0" on="0"/>
        <pt x="948" y="0" on="1"/>
        <pt x="571" y="0" on="1"/>
        <pt x="571" y="897" on="1"/>
        <pt x="375" y="897" on="1"/>
        <pt x="355" y="822" on="0"/>
        <pt x="230" y="733" on="0"/>
        <pt x="141" y="733" on="1"/>
        <pt x="92" y="733" on="1"/>
        <pt x="164" y="1126" on="1"/>
      </contour>
      <contour>
        <pt x="872" y="440" on="1"/>
        <pt x="872" y="203" on="1"/>
        <pt x="893" y="203" on="1"/>
        <pt x="999" y="203" on="0"/>
        <pt x="1104" y="264" on="0"/>
        <pt x="1104" y="334" on="1"/>
        <pt x="1104" y="394" on="0"/>
        <pt x="1019" y="440" on="0"/>
        <pt x="940" y="440" on="1"/>
      </contour>
    </TTGlyph>
    <TTGlyph name="uni1275" xMin="92" yMin="0" xMax="1352" yMax="1649">
      <contour>
        <pt x="594" y="1649" on="1"/>
        <pt x="594" y="1513" on="1"/>
        <pt x="594" y="1406" on="0"/>
        <pt x="694" y="1311" on="0"/>
        <pt x="805" y="1311" on="1"/>
        <pt x="872" y="1311" on="1"/>
        <pt x="872" y="1081" on="1"/>
        <pt x="1280" y="1081" on="1"/>
        <pt x="1352" y="688" on="1"/>
        <pt x="1303" y="688" on="1"/>
        <pt x="1214" y="688" on="0"/>
        <pt x="1089" y="777" on="0"/>
        <pt x="1069" y="852" on="1"/>
        <pt x="872" y="852" on="1"/>
        <pt x="872" y="0" on="1"/>
        <pt x="571" y="0" on="1"/>
        <pt x="571" y="852" on="1"/>
        <pt x="375" y="852" on="1"/>
        <pt x="355" y="777" on="0"/>
        <pt x="230" y="688" on="0"/>
        <pt x="141" y="688" on="1"/>
        <pt x="92" y="688" on="1"/>
        <pt x="164" y="1081" on="1"/>
        <pt x="571" y="1081" on="1"/>
        <pt x="571" y="1137" on="1"/>
        <pt x="303" y="1215" on="0"/>
        <pt x="303" y="1501" on="1"/>
        <pt x="303" y="1649" on="1"/>
      </contour>
    </TTGlyph>
    <TTGlyph name="uni1276" xMin="92" yMin="0" xMax="1352" yMax="1577">
      <contour>
        <pt x="1300" y="543" on="1"/>
        <pt x="1211" y="543" on="0"/>
        <pt x="1090" y="631" on="0"/>
        <pt x="1069" y="707" on="1"/>
        <pt x="872" y="707" on="1"/>
        <pt x="872" y="0" on="1"/>
        <pt x="571" y="0" on="1"/>
        <pt x="571" y="707" on="1"/>
        <pt x="375" y="707" on="1"/>
        <pt x="356" y="633" on="0"/>
        <pt x="231" y="543" on="0"/>
        <pt x="143" y="543" on="1"/>
        <pt x="92" y="543" on="1"/>
        <pt x="164" y="936" on="1"/>
        <pt x="571" y="936" on="1"/>
        <pt x="571" y="942" on="1"/>
        <pt x="571" y="978" on="0"/>
        <pt x="590" y="1014" on="1"/>
        <pt x="487" y="1031" on="0"/>
        <pt x="348" y="1195" on="0"/>
        <pt x="348" y="1298" on="1"/>
        <pt x="348" y="1435" on="0"/>
        <pt x="540" y="1577" on="0"/>
        <pt x="725" y="1577" on="1"/>
        <pt x="904" y="1577" on="0"/>
        <pt x="1100" y="1439" on="0"/>
        <pt x="1100" y="1311" on="1"/>
        <pt x="1100" y="1224" on="0"/>
        <pt x="1008" y="1072" on="0"/>
        <pt x="920" y="1024" on="1"/>
        <pt x="895" y="1012" on="0"/>
        <pt x="872" y="969" on="0"/>
        <pt x="872" y="950" on="1"/>
        <pt x="872" y="936" on="1"/>
        <pt x="1280" y="936" on="1"/>
        <pt x="1352" y="543" on="1"/>
      </contour>
      <contour>
        <pt x="725" y="1411" on="1"/>
        <pt x="673" y="1411" on="0"/>
        <pt x="610" y="1353" on="0"/>
        <pt x="610" y="1305" on="1"/>
        <pt x="610" y="1249" on="0"/>
        <pt x="668" y="1173" on="0"/>
        <pt x="731" y="1145" on="1"/>
        <pt x="838" y="1200" on="0"/>
        <pt x="838" y="1305" on="1"/>
        <pt x="838" y="1351" on="0"/>
        <pt x="775" y="1411" on="0"/>
      </contour>
    </TTGlyph>
    <TTGlyph name="uni1277" xMin="92" yMin="-164" xMax="1352" yMax="1462">
      <contour>
        <pt x="571" y="1081" on="1"/>
        <pt x="571" y="1462" on="1"/>
        <pt x="872" y="1462" on="1"/>
        <pt x="872" y="1081" on="1"/>
        <pt x="1280" y="1081" on="1"/>
        <pt x="1352" y="688" on="1"/>
        <pt x="1303" y="688" on="1"/>
        <pt x="1214" y="688" on="0"/>
        <pt x="1089" y="777" on="0"/>
        <pt x="1069" y="852" on="1"/>
        <pt x="872" y="852" on="1"/>
        <pt x="872" y="229" on="1"/>
        <pt x="1280" y="229" on="1"/>
        <pt x="1352" y="-164" on="1"/>
        <pt x="1303" y="-164" on="1"/>
        <pt x="1214" y="-164" on="0"/>
        <pt x="1089" y="-75" on="0"/>
        <pt x="1069" y="0" on="1"/>
        <pt x="375" y="0" on="1"/>
        <pt x="355" y="-75" on="0"/>
        <pt x="230" y="-164" on="0"/>
        <pt x="141" y="-164" on="1"/>
        <pt x="92" y="-164" on="1"/>
        <pt x="164" y="229" on="1"/>
        <pt x="571" y="229" on="1"/>
        <pt x="571" y="852" on="1"/>
        <pt x="375" y="852" on="1"/>
        <pt x="355" y="777" on="0"/>
        <pt x="230" y="688" on="0"/>
        <pt x="141" y="688" on="1"/>
        <pt x="92" y="688" on="1"/>
        <pt x="164" y="1081" on="1"/>
      </contour>
    </TTGlyph>
    <TTGlyph name="uni1278" xMin="92" yMin="0" xMax="1352" yMax="1726">
      <contour>
        <pt x="141" y="1726" on="1"/>
        <pt x="210" y="1726" on="0"/>
        <pt x="335" y="1639" on="0"/>
        <pt x="358" y="1577" on="1"/>
        <pt x="1085" y="1577" on="1"/>
        <pt x="1107" y="1636" on="0"/>
        <pt x="1233" y="1726" on="0"/>
        <pt x="1303" y="1726" on="1"/>
        <pt x="1352" y="1726" on="1"/>
        <pt x="1296" y="1475" on="1"/>
        <pt x="1352" y="1223" on="1"/>
        <pt x="1303" y="1223" on="1"/>
        <pt x="1233" y="1223" on="0"/>
        <pt x="1107" y="1312" on="0"/>
        <pt x="1085" y="1372" on="1"/>
        <pt x="872" y="1372" on="1"/>
        <pt x="872" y="1081" on="1"/>
        <pt x="1280" y="1081" on="1"/>
        <pt x="1352" y="688" on="1"/>
        <pt x="1303" y="688" on="1"/>
        <pt x="1214" y="688" on="0"/>
        <pt x="1089" y="777" on="0"/>
        <pt x="1069" y="852" on="1"/>
        <pt x="872" y="852" on="1"/>
        <pt x="872" y="0" on="1"/>
        <pt x="571" y="0" on="1"/>
        <pt x="571" y="852" on="1"/>
        <pt x="375" y="852" on="1"/>
        <pt x="355" y="777" on="0"/>
        <pt x="230" y="688" on="0"/>
        <pt x="141" y="688" on="1"/>
        <pt x="92" y="688" on="1"/>
        <pt x="164" y="1081" on="1"/>
        <pt x="571" y="1081" on="1"/>
        <pt x="571" y="1372" on="1"/>
        <pt x="358" y="1372" on="1"/>
        <pt x="336" y="1311" on="0"/>
        <pt x="210" y="1223" on="0"/>
        <pt x="141" y="1223" on="1"/>
        <pt x="92" y="1223" on="1"/>
        <pt x="147" y="1475" on="1"/>
        <pt x="92" y="1726" on="1"/>
      </contour>
    </TTGlyph>
    <TTGlyph name="uni1279" xMin="92" yMin="0" xMax="1352" yMax="1726">
      <contour>
        <pt x="872" y="541" on="1"/>
        <pt x="1280" y="541" on="1"/>
        <pt x="1352" y="147" on="1"/>
        <pt x="1303" y="147" on="1"/>
        <pt x="1214" y="147" on="0"/>
        <pt x="1089" y="236" on="0"/>
        <pt x="1069" y="311" on="1"/>
        <pt x="872" y="311" on="1"/>
        <pt x="872" y="0" on="1"/>
        <pt x="571" y="0" on="1"/>
        <pt x="571" y="852" on="1"/>
        <pt x="375" y="852" on="1"/>
        <pt x="355" y="777" on="0"/>
        <pt x="230" y="688" on="0"/>
        <pt x="141" y="688" on="1"/>
        <pt x="92" y="688" on="1"/>
        <pt x="164" y="1081" on="1"/>
        <pt x="571" y="1081" on="1"/>
        <pt x="571" y="1372" on="1"/>
        <pt x="358" y="1372" on="1"/>
        <pt x="336" y="1311" on="0"/>
        <pt x="210" y="1223" on="0"/>
        <pt x="141" y="1223" on="1"/>
        <pt x="92" y="1223" on="1"/>
        <pt x="147" y="1475" on="1"/>
        <pt x="92" y="1726" on="1"/>
        <pt x="141" y="1726" on="1"/>
        <pt x="210" y="1726" on="0"/>
        <pt x="335" y="1639" on="0"/>
        <pt x="358" y="1577" on="1"/>
        <pt x="1085" y="1577" on="1"/>
        <pt x="1107" y="1636" on="0"/>
        <pt x="1233" y="1726" on="0"/>
        <pt x="1303" y="1726" on="1"/>
        <pt x="1352" y="1726" on="1"/>
        <pt x="1296" y="1475" on="1"/>
        <pt x="1352" y="1223" on="1"/>
        <pt x="1303" y="1223" on="1"/>
        <pt x="1233" y="1223" on="0"/>
        <pt x="1107" y="1312" on="0"/>
        <pt x="1085" y="1372" on="1"/>
        <pt x="872" y="1372" on="1"/>
        <pt x="872" y="1081" on="1"/>
        <pt x="1280" y="1081" on="1"/>
        <pt x="1352" y="688" on="1"/>
        <pt x="1303" y="688" on="1"/>
        <pt x="1214" y="688" on="0"/>
        <pt x="1089" y="777" on="0"/>
        <pt x="1069" y="852" on="1"/>
        <pt x="872" y="852" on="1"/>
      </contour>
    </TTGlyph>
    <TTGlyph name="uni127A" xMin="92" yMin="-131" xMax="1352" yMax="1726">
      <contour>
        <pt x="141" y="1726" on="1"/>
        <pt x="210" y="1726" on="0"/>
        <pt x="335" y="1639" on="0"/>
        <pt x="358" y="1577" on="1"/>
        <pt x="1085" y="1577" on="1"/>
        <pt x="1107" y="1636" on="0"/>
        <pt x="1233" y="1726" on="0"/>
        <pt x="1303" y="1726" on="1"/>
        <pt x="1352" y="1726" on="1"/>
        <pt x="1296" y="1475" on="1"/>
        <pt x="1352" y="1223" on="1"/>
        <pt x="1303" y="1223" on="1"/>
        <pt x="1233" y="1223" on="0"/>
        <pt x="1107" y="1312" on="0"/>
        <pt x="1085" y="1372" on="1"/>
        <pt x="872" y="1372" on="1"/>
        <pt x="872" y="1081" on="1"/>
        <pt x="1280" y="1081" on="1"/>
        <pt x="1352" y="688" on="1"/>
        <pt x="1303" y="688" on="1"/>
        <pt x="1214" y="688" on="0"/>
        <pt x="1089" y="777" on="0"/>
        <pt x="1069" y="852" on="1"/>
        <pt x="872" y="852" on="1"/>
        <pt x="872" y="229" on="1"/>
        <pt x="1085" y="229" on="1"/>
        <pt x="1105" y="284" on="0"/>
        <pt x="1231" y="360" on="0"/>
        <pt x="1303" y="360" on="1"/>
        <pt x="1352" y="360" on="1"/>
        <pt x="1296" y="115" on="1"/>
        <pt x="1352" y="-131" on="1"/>
        <pt x="1303" y="-131" on="1"/>
        <pt x="1230" y="-131" on="0"/>
        <pt x="1105" y="-55" on="0"/>
        <pt x="1085" y="0" on="1"/>
        <pt x="571" y="0" on="1"/>
        <pt x="571" y="852" on="1"/>
        <pt x="375" y="852" on="1"/>
        <pt x="355" y="777" on="0"/>
        <pt x="230" y="688" on="0"/>
        <pt x="141" y="688" on="1"/>
        <pt x="92" y="688" on="1"/>
        <pt x="164" y="1081" on="1"/>
        <pt x="571" y="1081" on="1"/>
        <pt x="571" y="1372" on="1"/>
        <pt x="358" y="1372" on="1"/>
        <pt x="336" y="1311" on="0"/>
        <pt x="210" y="1223" on="0"/>
        <pt x="141" y="1223" on="1"/>
        <pt x="92" y="1223" on="1"/>
        <pt x="147" y="1475" on="1"/>
        <pt x="92" y="1726" on="1"/>
      </contour>
    </TTGlyph>
    <TTGlyph name="uni127B" xMin="92" yMin="-164" xMax="1352" yMax="1726">
      <contour>
        <pt x="141" y="1726" on="1"/>
        <pt x="210" y="1726" on="0"/>
        <pt x="335" y="1639" on="0"/>
        <pt x="358" y="1577" on="1"/>
        <pt x="1085" y="1577" on="1"/>
        <pt x="1107" y="1636" on="0"/>
        <pt x="1233" y="1726" on="0"/>
        <pt x="1303" y="1726" on="1"/>
        <pt x="1352" y="1726" on="1"/>
        <pt x="1296" y="1475" on="1"/>
        <pt x="1352" y="1223" on="1"/>
        <pt x="1303" y="1223" on="1"/>
        <pt x="1233" y="1223" on="0"/>
        <pt x="1107" y="1312" on="0"/>
        <pt x="1085" y="1372" on="1"/>
        <pt x="872" y="1372" on="1"/>
        <pt x="872" y="1081" on="1"/>
        <pt x="1280" y="1081" on="1"/>
        <pt x="1352" y="688" on="1"/>
        <pt x="1303" y="688" on="1"/>
        <pt x="1214" y="688" on="0"/>
        <pt x="1089" y="777" on="0"/>
        <pt x="1069" y="852" on="1"/>
        <pt x="872" y="852" on="1"/>
        <pt x="872" y="465" on="1"/>
        <pt x="872" y="233" on="0"/>
        <pt x="685" y="0" on="0"/>
        <pt x="504" y="0" on="1"/>
        <pt x="375" y="0" on="1"/>
        <pt x="353" y="-77" on="0"/>
        <pt x="228" y="-164" on="0"/>
        <pt x="141" y="-164" on="1"/>
        <pt x="92" y="-164" on="1"/>
        <pt x="164" y="229" on="1"/>
        <pt x="395" y="229" on="1"/>
        <pt x="489" y="229" on="0"/>
        <pt x="571" y="310" on="0"/>
        <pt x="571" y="408" on="1"/>
        <pt x="571" y="852" on="1"/>
        <pt x="375" y="852" on="1"/>
        <pt x="355" y="777" on="0"/>
        <pt x="230" y="688" on="0"/>
        <pt x="141" y="688" on="1"/>
        <pt x="92" y="688" on="1"/>
        <pt x="164" y="1081" on="1"/>
        <pt x="571" y="1081" on="1"/>
        <pt x="571" y="1372" on="1"/>
        <pt x="358" y="1372" on="1"/>
        <pt x="336" y="1311" on="0"/>
        <pt x="210" y="1223" on="0"/>
        <pt x="141" y="1223" on="1"/>
        <pt x="92" y="1223" on="1"/>
        <pt x="147" y="1475" on="1"/>
        <pt x="92" y="1726" on="1"/>
      </contour>
    </TTGlyph>
</ttFont>
